<?xml version="1.0" encoding="UTF-8" standalone="no"?>
<!-- Created with Inkscape (http://www.inkscape.org/) -->

<svg
   xmlns:dc="http://purl.org/dc/elements/1.1/"
   xmlns:cc="http://creativecommons.org/ns#"
   xmlns:rdf="http://www.w3.org/1999/02/22-rdf-syntax-ns#"
   xmlns:svg="http://www.w3.org/2000/svg"
   xmlns="http://www.w3.org/2000/svg"
   xmlns:sodipodi="http://sodipodi.sourceforge.net/DTD/sodipodi-0.dtd"
   xmlns:inkscape="http://www.inkscape.org/namespaces/inkscape"
   version="1.1"
   id="svg10"
   width="645.50867"
   height="387.13312"
   viewBox="0 0 645.50865 387.13312"
   sodipodi:docname="LeftEyeball.svg"
   inkscape:version="0.92.4 (5da689c313, 2019-01-14)">
  <metadata
     id="metadata16">
    <rdf:RDF>
      <cc:Work
         rdf:about="">
        <dc:format>image/svg+xml</dc:format>
        <dc:type
           rdf:resource="http://purl.org/dc/dcmitype/StillImage" />
        <dc:title></dc:title>
      </cc:Work>
    </rdf:RDF>
  </metadata>
  <defs
     id="defs14" />
  <sodipodi:namedview
     pagecolor="#ffffff"
     bordercolor="#666666"
     borderopacity="1"
     objecttolerance="10"
     gridtolerance="10"
     guidetolerance="10"
     inkscape:pageopacity="0"
     inkscape:pageshadow="2"
     inkscape:window-width="1920"
     inkscape:window-height="1017"
     id="namedview12"
     showgrid="false"
     inkscape:zoom="0.39552239"
     inkscape:cx="59.09974"
     inkscape:cy="127.47385"
     inkscape:window-x="-8"
     inkscape:window-y="-8"
     inkscape:window-maximized="1"
     inkscape:current-layer="svg10" />
  <g
     id="leftIris"
     transform="translate(-531.45701,-1657.5332)">
    <path
       style="fill:#9c9fa3;stroke-width:1.33333337"
       d="m 822.86788,2022.6119 c -22.38213,-4.2684 -38.5544,-11.2701 -61.33333,-26.554 -23.40787,-15.7059 -39.3453,-29.2055 -49.46998,-41.9028 -4.98876,-6.2563 -11.57692,-13.4245 -14.64033,-15.9295 -12.15787,-9.9408 -17.47379,-29.6432 -17.4782,-64.779 -0.004,-28.1071 1.28295,-36.1672 9.78932,-61.3334 9.92249,-29.3557 15.00452,-38.2082 32.27351,-56.218 17.17366,-17.9104 22.54636,-22.0324 40.19234,-30.8364 49.10938,-24.5016 111.62359,-25.7661 159.71335,-3.2305 20.7797,9.7377 43.76971,28.006 58.89663,46.8005 12.5418,15.5827 33.03921,56.6058 35.26321,70.5752 2.7489,17.2658 -2.5504,42.8706 -13.6469,65.9395 -8.92648,18.5573 -19.69474,34.7037 -39.78204,59.6507 -26.60582,33.0424 -47.44999,48.1812 -76.44424,55.5204 -7.88524,1.9958 -55.79999,3.734 -63.33334,2.2973 z m 98.66667,-153.0867 c 0,-1.0566 -0.65228,-2.3244 -1.44951,-2.8172 -1.88269,-1.1634 -4.45253,1.4063 -3.28896,3.2891 1.30695,2.1147 4.73847,1.7729 4.73847,-0.4719 z m -9.33333,-14.7453 c 0,-1.1 -0.97347,-2 -2.16326,-2 -1.77173,0 -1.86284,0.362 -0.50341,2 0.91292,1.1 1.88639,2 2.16325,2 0.27688,0 0.50342,-0.9 0.50342,-2 z m 13.67188,-31.6667 c 1.00237,-2.6778 -0.87795,-13.6666 -2.33855,-13.6666 -1.45971,0 -2.59792,10.5186 -1.45929,13.4858 0.88266,2.3003 2.96737,2.3995 3.79784,0.1808 z m -41.67188,-60.3333 c -1.75651,-2.1164 -6.66667,-2.7712 -6.66667,-0.8889 0,1.9322 1.67305,2.8889 5.05215,2.8889 2.75937,0 3.0133,-0.3145 1.61452,-2 z"
       id="path71"
       inkscape:connector-curvature="0" />
    <path
       style="fill:#7091a6;stroke-width:1.33333337"
       d="m 824.86788,2018.5722 c -27.9858,-4.4132 -50.76591,-16.1112 -87.18743,-44.7726 -9.85548,-7.7556 -16.76442,-14.5297 -22.5345,-22.0948 -4.57675,-6.0004 -10.99846,-13.3776 -14.27047,-16.3936 -12.26015,-11.301 -16.98853,-28.5496 -16.95907,-61.8646 0.0107,-11.7334 0.70232,-25.5334 1.53766,-30.6667 2.05593,-12.6341 12.23581,-42.644 19.45536,-57.3536 13.00862,-26.5047 45.61718,-53.73 77.53736,-64.7369 21.57798,-7.4407 58.53821,-12.8918 75.72377,-11.1679 43.10962,4.324 75.15727,17.8368 102.31319,43.1399 15.03773,14.0116 24.19636,27.1756 38.14116,54.8216 15.04259,29.8222 16.17139,34.6928 12.89029,55.6168 -2.562,16.3384 -4.7241,22.9829 -13.60504,41.8105 -7.99273,16.9445 -13.26266,24.9229 -33.92513,51.3609 -22.37385,28.6276 -36.77467,41.5844 -58.25911,52.4171 -15.12524,7.6263 -25.93689,9.6983 -52.85804,10.1299 -13.2,0.2116 -25.8,0.1013 -28,-0.246 z m 99.64526,-153.1418 c 3.25033,-26.5182 4.60398,-54.0456 2.87876,-58.5414 -1.46031,-3.8055 -5.69506,-2.4119 -7.77142,2.5576 -1.47314,3.5257 -2.74534,4.6666 -5.20352,4.6666 -5.58217,0 -8.53148,3.8674 -9.29984,12.1947 -0.73642,7.9812 0.79054,11.8173 5.76318,14.4787 2.23477,1.196 2.71944,0.7029 4.00624,-4.076 1.6377,-6.0819 4.40362,-6.4684 5.08129,-0.7099 0.44729,3.8008 -2.84467,8.7792 -5.80532,8.7792 -2.84455,0 -14.00449,6.8515 -13.22207,8.1175 0.41332,0.6686 1.52308,1.2158 2.46615,1.2158 3.22243,0 6.20243,4.8024 5.82597,9.389 -0.32308,3.9361 0.24367,4.7942 4.96866,7.5233 7.77865,4.4929 9.16782,3.7391 10.31192,-5.5951 z m -150.23285,-71.4452 c 1.40903,-2.2798 -3.03668,-6.1144 -4.91326,-4.2378 -0.83595,0.836 -1.15907,2.4602 -0.71804,3.6096 0.92278,2.4046 4.3005,2.7816 5.6313,0.6282 z m 112.3205,-29.4698 c 0.58393,-3.032 -5.49281,-6.8696 -9.07679,-5.7322 -3.64421,1.1567 -2.9417,4.764 1.3557,6.9615 4.17646,2.1356 7.1647,1.6599 7.72109,-1.2293 z"
       id="path69"
       inkscape:connector-curvature="0" />
    <path
       style="fill:#657a86;stroke-width:1.33333337"
       d="m 817.27808,2016.894 c -6.37438,-1.3877 -13.87439,-3.2641 -16.66667,-4.1694 -23.30044,-7.5558 -70.27486,-41.1036 -85.49501,-61.0584 -4.56049,-5.9792 -10.96891,-13.339 -14.24092,-16.355 -12.23737,-11.28 -16.93857,-28.4484 -16.94032,-61.8646 -10e-4,-26.3471 1.39199,-35.1579 9.17221,-58 11.77402,-34.5678 18.60294,-45.4796 41.08871,-65.656 23.42267,-21.0171 50.79513,-32.8895 88.55006,-38.4075 17.28485,-2.5261 48.24838,-0.9871 64.42548,3.2025 37.78614,9.7858 66.62038,28.0323 89.26096,56.4851 7.79314,9.7937 29.17932,48.8993 33.17792,60.6672 4.3259,12.7312 2.8879,35.1363 -3.4435,53.654 -4.0565,11.864 -14.88168,33.3385 -22.29088,44.2197 -12.2677,18.0163 -37.91032,49.2818 -47.01657,57.3263 -16.92401,14.9508 -31.94061,23.4817 -50.65833,28.7788 -14.08527,3.9861 -52.97108,4.6504 -68.92314,1.1773 z m 106.95724,-144.1141 c 3.25218,-6.5927 6.41682,-20.2964 5.70298,-24.6952 -0.69062,-4.2559 -0.30188,-5.2859 2.98346,-7.9055 l 3.77756,-3.0121 -2.91572,-3.7068 c -2.45012,-3.1148 -2.91862,-5.4345 -2.93392,-14.5269 -0.0221,-13.1474 -0.61073,-15.4954 -4.62853,-18.4638 -3.10068,-2.2908 -3.1564,-2.26 -6.62965,3.6667 -2.93771,5.0128 -4.1601,5.9769 -7.57831,5.9769 -5.49743,0 -12.44479,3.463 -14.16472,7.0603 -2.73084,5.712 -2.85837,7.6176 -0.88423,13.2128 1.93154,5.4745 1.87356,5.8977 -1.83245,13.3748 -4.24307,8.5608 -3.91519,9.4672 3.93545,10.8803 6.09423,1.0968 7.95811,3.2945 7.53242,8.8813 -0.18396,2.4143 0.25112,4.5953 0.96686,4.8467 0.71575,0.2513 3.70136,1.8973 6.6347,3.6576 5.91449,3.5493 8.55685,3.7476 10.0341,0.7529 z M 774.20121,1792.095 c 0,-1.7314 -1.03878,-2.7959 -3,-3.0746 -2.20934,-0.3137 -3,0.2427 -3,2.1112 0,1.3955 0.42075,2.9579 0.93499,3.4722 1.76872,1.7686 5.06501,0.136 5.06501,-2.5088 z m 112.66667,-27.2843 c 0,-3.1212 -5.52412,-7.1131 -8.93444,-6.4563 -3.53118,0.68 -2.93108,5.4108 0.93444,7.3664 4.94338,2.501 8,2.1532 8,-0.9101 z"
       id="path67"
       inkscape:connector-curvature="0" />
    <path
       style="fill:#4e5456;stroke-width:1.33333337"
       d="m 827.53455,2016.2895 c -25.86726,-3.7325 -38.86515,-8.8557 -62.05322,-24.4587 -24.72812,-16.639 -40.2368,-29.8238 -49.32744,-41.9357 -4.58837,-6.1133 -11.03097,-13.7591 -14.31689,-16.9905 -11.20075,-11.0151 -16.298,-29.2067 -16.28644,-58.1247 0.009,-23.49 2.0582,-36.6812 8.80121,-56.6667 11.90004,-35.2702 19.0913,-47.1048 40.00023,-65.8276 27.69748,-24.8017 63.70895,-38.5532 105.84922,-40.4201 32.2914,-1.4307 73.89557,9.8087 97.82421,26.4272 18.20632,12.6443 37.28633,32.584 45.81707,47.8815 26.1495,46.8916 28.4138,53.218 25.9709,72.5597 -0.8476,6.7109 -2.8178,16.3665 -4.3782,21.4572 -3.4686,11.316 -15.34464,36.6588 -21.3004,45.4541 -10.39865,15.3566 -34.64662,45.8762 -43.29974,54.4991 -17.17711,17.1171 -37.61443,29.3168 -56.98006,34.0133 -14.21336,3.4471 -40.35028,4.4364 -56.32045,2.1319 z m 107.08063,-122.2677 c -0.65868,-1.976 -12.88162,-8.552 -13.93602,-7.4976 -1.31408,1.3141 2.20255,4.9058 6.76411,6.9085 5.08161,2.2312 7.79351,2.4539 7.17191,0.5891 z m 21.31937,-4.1752 c 0.88,-0.88 1.6,-3.5948 1.6,-6.0331 0,-3.5913 -0.68479,-4.6933 -3.60727,-5.8044 -3.06974,-1.1671 -3.93597,-0.9357 -5.81325,1.5531 -2.06483,2.7373 -2.04923,3.0813 0.24368,5.3742 1.34733,1.3474 2.09911,3.3632 1.67061,4.4799 -0.95561,2.4903 3.52014,2.8164 5.90623,0.4303 z m -30.36545,-15.7334 c 0.54288,-1.1 1.51812,-3.8 2.1672,-6 0.99473,-3.3714 1.94174,-4.0638 6.02741,-4.4061 4.73397,-0.3967 4.86057,-0.5525 5.41791,-6.6667 0.31385,-3.4433 0.0777,-7.2598 -0.52486,-8.4813 -0.7334,-1.4867 -0.004,-4.1309 2.20842,-8 1.81714,-3.1785 3.31114,-7.4212 3.31997,-9.428 0.0133,-2.8777 0.96773,-4.0464 4.51996,-5.5305 5.78381,-2.4167 6.94868,-4.409 4.29339,-7.3431 -1.17184,-1.2948 -2.1198,-2.9069 -2.10658,-3.5825 0.0296,-1.5152 9.10772,-9.0836 12.33954,-10.2875 3.19568,-1.1904 4.29706,-4.5384 2.289,-6.9579 -2.27138,-2.7369 -6.29042,-2.4844 -7.8851,0.4952 -0.72949,1.3631 -4.12374,3.2616 -7.5428,4.2188 -5.90596,1.6536 -6.32948,1.5907 -8.47892,-1.2589 -1.31537,-1.7437 -3.34037,-2.8121 -4.83744,-2.5521 -1.96584,0.3414 -2.67644,-0.4371 -3.00384,-3.2915 -0.27673,-2.4125 -1.57738,-4.262 -3.66666,-5.214 -1.7808,-0.8113 -3.23782,-1.9789 -3.23782,-2.5945 0,-1.5332 -8.9883,-1.423 -9.94305,0.1213 -0.42192,0.6827 -0.15732,1.6181 0.58797,2.0787 1.98743,1.2282 1.65247,11.7637 -0.46613,14.661 -1.62144,2.2175 -2.27972,2.3008 -6.0012,0.7594 -3.21064,-1.3299 -4.61701,-1.3688 -6.06448,-0.1675 -1.03647,0.8601 -3.56788,1.3832 -5.62537,1.1623 -3.71222,-0.3987 -3.75271,-0.3199 -5.28016,10.2649 -1.3341,9.2449 -1.25418,11.1596 0.59961,14.3653 1.72893,2.9898 1.82399,4.1396 0.49599,6 -0.90359,1.2658 -2.23534,3.6743 -2.95944,5.3524 -0.72412,1.6782 -2.86826,4.4892 -4.76474,6.2468 l -3.44817,3.1956 4.03504,2.0866 c 2.21927,1.1477 5.90428,2.0866 8.18891,2.0866 6.56041,0 9.31189,2.1326 9.31189,7.217 0,4.9189 0.95113,5.9929 9.49277,10.7194 6.44168,3.5644 9.05375,3.7455 10.54178,0.7303 z m -21.36788,-74.6666 c 0,-0.7334 -1.2,-1.3334 -2.66667,-1.3334 -1.46667,0 -2.66667,0.6 -2.66667,1.3334 0,0.7333 1.2,1.3333 2.66667,1.3333 1.46667,0 2.66667,-0.6 2.66667,-1.3333 z m -130.08681,-2.6336 c 1.88108,-0.7152 3.42014,-2.1223 3.42014,-3.1268 0,-2.7324 -4.7928,-6.5386 -7.56747,-6.0095 -2.90381,0.5536 -3.95473,5.7991 -1.70496,8.5099 1.89913,2.2884 1.57268,2.2534 5.85229,0.6264 z m 135.48635,-6.0674 c 2.29175,-1.185 3.93379,-3.1068 3.93379,-4.6038 0,-6.7752 -6.36835,-13.1494 -11.50779,-11.5182 -4.16417,1.3218 -5.08157,0.9298 -5.12104,-2.1878 -0.0407,-3.208 -0.11306,-3.2178 -11.57082,-1.5662 -4.68206,0.6748 -6.88868,1.8256 -9.01444,4.7008 l -2.81478,3.8072 5.29464,2.7012 c 2.91207,1.4856 6.06856,2.7012 7.01444,2.7014 0.94588,2e-4 5.01979,1.7764 9.05312,3.9472 8.54354,4.598 9.49272,4.7281 14.73288,2.0182 z m -40.4301,-13.3709 c 2.78009,-5.8299 1.24334,-9.0787 -4.5716,-9.6644 -3.05315,-0.3076 -4.51682,0.3859 -6.18383,2.9301 -2.64044,4.0298 -1.98056,6.1723 2.81747,9.1476 4.98726,3.0927 5.36745,2.9771 7.93796,-2.4133 z m -27.63611,0.1505 c 0,-2.5242 -1.90913,-3.6189 -4.54635,-2.607 -3.38106,1.2974 -2.51561,4.5284 1.21302,4.5284 2.0134,0 3.33333,-0.7608 3.33333,-1.9214 z m 46.42812,-11.8246 c 0.90527,-4.7007 -6.06095,-9.4644 -11.68832,-7.9928 -4.39855,1.1502 -2.97651,5.9506 2.59353,8.7549 5.50712,2.7727 8.46172,2.5251 9.09479,-0.7621 z"
       id="path65"
       inkscape:connector-curvature="0" />
    <path
       style="fill:#3c4346;stroke-width:1.33333337"
       d="m 822.20122,2012.8674 c -27.1201,-4.2662 -40.61289,-11.0403 -78.66667,-39.4952 -16.39183,-12.2571 -19.75222,-15.577 -30.29052,-29.9256 -4.03944,-5.5 -8.98598,-11.5 -10.99228,-13.3334 -11.54674,-10.5512 -17.0134,-38.3044 -14.19215,-72.0508 1.57023,-18.7821 5.12809,-32.6449 14.3594,-55.9492 6.56789,-16.5805 8.93733,-21.0396 16.71447,-31.4553 11.3674,-15.2239 41.63806,-37.3885 61.00656,-44.67 32.58516,-12.2501 74.52965,-15.1733 104.49135,-7.2823 19.45585,5.124 40.02504,13.6498 51.28593,21.2574 19.60864,13.247 38.07285,33.1909 47.66401,51.4836 2.11476,4.0333 4.84223,8.8333 6.06104,10.6666 1.21882,1.8334 5.63651,10.0446 9.81708,18.2471 6.62096,12.9908 7.69686,16.1811 8.34436,24.7424 1.2468,16.4849 -3.5899,34.4517 -16.78296,62.3439 -7.25686,15.3421 -40.41185,60.8072 -52.23622,71.6309 -16.30731,14.9275 -38.75344,28.5685 -53.64367,32.6007 -14.35236,3.8864 -42.42107,4.4168 -62.93973,1.1892 z m 58,-34.8328 c 0,-2.7818 -1.96154,-3.4743 -3.3728,-1.1908 -1.20946,1.9569 0.40184,5.6149 2.03005,4.6086 0.73851,-0.4565 1.34275,-1.9945 1.34275,-3.4178 z m -60.6499,-9.1783 c -1.11676,-5.0845 1.76451,-5.9743 8.9416,-2.7609 4.68608,2.098 5.86018,2.2237 6.703,0.7177 0.9515,-1.7003 9.15315,-7.3665 10.66267,-7.3665 0.37179,0 1.01371,1.65 1.42651,3.6666 1.24001,6.058 3.87702,8.645 7.8067,7.6587 2.82231,-0.7084 3.60644,-1.8823 4.2947,-6.4293 0.46309,-3.0595 1.20157,-7.8134 1.64105,-10.564 0.66627,-4.1703 0.27624,-5.452 -2.34696,-7.7127 -2.52329,-2.1745 -4.4112,-2.5812 -9.53745,-2.0545 -5.84764,0.6008 -6.82562,0.2644 -11.49494,-3.9542 -2.80693,-2.5358 -5.49565,-4.6106 -5.97492,-4.6106 -0.47926,0 -1.4417,1.5 -2.13873,3.3333 -0.69703,1.8333 -2.33219,3.3524 -3.63367,3.3757 -1.30148,0.023 -3.53101,0.9234 -4.9545,2 -1.4235,1.0767 -3.56891,1.9576 -4.76759,1.9576 -1.19867,0 -3.5354,1.4434 -5.19272,3.2076 -2.54673,2.7108 -2.77163,3.6591 -1.45239,6.1242 0.85852,1.6041 1.20452,4.3368 0.7689,6.0724 -0.58464,2.3294 -0.0737,3.5402 1.9507,4.6237 1.89518,1.0143 2.49034,2.2632 1.92595,4.0415 -1.21841,3.8388 0.34349,5.5425 3.52181,3.8416 2.0685,-1.1071 2.48604,-2.2734 1.85028,-5.1679 z m -3.3501,-5.222 c 0,-0.7167 -0.36419,-2.252 -0.80932,-3.412 -0.53108,-1.384 -0.0727,-2.1091 1.33333,-2.1091 2.35423,0 2.98239,4.657 0.80932,6 -0.73333,0.4532 -1.33333,0.2378 -1.33333,-0.4789 z m 70.42685,-2.5271 c 0.62959,-4.4337 -3.55727,-5.5356 -6.62739,-1.7441 -3.02442,3.7351 -2.0113,5.7004 2.65979,5.1599 2.50121,-0.2895 3.66607,-1.2923 3.9676,-3.4158 z m -115.41951,-3.0874 c 4.59941,-3.3319 5.56761,-4.7584 5.20316,-7.6667 -0.24627,-1.9653 -1.57321,-4.7893 -2.94876,-6.2757 -4.66187,-5.0375 0.40933,-12.4851 5.41608,-7.954 2.0786,1.881 2.68104,1.853 6.46541,-0.3012 2.29528,-1.3066 4.17703,-3.0122 4.18167,-3.7903 0.004,-0.778 -3.04536,-2.1972 -6.77776,-3.1537 -6.73449,-1.726 -6.77984,-1.7732 -5.95133,-6.1895 0.70858,-3.7772 0.32336,-4.7853 -2.54715,-6.6661 -1.86009,-1.2188 -3.382,-3.2828 -3.382,-4.5867 0,-2.8336 -3.35924,-4.3724 -7.01339,-3.2127 -1.45073,0.4606 -4.0732,0.069 -5.82768,-0.87 -2.77644,-1.4858 -3.44173,-1.3744 -5.13205,0.8598 -3.09849,4.0954 -2.43769,4.7174 4.66693,4.3933 9.12595,-0.4164 10.43246,1.1677 7.56386,9.1712 -2.60788,7.276 -2.79456,8.8249 -0.92434,7.6691 1.50428,-0.9298 1.73019,0.7477 0.52402,3.8909 -1.14524,2.9845 -4.18316,2.6168 -5.21398,-0.6309 -1.47898,-4.6599 -3.9558,-2.0411 -4.38836,4.64 -0.31717,4.8986 0.14194,6.7778 2,8.1866 2.11308,1.6022 2.14176,1.8338 0.23167,1.871 -1.19899,0.023 -3.13981,1.5073 -4.31293,3.2977 -2.02023,3.0832 -1.95162,3.4707 1.29852,7.3333 4.49946,5.3472 9.47161,5.3427 16.86841,-0.016 z m -8.34068,-3.9066 c 0,-0.7333 0.9,-1.3333 2,-1.3333 1.1,0 2,0.6 2,1.3333 0,0.7334 -0.9,1.3334 -2,1.3334 -1.1,0 -2,-0.6 -2,-1.3334 z m 123.01158,-8.5206 c -0.41358,-0.6691 -1.54115,-0.1374 -2.50572,1.1817 -0.96458,1.3192 -1.41539,2.946 -1.00182,3.6152 0.41359,0.6691 1.54116,0.1373 2.50574,-1.1817 0.96456,-1.3192 1.41537,-2.946 1.0018,-3.6152 z m 21.15913,1.8152 c 1.30193,-1.9255 3.91475,-2.9479 9.06333,-3.5467 8.1534,-0.9484 12.0993,-3.5717 12.0993,-8.0441 0,-3.7103 0.7998,-3.759 6.33333,-0.3851 4.37849,2.6697 4.82511,3.5877 4.38551,9.0147 -0.18236,2.2512 0.46832,3 2.60673,3 2.30125,0 7.1394,-1.7807 9.04507,-3.3291 0.20385,-0.1656 -0.23131,-1.8843 -0.967,-3.8193 -1.28378,-3.3766 -1.15422,-3.5183 3.21733,-3.5183 2.50524,0 4.86789,-0.5063 5.25035,-1.1251 1.313,-2.1245 -1.95463,-10.7217 -4.366,-11.487 -3.28047,-1.0411 -6.81038,-7.6099 -4.50532,-8.3839 0.91666,-0.3077 1.66666,-2.5679 1.66666,-5.0224 0,-3.6129 0.57128,-4.5439 3,-4.8888 1.88487,-0.2677 3.70896,-2.0369 4.9073,-4.7595 1.81381,-4.1209 5.69396,-5.8025 7.3196,-3.1722 1.54025,2.4922 9.14958,2.9114 11.65696,0.6424 3.59112,-3.25 3.07542,-4.0351 -3.20356,-4.8772 -3.5269,-0.4731 -6.53575,-1.8484 -8,-3.6567 -3.0464,-3.7621 -3.05312,-13.0427 -0.0136,-18.8283 1.28333,-2.4426 2.43869,-4.6466 2.56745,-4.8977 0.1288,-0.2509 2.52877,-1.2452 5.33333,-2.2093 5.82458,-2.0024 6.66447,-4.8446 1.77288,-5.9994 -5.3574,-1.2646 -5.0093,-5.026 0.56187,-6.0712 4.32696,-0.8117 4.70765,-1.2493 4.41645,-5.076 -0.30056,-3.95 -0.0564,-4.1877 4.29896,-4.1877 4.42838,0 4.6606,-0.2459 5.6669,-6 1.14249,-6.5329 -0.2385,-12.2659 -3.93998,-16.356 -1.25885,-1.3909 -6.80136,-9.9668 -12.31668,-19.0572 -7.62472,-12.5673 -11.94502,-18.1553 -18.02785,-23.3177 -6.92213,-5.8748 -8.58796,-6.6978 -12.36389,-6.1082 -2.72554,0.4255 -6.47966,-0.2658 -9.99943,-1.8417 -5.01004,-2.2431 -5.96337,-2.3084 -8.5892,-0.5879 -4.07741,2.6716 -6.69307,2.4223 -8.419,-0.8026 -1.93299,-3.6119 -9.12192,-7.9115 -11.62311,-6.9516 -1.5227,0.5842 -1.7674,0.091 -1.05988,-2.1387 1.25374,-3.9501 -0.33128,-10.4453 -2.77809,-11.3843 -1.10164,-0.4226 -3.81361,0.1678 -6.0266,1.3122 -2.95715,1.5292 -3.77281,2.6752 -3.0774,4.3238 1.98013,4.6944 2.19179,8.3292 0.59691,10.2508 -2.31419,2.7886 -3.01034,2.5319 -5.63255,-2.0757 -1.26807,-2.2281 -4.16352,-4.6989 -6.43435,-5.4905 -2.94637,-1.0271 -3.71801,-1.8502 -2.69442,-2.8736 4.32522,-4.3254 -3.1222,-6.8786 -9.65331,-3.3096 -2.94936,1.6117 -16.37765,3.9565 -21.94984,3.8329 -2.01932,-0.045 -3.44735,1.0105 -4.26016,3.1484 -0.90157,2.3713 -1.93691,3.0291 -3.94257,2.5045 -1.49596,-0.3912 -3.7789,-0.2364 -5.07319,0.3442 -2.17267,0.9744 -8.77661,1.6654 -18.16436,1.9009 -3.09039,0.077 -3.68367,0.5829 -3.13728,2.6723 0.40196,1.537 -0.56036,4.013 -2.38512,6.1366 -3.8464,4.4764 -9.02992,3.6119 -11.92627,-1.989 -1.90651,-3.6868 -5.7208,-6.2728 -7.14765,-4.846 -0.38083,0.3809 0.005,2.2232 0.8575,4.0941 2.36928,5.2 1.88698,7.2141 -2.08961,8.726 -4.55109,1.7304 -5.6476,3.4321 -5.67339,8.8049 -0.0276,5.7635 2.13567,6.6856 5.97238,2.5458 3.71076,-4.0039 6.96729,-3.4184 8.19506,1.4733 0.5474,2.1811 1.17227,2.7616 1.82884,1.6992 0.61094,-0.9884 4.72682,-1.6905 10.6233,-1.812 8.36036,-0.1723 9.95907,-0.6097 12.15964,-3.3273 1.39355,-1.721 2.53371,-3.9626 2.53371,-4.9814 0,-3.1188 2.38902,-2.067 4.87876,2.1478 1.29957,2.2 2.97718,4 3.72804,4 3.43112,0 12.64514,-4.8782 13.1965,-6.9866 0.67138,-2.5673 4.19592,-3.1721 5.56612,-0.955 0.47308,0.7654 0.15684,2.2392 -0.70276,3.2749 -1.94944,2.3489 -0.63961,4.6667 2.63731,4.6667 1.36396,0 4.2604,1.0218 6.43653,2.2708 3.75062,2.1525 4.24235,2.1418 9.44446,-0.2039 5.23185,-2.3592 5.60818,-2.3657 8.06814,-0.1396 1.98198,1.7937 3.8046,2.1284 7.8601,1.4432 3.36065,-0.5677 5.61358,-0.352 6.19808,0.5937 1.42734,2.3096 -1.92027,5.3691 -5.87454,5.3691 -7.59692,0 -8.83653,5.184 -2.1789,9.1121 3.39334,2.0022 4.98196,4.1602 6.08902,8.2715 1.79804,6.6773 1.14656,8.8116 -3.30945,10.842 -4.93368,2.2479 -4.28797,5.1077 1.15327,5.1077 4.98414,0 7.65818,3.5552 4.48641,5.9648 -0.99076,0.7527 -2.60571,3.3415 -3.58877,5.7528 -2.0141,4.9404 -4.93696,6.9491 -10.11178,6.9491 -5.6472,0 -3.18286,3.0065 4.11315,5.0183 3.61733,0.9973 9.87697,2.2262 13.91031,2.7308 7.83088,0.9798 7.32337,0.3424 7.86861,9.8833 0.0723,1.2645 2.08139,3.2847 4.46472,4.4893 2.38333,1.2047 5.68363,3.425 7.33399,4.9339 2.64825,2.4216 2.78944,3.0688 1.2022,5.5108 -0.98915,1.5217 -2.56034,5.9629 -3.49151,9.8692 -0.93119,3.9063 -2.49935,7.4117 -3.48479,7.7899 -0.98544,0.3781 -2.1955,1.9821 -2.68902,3.5644 -0.49352,1.5822 -2.60047,4.8296 -4.6821,7.2162 -3.19105,3.6588 -3.58094,4.8756 -2.48545,7.757 1.39008,3.6562 0.39425,13.5585 -1.62149,16.1238 -0.8351,1.063 -2.51483,1.1827 -5.31664,0.3791 -3.88144,-1.1132 -3.9825,-1.0495 -1.93052,1.218 1.19093,1.316 2.16533,3.0816 2.16533,3.9236 0,0.842 1.43733,2.4727 3.19407,3.6237 1.75673,1.1511 3.50056,3.265 3.87517,4.6975 0.87633,3.3511 2.793,3.3132 5.10147,-0.1013 z m 14.49596,-18.6279 c -2.56667,-1.4052 -5.6432,-2.58 -6.83675,-2.6108 -1.19353,-0.031 -2.91418,-0.9525 -3.82366,-2.0484 -1.34792,-1.6241 -1.16939,-2.4252 0.96584,-4.3333 1.44069,-1.2875 3.42842,-4.9546 4.41717,-8.1492 1.94756,-6.2923 3.61337,-7.565 8.34695,-6.377 3.12194,0.7836 7.59712,8.2238 7.59712,12.6306 0,3.2441 -2.60687,5.5548 -6.26667,5.5548 -3.9232,0 -3.95848,3.0526 -0.0667,5.7674 4.20323,2.932 1.28024,2.6392 -4.33333,-0.4341 z m 15.66667,-23.5857 c -2.93722,-0.7676 -2.8825,-1.649 0.3427,-5.5188 1.42303,-1.7075 3.64618,-2.9006 4.94034,-2.6514 2.90077,0.5587 3.82808,4.5455 1.6638,7.1532 -1.62555,1.9587 -2.72632,2.1199 -6.94684,1.017 z m 34.35428,-77.7138 c -1.05122,-1.7008 1.1321,-2.7146 3.1545,-1.4648 1.33948,0.8279 1.26194,1.2336 -0.35429,1.8539 -1.138,0.4367 -2.39809,0.2616 -2.80021,-0.3891 z m -58.02095,-27.204 c 0,-1.0101 -0.92543,-2.6046 -2.05651,-3.5434 -1.50356,-1.2479 -1.65868,-2.0984 -0.5769,-3.1632 1.07338,-1.0567 2.00404,-0.746 3.38984,1.1316 2.19736,2.9772 2.54253,7.4118 0.5769,7.4118 -0.73333,0 -1.33333,-0.8265 -1.33333,-1.8368 z m 34.66667,-12.2061 c 0,-2.4161 5.4655,-4.8476 7.21016,-3.2076 1.68034,1.5795 -1.6105,5.2505 -4.70675,5.2505 -1.37688,0 -2.50341,-0.9193 -2.50341,-2.0429 z m -73.99056,-20.6084 c -0.46712,-0.7559 0.0681,-0.9795 1.25464,-0.5241 2.30989,0.8864 2.73252,1.8421 0.81461,1.8421 -0.69005,0 -1.62123,-0.5931 -2.06925,-1.318 z m 57.32389,174.6513 c -0.45323,-0.7333 -1.38864,-1.3333 -2.07869,-1.3333 -0.69006,0 -1.25464,0.6 -1.25464,1.3333 0,0.7334 0.93541,1.3334 2.07869,1.3334 1.14328,0 1.70787,-0.6 1.25464,-1.3334 z m -192.4334,-11.5444 c 1.56568,-1.4169 4.62421,-2.1781 8.51537,-2.1193 5.80757,0.088 6.05425,-0.063 5.66175,-3.4556 -0.38382,-3.3176 -0.7882,-3.5187 -6.24434,-3.1053 l -5.83396,0.442 0.65092,-4.435 c 0.92754,-6.3197 -2.12501,-10.449 -7.72433,-10.449 -2.43905,0 -4.90507,0.75 -5.48004,1.6666 -1.45221,2.3152 -0.59391,6.5559 1.89017,9.3388 1.69488,1.8987 1.79699,2.9766 0.54274,5.7294 -2.72238,5.9749 -1.85283,7.6628 4.35013,8.4438 0.67559,0.085 2.3278,-0.8402 3.67159,-2.0564 z m 38.86508,-30.1222 c 5.48502,-2.5184 4.3667,-7 -1.74675,-7 -4.77183,0 -6.50225,2.4116 -4.83955,6.7445 0.90286,2.3528 1.93143,2.3927 6.5863,0.2555 z m -14.45496,-4.9624 c 1.05461,-1.7063 -3.13656,-8.0376 -5.32075,-8.0376 -2.69917,0 -3.30356,3.4338 -1.14645,6.5136 2.0854,2.9773 5.12616,3.6938 6.4672,1.524 z m -23.61562,-10.9543 c -0.82293,-2.4688 -3.2817,-2.7487 -4.15498,-0.4731 -0.55304,1.4412 0.0293,2.0564 1.94684,2.0564 1.51934,0 2.50124,-0.704 2.20814,-1.5833 z m -15.70558,-2.3816 c 2.19829,-1.3897 2.23973,-1.338 -6.35376,-7.9349 -4.65592,-3.5742 -6.05832,-4.0755 -7.66667,-2.7406 -6.57263,5.4548 6.5154,15.4204 14.02043,10.6755 z m 26.47885,-20.1655 c 2.53448,-0.8836 4.19896,-2.381 4.19896,-3.7778 0,-3.5167 -1.04416,-3.9162 -6.40788,-2.4511 -9.46415,2.5851 -9.18988,2.3417 -5.77775,5.1251 3.71506,3.0304 2.81644,2.9061 7.98667,1.1038 z m -27.66264,-6.9312 c -1.71132,-1.7113 -3.44673,-0.3886 -2.17979,1.6614 0.49078,0.794 1.50314,1.0662 2.2497,0.6048 0.91066,-0.5628 0.88766,-1.3086 -0.0699,-2.2662 z m 14.52827,-6.2717 c 0,-2.6667 -0.66667,-4 -2,-4 -2.01808,0 -2.85648,5.3657 -1.11111,7.1111 1.91143,1.9114 3.11111,0.7117 3.11111,-3.1111 z m 21.18121,-0.7913 c 0.283,-0.253 0.67535,-3.4447 0.87187,-7.0927 0.19652,-3.648 1.31497,-7.9999 2.48544,-9.6711 2.98789,-4.2657 2.66266,-7.2553 -1.36344,-12.5338 -3.91008,-5.1264 -6.59876,-5.8274 -7.80266,-2.0343 -0.444,1.3989 -1.68442,2.8801 -2.75652,3.2915 -1.07208,0.4114 -1.94924,1.6669 -1.94924,2.7898 0,1.3475 -1.26969,2.0419 -3.73333,2.0419 -7.48864,0 -7.72496,4.6021 -0.6,11.6845 1.65,1.6402 3,4.236 3,5.7684 0,5.2324 8.05585,9.146 11.84788,5.7558 z m -37.47789,-1.2843 c 3.6722,-2.5721 3.76652,-4.7813 0.29668,-6.9483 -1.46667,-0.916 -2.66667,-2.8602 -2.66667,-4.3208 0,-3.3964 -3.48267,-3.4466 -5.28643,-0.076 -2.63204,4.918 -0.70814,13.421 3.03667,13.421 0.91103,0 2.98992,-0.934 4.61975,-2.0756 z m -3.70332,-21.9244 c 0,-0.7333 -0.6,-1.3333 -1.33334,-1.3333 -0.73333,0 -1.33333,0.6 -1.33333,1.3333 0,0.7333 0.6,1.3333 1.33333,1.3333 0.73334,0 1.33334,-0.6 1.33334,-1.3333 z m 46.4,-18.9333 c 2.32536,-2.3254 1.96421,-3.7334 -0.95762,-3.7334 -3.974,0 -6.77572,1.4374 -6.77572,3.476 0,2.2843 5.52262,2.468 7.73334,0.2574 z m 14.6,-7.887 c 3.86205,-1.4337 3.77801,-2.7172 -0.51175,-7.8153 -2.7796,-3.3033 -4.37797,-4.0891 -7.66667,-3.7689 -4.01862,0.3912 -4.16822,0.6365 -4.56049,7.4785 l -0.40559,7.074 5.07226,-0.9273 c 2.78973,-0.51 6.42224,-1.4284 8.07224,-2.041 z"
       id="path63"
       inkscape:connector-curvature="0" />
    <path
       style="fill:#2f3133;stroke-width:1.33333337"
       d="m 841.53455,2012.6915 c -35.07352,-4.3355 -37.13878,-4.7879 -49.71728,-10.8893 -10.69368,-5.1871 -20.16171,-11.1706 -49.37031,-31.2004 -12.92435,-8.863 -17.18332,-13.0394 -26.14204,-25.6355 -5.0278,-7.0692 -10.76736,-14.3531 -12.75456,-16.1864 -9.37004,-8.6445 -14.43119,-27.6288 -14.39623,-54 0.012,-9.5333 0.75887,-22.1333 1.6583,-28 2.18517,-14.2532 10.65008,-39.2167 19.63364,-57.9007 6.61929,-13.7668 8.437,-16.3142 18.87328,-26.4508 21.48529,-20.868 43.10213,-33.2884 69.20056,-39.7606 43.86849,-10.8792 67.30712,-9.1894 111.55049,8.0422 17.99506,7.0086 31.15399,15.7855 47.47335,31.6643 10.88963,10.5956 21.35945,25.1767 21.26421,29.614 -0.0489,2.2827 -0.96048,1.6979 -5,-3.2084 -15.07108,-18.3047 -29.32365,-30.6667 -35.35662,-30.6667 -2.59204,0 -2.62352,1.2376 -0.18308,7.1972 0.91666,2.2384 0.58789,2.4298 -2.84874,1.6576 -2.13673,-0.48 -5.98497,-1.2624 -8.55164,-1.7385 -2.56666,-0.4763 -5.94504,-2.1221 -7.5075,-3.6577 -1.56246,-1.5355 -4.41246,-3.8699 -6.33334,-5.1875 -2.03254,-1.3941 -3.49249,-3.6564 -3.49249,-5.4119 0,-4.7692 -2.84341,-7.1417 -9.58095,-7.9942 -6.02438,-0.7622 -6.34984,-0.6251 -9.10874,3.8389 -3.50542,5.6719 -5.31031,5.9019 -5.31031,0.6764 0,-4.6467 -3.23367,-6.8716 -9.65813,-6.6453 -2.38803,0.084 -5.58379,-0.2386 -7.10168,-0.717 -1.72063,-0.5425 -3.381,-0.1213 -4.40954,1.1178 -1.39312,1.6786 -1.20217,1.8708 1.22763,1.2353 2.29285,-0.5996 2.77845,-0.2397 2.39047,1.7716 -0.41128,2.1321 -1.8297,2.5656 -9.13448,2.7917 -4.75619,0.1474 -9.8476,0.3887 -11.31427,0.5364 -1.46667,0.1478 -3.56667,0.027 -4.66667,-0.2677 -1.42397,-0.3819 -2.12033,0.7117 -2.41781,3.7969 -0.46519,4.8247 -1.8028,5.245 -7.40127,2.3251 -5.40056,-2.8165 -9.82684,-2.5412 -10.84758,0.6749 -1.07154,3.3762 -4.14964,3.3784 -9.67886,0.013 -4.3368,-2.6442 -4.35085,-2.6442 -7,0 -1.45996,1.46 -3.23948,2.6545 -3.95448,2.6545 -0.74393,0 -0.94477,1.7761 -0.46952,4.1524 0.77632,3.8816 0.6496,4.0556 -1.94303,2.6681 -1.52544,-0.8164 -3.14485,-2.6542 -3.59869,-4.0842 -0.8466,-2.6674 -5.55696,-4.9792 -7.06751,-3.4687 -0.46444,0.4645 -1.16922,3.6692 -1.56618,7.1217 -0.59187,5.1479 -1.20155,6.2774 -3.3884,6.2774 -3.65331,0 -4.62238,1.7217 -4.64626,8.2546 -0.0269,7.3851 -1.99842,8.2692 -7.19909,3.2286 -5.14723,-4.9888 -7.28361,-5.4048 -4.28943,-0.8351 2.04239,3.1171 2.01178,3.4748 -0.51332,6 -1.47688,1.4768 -2.68524,4.3903 -2.68524,6.4741 0,3.2252 -0.74622,4.0126 -5.01548,5.2916 -2.75852,0.8266 -6.35852,1.1515 -8,0.7223 -3.33532,-0.8723 -3.85264,0.8433 -1.42604,4.7289 1.1993,1.9204 1.16951,3.4347 -0.1292,6.57 -1.58453,3.8255 -2.10317,4.0651 -8.48238,3.9198 -7.259,-0.1654 -11.61354,-2.6592 -11.61354,-6.6511 0,-2.5599 4.57063,-3.3499 6,-1.0371 1.63094,2.639 3.36632,1.2624 2.54318,-2.0173 -0.48007,-1.9128 -0.14087,-4.1941 0.79044,-5.3164 2.05317,-2.4739 0.79625,-5.9996 -2.13887,-5.9996 -1.22227,0 -3.79109,1.5067 -5.70852,3.3483 -1.91743,1.8414 -4.75919,4.5522 -6.31501,6.0238 -1.65026,1.5608 -3.72564,2.3315 -4.98147,1.8495 -1.53467,-0.5888 -2.54869,0.2656 -3.53207,2.9761 -0.75865,2.0914 -1.94009,5.0023 -2.62542,6.469 -4.6924,10.0421 -5.36276,13.5442 -5.20032,27.1672 0.15153,12.7085 0.4604,14.4062 3.00182,16.4994 l 2.83291,2.3334 -2.89624,2.3333 c -1.59295,1.2833 -3.59021,4.9729 -4.43839,8.1992 -1.2959,4.9295 -1.17288,6.8453 0.77059,12 1.272,3.3737 3.42776,7.5759 4.7906,9.338 1.97833,2.5579 2.30513,4.506 1.62103,9.6631 -0.85222,6.4242 -0.83112,6.4701 3.88993,8.4426 6.13737,2.5644 6.40228,3.1031 6.39687,13.0088 -0.007,11.835 0.53648,13.015 5.98846,13.015 3.6903,0 4.86262,0.6649 5.87715,3.3333 0.88341,2.3236 2.27288,3.3333 4.58676,3.3333 3.90617,0 6.07991,3.3788 6.07991,9.4506 0,6.3985 8.61809,13.9717 16.97074,14.9132 6.91696,0.7796 11.94668,-0.6362 14.50483,-4.0828 1.58275,-2.1326 1.81897,-2.1107 3.63104,0.3354 1.68147,2.2698 2.23329,2.3714 4.16669,0.7668 1.94712,-1.616 1.9763,-1.9906 0.23099,-2.9674 -1.41231,-0.7904 -1.78521,-2.4264 -1.27281,-5.5839 0.39861,-2.4564 0.0169,-5.7887 -0.84814,-7.4051 -1.2674,-2.3681 -1.16008,-3.5689 0.55263,-6.1829 1.16903,-1.7841 3.00361,-3.2439 4.07687,-3.2439 1.07325,0 2.84161,-2.1306 3.92968,-4.7348 1.70764,-4.0869 2.33164,-4.5456 4.56074,-3.3526 4.12002,2.2049 7.9348,-1.9815 8.42511,-9.2459 0.37323,-5.5297 0.16985,-5.9751 -2.59504,-5.6824 -1.65,0.1747 -3,-0.2753 -3,-1 0,-0.7247 -0.6,-1.3176 -1.33333,-1.3176 -0.73334,0 -1.33334,0.9 -1.33334,2 0,1.1 0.6,2 1.33334,2 2.2688,0 1.46793,6.1316 -1.10499,8.46 -2.755,2.4932 -8.98636,2.8663 -14.27709,0.8548 -3.51695,-1.3372 -3.54408,-1.5153 -1.12167,-7.3676 0.31557,-0.7624 -1.54199,-2.1512 -4.12791,-3.0863 -2.58592,-0.9352 -4.70168,-2.5153 -4.70168,-3.5116 0,-3.59 6.66848,-9.8448 10.94794,-10.2686 5.78481,-0.573 6.03853,-2.9852 0.82312,-7.8256 -4.15824,-3.8592 -4.90278,-4.0683 -11.8221,-3.3192 -6.90056,0.7469 -7.62766,0.5454 -11.09762,-3.0764 -2.0423,-2.1318 -6.06932,-4.9383 -8.94896,-6.2368 -5.39534,-2.433 -5.72351,-2.9716 -5.25387,-8.6227 0.37312,-4.4896 2.17876,-6.4273 6.44907,-6.9208 2.95473,-0.3415 3.68385,-1.2159 4.23576,-5.0792 0.58785,-4.1151 1.17457,-4.7157 4.96329,-5.0817 4.26452,-0.412 4.29064,-0.4588 3.49559,-6.2592 -1.09779,-8.0092 -0.0157,-10.5627 3.64552,-8.6032 3.18697,1.7056 9.22893,0.6574 9.22893,-1.601 0,-2.0038 -4.12076,-5.0265 -6.9244,-5.0792 -3.00692,-0.056 -6.28025,-4.913 -5.45035,-8.0866 0.43322,-1.6567 -0.77593,-3.9783 -3.48072,-6.683 -5.69658,-5.6966 -5.36466,-8.495 1.32507,-11.1717 3.21904,-1.288 5.75953,-3.2973 6.17427,-4.8832 0.93377,-3.5708 7.90065,-3.1423 7.29768,0.4488 -0.21548,1.2833 0.26993,2.3333 1.07869,2.3333 0.80876,0 1.15356,-0.5128 0.76621,-1.1394 -0.9643,-1.5603 5.36859,-7.3342 6.96326,-6.3486 0.70425,0.4352 1.59249,-0.4018 1.97388,-1.8602 1.01882,-3.896 4.85512,-3.2258 11.42372,1.996 4.75354,3.7788 6.28721,4.3685 8.40864,3.233 3.79209,-2.0294 4.46949,-5.0714 1.61129,-7.2357 -1.4681,-1.1117 -1.8074,-1.9111 -0.82177,-1.936 0.92335,-0.023 3.58476,1.7791 5.91427,4.0052 2.3295,2.2263 5.07312,3.7263 6.09692,3.3333 1.0238,-0.3928 2.11237,-0.7142 2.41906,-0.7142 0.30668,0 0.55762,-0.9 0.55762,-2 0,-2.3582 4.13584,-2.6642 6.33153,-0.4684 1.87563,1.8756 8.33513,-1.8575 8.33513,-4.817 0,-3.0814 2.41635,-3.6685 6.3306,-1.5384 2.01818,1.0984 5.95287,2.3666 8.74378,2.8182 2.79089,0.4514 6.249,1.9956 7.68465,3.4313 1.43567,1.4356 5.1522,3.6101 8.25897,4.8321 13.22891,5.2035 18.85792,10.6356 18.0642,17.4323 -0.32053,2.7448 -1.43686,3.8496 -4.88284,4.8321 -2.66948,0.7611 -5.06482,2.5851 -5.95205,4.5324 -1.27493,2.7982 -1.04672,3.6134 1.61501,5.7687 1.70488,1.3805 3.86911,2.51 4.80942,2.51 2.46489,0 3.54709,3.7664 1.94324,6.7632 -0.90768,1.6961 -2.83324,2.5892 -5.66188,2.626 -5.13823,0.067 -14.65927,4.7375 -11.61976,5.7 3.63633,1.1516 24.5817,4.8913 29.33333,5.2375 4.28084,0.3118 4.70323,0.7253 5.10893,5.0013 0.54046,5.696 1.92116,7.4563 8.46854,10.7965 4.87572,2.4875 6.7959,6.6634 3.88984,8.4594 -0.65966,0.4077 -1.92178,3.7525 -2.80471,7.433 -0.88295,3.6806 -2.67157,7.4387 -3.97471,8.3515 -1.30314,0.9128 -2.59601,2.8533 -2.87305,4.3123 -0.38459,2.0254 -1.76211,2.7548 -5.82593,3.0844 -2.92723,0.2376 -6.37224,1.3805 -7.65558,2.54 -2.55512,2.3086 -3.09533,6.4 -1.01482,7.6857 0.80433,0.4972 0.44818,2.1432 -0.91327,4.2211 -2.08829,3.1872 -2.08735,3.4869 0.0148,4.6633 1.23563,0.6916 2.22664,2.2775 2.20224,3.5244 -0.0368,1.8845 -0.46668,1.7608 -2.54705,-0.7329 -5.27443,-6.3226 -6.60035,-2.1139 -3.36054,10.6666 1.15727,4.5652 -1.19036,4.8387 -8.6907,1.0123 -9.23694,-4.7124 -12.97942,0.8676 -5.35735,7.9877 2.45979,2.2978 4,5.0708 4,7.2016 0,3.1538 -0.47927,3.4651 -5.33333,3.4651 -4.48744,0 -5.33334,-0.4335 -5.33334,-2.7328 0,-1.5029 -2.1,-4.8951 -4.66666,-7.5379 -2.56667,-2.6428 -4.66667,-5.313 -4.66667,-5.9338 0,-1.5859 -3.71812,-1.4034 -8.79272,0.4316 -3.62991,1.3126 -4.88047,1.1902 -7.87271,-0.7703 -1.95652,-1.282 -4.37253,-4.282 -5.3689,-6.6667 -0.99639,-2.3846 -2.67951,-5.056 -3.7403,-5.9364 -1.60649,-1.3333 -2.32152,-0.5082 -4.2802,4.9387 -2.76056,7.6768 -8.23589,11.8829 -12.49889,9.6013 -3.5918,-1.9222 -4.11295,-1.775 -4.11295,1.1618 0,1.4054 -1.57104,3.6998 -3.49121,5.0986 -3.14823,2.2934 -3.31412,2.8267 -1.68868,5.4295 1.55855,2.4956 1.46125,3.52 -0.71875,7.568 -2.09509,3.8904 -3.26101,4.6817 -6.89751,4.6817 -4.0873,0 -4.40353,0.3274 -4.79002,4.9582 -0.32003,3.8342 -1.26195,5.4209 -4.15578,7 -3.426,1.8694 -3.8887,1.8448 -5.48032,-0.2915 -0.9561,-1.2833 -2.20609,-2.3333 -2.77773,-2.3333 -1.86413,0 -4.58087,4.593 -4.62427,7.818 -0.0381,2.8385 0.38776,3.0706 4.29094,2.3382 14.17133,-2.659 13.93262,-2.674 16.35269,1.0195 1.35179,2.0631 3.52121,3.4909 5.30407,3.4909 1.6592,0 3.78882,0.9304 4.73252,2.0675 2.21455,2.6683 10.51727,2.0485 12.37837,-0.924 0.99176,-1.584 0.7759,-3.4188 -0.78034,-6.632 -1.54331,-3.1867 -1.75231,-4.9231 -0.73943,-6.1435 2.41681,-2.9121 5.14616,-1.8817 7.04341,2.6591 1.00204,2.3983 3.08162,5.5004 4.62127,6.8937 2.75439,2.4928 2.84064,2.4892 5.3686,-0.2242 1.41307,-1.5168 3.14793,-2.969 3.85523,-3.2272 1.79964,-0.6568 2.14882,-3.811 0.91158,-8.2343 -1.2886,-4.6071 1.04667,-10.4988 3.75011,-9.4613 2.29427,0.8804 3.96853,9.9929 2.16703,11.7945 -2.4798,2.4797 -1.2716,4.5671 3.56808,6.1644 4.46052,1.472 5.05381,1.3577 7.11168,-1.3704 2.90866,-3.8561 6.55248,-3.0884 9.35513,1.9711 2.69351,4.8624 4.94209,5.423 11.22401,2.7982 3.58283,-1.4969 5.02159,-3.0262 5.60863,-5.9614 0.43428,-2.1715 2.46359,-5.5518 4.50957,-7.512 3.61307,-3.4615 3.81967,-3.4987 7.18888,-1.2911 3.41814,2.2397 3.46891,2.224 3.46891,-1.0681 0,-1.8376 -1.18683,-5.9566 -2.63739,-9.1534 -3.31785,-7.3118 -3.51914,-14.2468 -0.44773,-15.4253 1.46404,-0.5619 2.74297,0.035 3.66667,1.7085 0.78014,1.4142 3.63097,4.6944 6.33516,7.2895 3.98481,3.824 5.09082,6.0308 5.83536,11.6435 0.50525,3.8088 1.75433,7.6186 2.77573,8.4662 1.24753,1.0355 1.59049,2.9623 1.04491,5.8707 -0.47944,2.5556 -0.21687,4.6972 0.64088,5.2273 3.25532,2.0119 0.96774,5.1084 -8.1141,10.9835 -10.85481,7.0219 -23.71181,11.5325 -38.88876,13.6435 -11.44381,1.5917 -13.52229,1.5937 -26.21073,0.025 z m 1.89095,-19.3876 c 2.46194,-0.9447 2.78596,-3.9483 0.57345,-5.3157 -0.84459,-0.5219 -2.34459,0.1573 -3.33333,1.5096 -3.07271,4.2021 -2.0277,5.6433 2.75988,3.8061 z m -43.98619,-46.6192 c 2.23093,-2.2309 2.7729,-4.5715 1.05858,-4.5715 -1.72957,0 -6.96334,4.0655 -6.96334,5.409 0,1.9797 3.59788,1.4693 5.90476,-0.8375 z m 58.23364,-12.9664 c -1.71132,-1.7113 -3.44673,-0.3887 -2.17979,1.6613 0.49078,0.794 1.50314,1.0663 2.2497,0.6048 0.91066,-0.5628 0.88766,-1.3085 -0.0699,-2.2661 z M 780.20121,1821.271 c 0,-2.0887 -6.17965,-4.9495 -8.11189,-3.7552 -2.25513,1.3937 -1.24929,4.673 1.77856,5.7985 3.65811,1.3599 6.33333,0.4967 6.33333,-2.0433 z m -19.93888,-52.377 c -1.51332,-2.8276 -4.06112,-3.7954 -4.06112,-1.5426 0,1.6076 4.1301,5.7429 4.93343,4.9396 0.33877,-0.3388 -0.0537,-1.8674 -0.87231,-3.397 z m 166.60555,210.5526 c 0,-2.2564 -1.19298,-5.193 -2.73685,-6.7368 -2.12815,-2.1283 -2.64711,-4.1067 -2.33333,-8.8959 0.53613,-8.1829 3.16236,-8.8459 4.32516,-1.0917 1.0129,6.7545 3.34718,7.8376 6.66942,3.0944 2.57832,-3.6811 2.66147,-5.5468 0.2052,-4.6043 -2.7667,1.0617 -5.76414,-1.8704 -6.73946,-6.5925 -0.7083,-3.4292 -0.39511,-4.2814 1.78288,-4.851 3.2182,-0.8416 7.87656,3.7087 8.59126,8.392 0.39862,2.6119 1.49984,3.446 5.38315,4.0772 2.68512,0.4364 5.24085,1.1524 5.67941,1.591 2.00651,2.0065 -14.86796,19.6176 -18.79705,19.6176 -1.36643,0 -2.02979,-1.3072 -2.02979,-4 z m -14,-26.6667 c -0.45322,-0.7333 -0.22404,-1.3333 0.5093,-1.3333 0.73333,0 1.70414,0.6 2.15737,1.3333 0.45323,0.7333 0.22404,1.3333 -0.50929,1.3333 -0.73334,0 -1.70415,-0.6 -2.15738,-1.3333 z m 6,-36.6039 c 0,-3.3117 3.00786,-8.7294 4.84644,-8.7294 2.11958,0 6.2535,7.5536 5.12936,9.3725 -1.3239,2.1421 -9.9758,1.5844 -9.9758,-0.6431 z m -194.73229,-13.4752 c -0.94902,-1.1434 -1.8264,-4.9476 -1.94976,-8.4534 l -0.22428,-6.3744 5.88436,3.4534 c 3.2364,1.8995 7.19033,4.1836 8.7865,5.076 3.82987,2.1411 3.67203,4.5759 -0.4312,6.6518 -4.56261,2.3082 -9.98852,2.1494 -12.06562,-0.3534 z m 216.73229,-1.9209 c 0.45323,-0.7333 1.08864,-1.3333 1.41203,-1.3333 0.32339,0 0.58797,0.6 0.58797,1.3333 0,0.7333 -0.63541,1.3333 -1.41202,1.3333 -0.77662,0 -1.0412,-0.6 -0.58798,-1.3333 z m 27.94808,-12.084 c -0.48178,-0.7796 0.0828,-2.4768 1.25464,-3.7717 2.68352,-2.9652 2.67732,-4.1172 -0.0328,-6.099 -4.83698,-3.5368 2.32486,-12.712 9.9226,-12.712 4.50626,0 4.57586,-0.085 3.82762,-4.6962 -0.84252,-5.1919 2.2259,-12.1524 5.8775,-13.3328 2.14538,-0.6935 5.20235,-6.0234 5.20235,-9.0703 0,-0.9024 0.95405,-3.0028 2.12013,-4.6676 2.99442,-4.2751 5.3567,-1.8425 7.2997,7.5171 1.1347,5.4658 1.191,10.2202 0.2042,17.2526 -1.5772,11.24 -6.59044,22.6003 -9.62403,21.8087 -1.1,-0.2871 -3.2,-0.3856 -4.66667,-0.2189 -4.46432,0.5073 -6.53441,0.3748 -9.66666,-0.6187 -2.26638,-0.7188 -3,-0.4244 -3,1.204 0,1.2665 1.09968,2.1555 2.66666,2.1555 1.95556,0 2.66667,0.8889 2.66667,3.3333 0,3.1059 -0.44969,3.3333 -6.58797,3.3333 -3.62339,0 -6.98218,-0.6378 -7.46395,-1.4173 z m -243.94808,-14.2111 c -5.23717,-0.7954 -7.33333,-2.6536 -7.33333,-6.5006 0,-3.7266 5.77462,-7.2043 11.96237,-7.2043 5.14161,0 7.65807,4.4617 5.75444,10.2029 -1.31089,3.9535 -3.20523,4.5924 -10.38348,3.502 z m 164.1106,-112.1926 c -0.57436,-0.9294 -0.68421,-2.0498 -0.24412,-2.4899 1.1933,-1.1933 2.49436,0.5617 1.84986,2.4952 -0.45163,1.3549 -0.7657,1.3539 -1.60574,0 z"
       id="path61"
       inkscape:connector-curvature="0" />
    <path
       style="fill:#0b0c0f;stroke-width:1.33333337"
       d="m 824.20122,1994.1132 c 0,-0.7333 0.63541,-1.3333 1.41202,-1.3333 0.77662,0 1.0412,0.6 0.58798,1.3333 -0.45323,0.7334 -1.08864,1.3334 -1.41203,1.3334 -0.32339,0 -0.58797,-0.6 -0.58797,-1.3334 z m -94.05483,-40.0886 c -0.48338,-0.7822 -0.55871,-1.7423 -0.1674,-2.1336 0.95509,-0.9551 3.55556,0.7278 3.55556,2.3009 0,1.704 -2.30188,1.5903 -3.38816,-0.1673 z m 99.92607,-42.219 c -2.12919,-2.1148 -8.27251,-6.2106 -13.65183,-9.1021 -8.40411,-4.5171 -10.61615,-6.5127 -15.71775,-14.1797 -3.26545,-4.9076 -7.94599,-10.1644 -10.40119,-11.6818 -4.89828,-3.0273 -6.44044,-6.4528 -4.48122,-9.9537 0.69881,-1.2487 0.93234,-3.1517 0.51897,-4.2289 -0.41339,-1.0774 0.20107,-4.3396 1.36544,-7.2498 1.16437,-2.91 1.75864,-6.2249 1.3206,-7.3665 -0.43805,-1.1415 0.36621,-3.6927 1.78725,-5.6693 2.11803,-2.9462 2.38664,-4.6232 1.49039,-9.3047 -0.94241,-4.9225 -0.72577,-5.9683 1.56968,-7.576 2.01792,-1.4135 2.44765,-2.7233 1.77401,-5.4073 -0.83986,-3.3462 -0.67425,-3.4948 2.99699,-2.6884 2.72141,0.5977 4.10165,0.2914 4.60568,-1.022 0.39583,-1.0316 2.84125,-2.2199 5.43427,-2.6407 2.593,-0.4208 6.69521,-1.6431 9.11601,-2.7164 17.54732,-7.7793 33.63919,-9.2708 50.74375,-4.7032 11.69956,3.1243 16.99104,6.5717 16.99104,11.07 0,2.5215 -1.05267,3.3433 -5.82003,4.5437 -7.1713,1.8058 -12.2492,5.6768 -11.16224,8.5095 0.43767,1.1405 3.85314,3.7377 7.58994,5.7715 3.7368,2.0338 6.57993,4.3441 6.31806,5.134 -0.26186,0.7898 -2.82728,1.8538 -5.70093,2.3645 -20.10789,3.5732 -23.2248,4.5333 -23.2248,7.1539 0,1.9929 3.60177,2.7318 19.07804,3.9142 5.72625,0.4375 12.02625,1.4394 14,2.2263 1.97375,0.7868 6.58863,1.5087 10.25529,1.604 6.62847,0.1723 6.6643,0.1969 6.25242,4.3199 -0.41183,4.1225 2.4781,7.6325 9.85404,11.9682 2.31293,1.3595 2.20393,1.7762 -1.78142,6.808 -2.33481,2.948 -4.83922,6.9226 -5.56538,8.8326 -1.0155,2.6709 -2.97226,3.9528 -8.47634,5.5529 -4.99066,1.4508 -8.0624,3.3061 -10.15124,6.1315 -3.47638,4.702 -6.91692,4.6552 -8.34373,-0.1134 l -0.99523,-3.3262 0.26495,3.5657 c 0.15376,2.0696 -0.96244,4.9775 -2.66004,6.9299 -4.791,5.5101 -10.85661,6.3592 -33.73136,4.7221 -1.1,-0.079 -3.25795,0.2609 -4.79543,0.7549 -2.04792,0.6579 -3.8306,-0.1306 -6.66666,-2.9469 z m 50.08473,-20.7085 c 1.45939,-2.5883 1.62223,-4.4229 0.64137,-7.2264 -1.166,-3.3328 -2.04866,-3.8043 -7.80865,-4.1715 -9.4978,-0.6054 -10.13816,1.1251 -3.30556,8.9331 3.21761,3.6769 6.4502,6.5161 7.18353,6.3095 0.73334,-0.2066 2.21352,-1.9367 3.28931,-3.8447 z m -22.78012,-7.2847 c 4.40005,-2.7586 1.57036,-4.3193 -7.87917,-4.3454 -7.72091,-0.021 -13.29668,2.5333 -13.29668,6.0924 0,1.6174 1.57825,1.8109 9,1.1028 4.95,-0.4722 10.42913,-1.7546 12.17585,-2.8498 z m 39.90365,-17.3658 c -0.24714,-1.2834 -1.63292,-2.3334 -3.0795,-2.3334 -1.44659,0 -2.83236,1.05 -3.07951,2.3334 -0.33657,1.7476 0.43639,2.3333 3.07951,2.3333 2.64312,0 3.41608,-0.5857 3.0795,-2.3333 z m -57.0795,-24.412 c 0,-2.7327 -3.24331,-3.5578 -4.70276,-1.1963 -1.06398,1.7216 1.89668,5.5185 3.5205,4.5149 0.65024,-0.4018 1.18226,-1.8953 1.18226,-3.3186 z m 22.4,-1.5214 c 2.32377,-2.3237 2.00164,-3.4086 -1.74002,-5.8602 -2.72774,-1.7874 -3.71354,-1.8786 -5.37774,-0.4974 -1.80354,1.4968 -1.69944,2.0514 0.90576,4.8244 3.36752,3.5846 4.00364,3.7416 6.212,1.5332 z m -94.40001,36.2667 c 0,-0.7333 0.56459,-1.3333 1.25464,-1.3333 0.69006,0 1.62547,0.6 2.0787,1.3333 0.45322,0.7333 -0.11134,1.3333 -1.25464,1.3333 -1.14328,0 -2.0787,-0.6 -2.0787,-1.3333 z m -3.19068,-10.1091 c -1.26532,-3.2973 -0.9668,-4.5576 1.07958,-4.5576 2.13508,0 3.3565,2.5043 2.4387,5 -0.8461,2.3008 -2.54772,2.0868 -3.51828,-0.4424 z"
       id="path59"
       inkscape:connector-curvature="0" />
  </g>
</svg>
