<?xml version="1.0" encoding="UTF-8" standalone="no"?>
<!-- Created with Inkscape (http://www.inkscape.org/) -->

<svg
   xmlns:dc="http://purl.org/dc/elements/1.1/"
   xmlns:cc="http://creativecommons.org/ns#"
   xmlns:rdf="http://www.w3.org/1999/02/22-rdf-syntax-ns#"
   xmlns:svg="http://www.w3.org/2000/svg"
   xmlns="http://www.w3.org/2000/svg"
   xmlns:sodipodi="http://sodipodi.sourceforge.net/DTD/sodipodi-0.dtd"
   xmlns:inkscape="http://www.inkscape.org/namespaces/inkscape"
   version="1.1"
   id="svg10"
   width="645.50867"
   height="387.13312"
   viewBox="0 0 645.50865 387.13312"
   sodipodi:docname="LeftEyeball.svg"
   inkscape:version="0.92.4 (5da689c313, 2019-01-14)">
  <metadata
     id="metadata16">
    <rdf:RDF>
      <cc:Work
         rdf:about="">
        <dc:format>image/svg+xml</dc:format>
        <dc:type
           rdf:resource="http://purl.org/dc/dcmitype/StillImage" />
        <dc:title></dc:title>
      </cc:Work>
    </rdf:RDF>
  </metadata>
  <defs
     id="defs14" />
  <sodipodi:namedview
     pagecolor="#ffffff"
     bordercolor="#666666"
     borderopacity="1"
     objecttolerance="10"
     gridtolerance="10"
     guidetolerance="10"
     inkscape:pageopacity="0"
     inkscape:pageshadow="2"
     inkscape:window-width="1920"
     inkscape:window-height="1017"
     id="namedview12"
     showgrid="false"
     inkscape:zoom="0.39552239"
     inkscape:cx="59.09974"
     inkscape:cy="127.47385"
     inkscape:window-x="-8"
     inkscape:window-y="-8"
     inkscape:window-maximized="1"
     inkscape:current-layer="svg10" />
  <g
     id="g20"
     transform="translate(-531.45701,-1657.5332)">
    <path
       style="fill:#a3b6c4;stroke-width:1.33333337"
       d="m 750.66668,2043.9587 c -3.3,-0.6711 -14.74248,-2.4407 -25.42772,-3.9326 -25.675,-3.5849 -45.66903,-9.2737 -61.3088,-17.4442 -6.92826,-3.6194 -23.69682,-12.038 -37.26348,-18.708 l -24.66667,-12.1274 -15.75957,-15.8686 c -10.37102,-10.443 -18.86819,-17.6843 -24.85116,-21.1786 -16.52074,-9.6486 -24.0638,-21.0298 -28.67119,-43.2601 -2.00441,-9.6711 -2.07447,-8.8555 3.18731,-37.1059 0.78537,-4.2166 2.00222,-10.9386 2.70412,-14.9377 0.7043,-4.0129 5.11276,-15.2155 9.83794,-25 4.70899,-9.7509 10.70764,-22.3841 13.33034,-28.074 9.78193,-21.2212 25.58668,-40.2925 68.63562,-82.8215 22.16675,-21.8989 29.93519,-27.878 46.26059,-35.6044 18.35535,-8.6872 48.95882,-16.0517 105.326,-25.346 21.65138,-3.57 29.88734,-4.2728 56.66667,-4.8353 19.31541,-0.4057 34.14604,-0.1187 38.66667,0.7475 4.03333,0.773 13.03333,2.5993 20,4.0582 6.96667,1.459 21.36667,3.6272 32,4.8183 22.75219,2.5488 31.33631,4.1935 62.99156,12.0692 28.98189,7.2105 41.33729,11.8764 56.26199,21.2464 19.9304,12.5127 59.4945,41.4253 74.7465,54.6231 8.0666,6.9802 18.2666,14.6106 22.6666,16.9565 9.4119,5.0179 20.9776,15.5367 25.3783,23.0811 1.717,2.9436 3.8393,9.2733 4.7162,14.0661 1.5525,8.4847 1.4514,9.204 -3.8407,27.3333 -2.9893,10.2406 -7.5968,27.2479 -10.2389,37.794 -5.5362,22.0987 -11.0784,39.9042 -16.5528,53.1796 -2.1101,5.1172 -4.2572,11.7932 -4.7712,14.8355 -0.615,3.6405 -2.9393,7.9925 -6.7993,12.7311 -5.3733,6.5962 -7.0674,7.6702 -20.2116,12.813 -7.8906,3.0874 -23.6466,8.7764 -35.0133,12.6423 -32.2995,10.9852 -52.2709,19.4079 -76.7315,32.3603 -22.51096,11.9201 -29.85894,15.0398 -41.6448,17.681 -8.63293,1.9348 -80.08481,10.4442 -100.29039,11.9439 -24.15112,1.7927 -102.29022,2.6959 -109.33333,1.2639 z"
       id="path34"
       inkscape:connector-curvature="0" />
    <path
       style="fill:#a9aeb7;stroke-width:1.33333337"
       d="m 762.66668,2044.0367 c -6.96667,-0.5692 -21.36667,-2.341 -32,-3.9372 -32.89447,-4.938 -52.14161,-10.813 -71.93751,-21.958 -7.00104,-3.9416 -22.26383,-11.8002 -33.91731,-17.4634 l -21.18814,-10.2968 -16.81186,-16.306 c -9.24652,-8.9684 -21.01185,-19.0232 -26.14518,-22.3441 -5.13334,-3.3211 -10.94031,-7.7691 -12.90439,-9.8847 -7.46407,-8.0398 -14.42895,-27.1242 -14.42895,-39.5365 0,-17.5184 11.7612,-63.1701 18.13927,-70.4085 1.01703,-1.1543 4.17303,-7.81 7.01335,-14.7907 9.06732,-22.2847 18.07633,-34.5161 46.48385,-63.1108 38.11989,-38.3711 54.41768,-53.7519 62.11631,-58.6216 16.26311,-10.2869 36.32797,-16.6659 79.58056,-25.2997 57.57699,-11.4932 98.17628,-13.4976 141.33334,-6.9778 12.83333,1.939 31.62332,4.4324 41.75552,5.5412 33.90885,3.7108 83.99946,16.0022 103.42836,25.3795 19.5615,9.4412 64.2141,40.5803 88.8161,61.9369 7.3334,6.3659 17.9034,14.6439 23.489,18.3954 13.698,9.2001 25.8836,22.8054 28.5065,31.8277 2.7216,9.362 2.6586,9.99 -2.6684,26.5899 -2.5701,8.009 -6.5245,22.0618 -8.7875,31.2285 -5.5841,22.6189 -12.518,46.21 -17.8313,60.6667 -2.4257,6.6 -4.7201,14.5482 -5.0986,17.6628 -0.8955,7.3681 -9.8609,18.349 -17.7379,21.7254 -3.0895,1.3244 -18.1143,6.7282 -33.3886,12.0086 -42.7771,14.7881 -67.053,24.6509 -92.1736,37.4482 -12.66305,6.4511 -26.91208,12.9302 -31.66449,14.398 -4.75241,1.4679 -23.79173,4.5084 -42.30959,6.7567 -18.51786,2.2484 -37.86884,4.7357 -43.00217,5.5276 -18.9582,2.9244 -96.60476,5.4819 -116.66667,3.8427 z m 246.80872,-78.1735 c 1.3069,-1.1777 1.8961,-3.2167 1.5112,-5.23 -0.5379,-2.8141 -1.3689,-3.2999 -5.6454,-3.2999 -5.98113,0 -7.60153,1.6562 -8.77,8.9632 l -0.87909,5.4976 5.82059,-2.0002 c 3.2014,-1.1002 6.7846,-2.869 7.9627,-3.9307 z m -116.8073,-61.1787 c 9.5341,-0.3 20.6746,-1.4154 24.75664,-2.4786 4.23852,-1.104 10.1188,-1.6292 13.70961,-1.2244 5.55859,0.6265 7.05536,0.1854 12.90745,-3.8031 3.64086,-2.4815 6.69588,-4.9617 6.78898,-5.5117 0.0931,-0.55 0.24424,-1.723 0.3359,-2.6066 0.0917,-0.8836 1.66667,-1.9574 3.5,-2.3865 2.7798,-0.6504 3.39944,-1.6715 3.73139,-6.1489 0.35405,-4.7756 0.90901,-5.5539 5.02072,-7.0407 5.314,-1.9216 4.94644,-3.6069 -1.15108,-5.2781 l -4.26769,-1.1696 5.33333,-1.0527 c 2.93333,-0.5789 6.77767,-1.9929 8.54296,-3.1421 2.17743,-1.4176 6.46537,-2.1052 13.33333,-2.138 5.56804,-0.027 10.82247,-0.4996 11.6765,-1.051 0.85402,-0.5513 1.81085,-0.2488 2.12628,0.6726 0.37025,1.0813 2.16928,0.124 5.07658,-2.7003 l 4.503,-4.3753 2.1625,2.8669 c 1.8507,2.4536 2.5898,2.6383 5.1263,1.2808 1.63,-0.8724 4.8737,-1.4519 7.2081,-1.2877 4.173,0.2933 11.5778,-2.335 11.5778,-4.1095 0,-1.304 6.3329,-4 9.3961,-4 3.9459,0 3.461,-5.8481 -0.6398,-7.7165 -2.5734,-1.1726 -4.7709,-0.9412 -10.6334,1.1193 -9.4478,3.3205 -19.6176,3.44 -22.4766,0.2639 -3.4098,-3.788 0.052,-10.2798 6.5618,-12.3054 2.8189,-0.877 9.3252,-3.2704 14.4586,-5.3185 12.412,-4.9521 30.8788,-6.6091 36.0314,-3.2329 2.3146,1.5166 5.7693,2.1924 10.3744,2.0294 5.6312,-0.1993 7.4595,-0.8906 9.9159,-3.7492 1.6564,-1.9277 3.0116,-4.0244 3.0116,-4.6594 0,-0.635 1.4067,-1.7955 3.1261,-2.5788 2.8065,-1.2788 3.0618,-2.0939 2.497,-7.9715 -0.417,-4.3405 -0.1225,-6.5471 0.8739,-6.5471 3.7702,0 0.213,-11.1057 -6.1469,-19.191 -2.8529,-3.627 -16.6784,-15.4756 -18.0575,-15.4756 -0.4239,0 -4.2631,-2.2803 -8.5317,-5.0671 -9.9313,-6.4841 -35.2098,-18.9329 -38.4452,-18.9329 -3.4754,0 -8.649,5.2256 -8.649,8.7358 0,1.6158 -0.9943,3.7611 -2.2096,4.7676 -1.2152,1.0064 -4.2152,6.013 -6.6666,11.1256 l -4.4572,9.2958 0.016,-7.2958 c 0.01,-4.0126 0.8525,-10.4386 1.8752,-14.2801 1.816,-6.8215 1.506,-16.2148 -0.6759,-20.4771 -0.5991,-1.1705 -3.9677,-3.1672 -7.48558,-4.4369 -3.51794,-1.2697 -7.59623,-2.8251 -9.0629,-3.456 -5.50558,-2.3688 -17.90957,-5.3123 -22.38613,-5.3123 -2.55331,0 -6.36096,-0.8962 -8.46145,-1.9917 -2.41571,-1.2599 -7.58432,-1.9948 -14.06562,-2 -5.6356,0 -11.9356,-0.6711 -14,-1.4812 -7.77294,-3.0503 -36.13816,-0.5537 -56.1008,4.9376 -0.92436,0.2544 -2.05728,0.4276 -2.51758,0.3849 -0.46032,-0.043 -1.20402,0.4739 -1.65268,1.1475 -0.91909,1.38 -15.30223,8.3363 -17.23658,8.3363 -0.68895,0 -2.02224,0.9273 -2.96285,2.0606 -0.94062,1.1334 -2.4551,1.7748 -3.3655,1.4255 -1.04206,-0.3999 -1.98145,1.1035 -2.53574,4.0581 -1.33807,7.1326 -3.6137,11.2724 -5.95278,10.8296 -1.24141,-0.2349 -2.24465,-2.0225 -2.46124,-4.3853 -0.73662,-8.0363 -1.61664,-9.9885 -4.50241,-9.9885 -3.90075,0 -11.38691,4.7318 -18.20012,11.504 -3.15415,3.135 -8.85415,7.1818 -12.66667,8.9929 -7.28125,3.4588 -9.86438,7.0021 -12.75996,17.5031 -1.03852,3.7662 -2.84696,6.2184 -6.1546,8.3456 -2.57617,1.6566 -4.70292,3.7566 -4.72609,4.6666 -0.0601,2.3615 -5.37436,7.993 -9.62665,10.2012 -1.9912,1.0342 -3.97074,2.9842 -4.39898,4.3334 -0.42822,1.3493 -1.62422,2.4532 -2.65774,2.4532 -1.03354,0 -4.28671,3.15 -7.22927,7 -2.94256,3.85 -6.65241,8.6197 -8.24413,10.5994 -6.36208,7.9131 -6.55007,9.5464 -1.46776,12.7535 2.80657,1.7711 3.56753,3.1756 3.24404,5.988 -0.25407,2.2087 0.27774,3.862 1.33333,4.1451 2.67879,0.7181 10.41149,2.9521 17.08929,4.9368 7.8056,2.32 12.93627,7.4385 10.83266,10.8069 -1.67831,2.6873 -1.9861,11.636 -0.47891,13.9239 0.53877,0.8178 2.47959,1.9486 4.31292,2.513 1.83333,0.5644 3.76503,1.6952 4.29265,2.5131 0.69536,1.0779 1.70424,1.0252 3.66667,-0.1911 2.30013,-1.4256 2.70735,-1.3508 2.70735,0.4967 0,1.8284 0.33445,1.8969 2.10162,0.4303 1.74175,-1.4455 2.30752,-1.4164 3.30414,0.1701 1.8892,3.0075 0.53376,13.0345 -2.16512,16.0167 -2.41219,2.6654 -2.39719,2.6845 1.07414,1.3646 3.1799,-1.2089 3.56072,-1.0181 3.93619,1.972 0.22863,1.8208 0.71569,3.1503 1.08236,2.9543 0.36667,-0.1959 2.83749,0.9855 5.49071,2.6252 5.93781,3.6699 7.3376,3.7233 8.22896,0.3148 0.99553,-3.8069 5.19425,-3.3083 9.64841,1.1459 3.69571,3.6957 3.89183,3.7386 6.39976,1.4021 2.65112,-2.4699 6.38095,-2.4111 14.76445,0.2329 2.12611,0.6704 6.32611,1.2612 9.33334,1.3128 3.00724,0.052 6.6677,0.6348 8.13437,1.2962 1.46667,0.6613 5.36667,0.8958 8.66667,0.5213 3.3,-0.3745 13.80064,-0.9265 23.33475,-1.2267 z"
       id="path32"
       inkscape:connector-curvature="0" />
    <path
       style="fill:#8d8b93;stroke-width:1.33333337"
       d="m 765.33335,2042.6812 c -30.66167,-2.4143 -62.55182,-8.5112 -81.33334,-15.5499 -4.76666,-1.7864 -15.86667,-7.3232 -24.66667,-12.304 -8.8,-4.9809 -22.9,-12.3673 -31.33333,-16.4144 -17.71892,-8.5032 -26.14836,-14.5094 -44.74561,-31.883 -7.37676,-6.8915 -18.05667,-15.7062 -23.73314,-19.5884 -11.70857,-8.0075 -16.82117,-14.8762 -20.90241,-28.0819 -3.45077,-11.1657 -3.30508,-19.1087 0.79485,-43.3344 2.71395,-16.0363 4.3312,-21.9497 7.88962,-28.8481 2.46174,-4.7724 7.82784,-15.5771 11.92462,-24.0104 10.9082,-22.4548 13.9098,-27.9026 19.6089,-35.5892 7.61064,-10.2648 41.40493,-44.0022 55.16317,-55.0702 6.6,-5.3094 17.4,-15.1817 24,-21.9382 16.82633,-17.2258 30.09366,-23.6892 68.30926,-33.2784 40.14465,-10.0734 63.6413,-12.86 108.3115,-12.8451 31.68086,0.013 45.44633,0.8931 84.10941,5.3928 28.4612,3.3124 38.58049,5.1371 66.6853,12.0251 39.43282,9.6642 47.51312,13.219 80.95702,35.6156 24.7103,16.5478 37.7142,26.3357 56.2942,42.3716 7.7,6.6457 17.719,14.9217 22.2645,18.3912 8.6601,6.61 14.1578,12.7046 22.4836,24.9248 5.9415,8.7205 6.1758,12.43 1.5299,24.2245 -1.8289,4.6432 -5.5617,17.7421 -8.2951,29.1088 -2.7333,11.3667 -6.3977,23.4551 -8.143,26.8632 -1.7453,3.408 -3.1732,8.0835 -3.1732,10.3899 0,2.3064 -2.642,12.1178 -5.871,21.8034 -7.5413,22.6203 -9.5652,29.5067 -9.9752,33.9396 -0.085,0.9146 -2.2611,3.9954 -4.8367,6.8463 -3.9584,4.3815 -7.3104,6.1141 -21.6667,11.1995 -9.3411,3.3088 -19.3838,6.757 -22.3171,7.6628 -2.9333,0.9057 -19.4333,6.8872 -36.6667,13.2922 -17.2333,6.405 -35.5333,13.0086 -40.6666,14.6747 -11.3445,3.6819 -17.62528,6.7612 -27.65754,13.5595 -15.5473,10.5357 -19.52196,11.5412 -73.27055,18.5369 -55.29486,7.1969 -110.69919,10.3047 -141.07196,7.9132 z m 116.19092,-30.0164 c 37.95871,-3.9695 59.41801,-7.3641 75.78224,-11.9876 9.15191,-2.5859 22.00047,-5.6316 28.55235,-6.7684 12.8025,-2.2212 15.97784,-3.5257 27.41024,-11.2605 4.0687,-2.7528 16.6976,-9.0423 28.0643,-13.9766 32.6301,-14.165 40.0887,-18.4128 48.195,-27.4476 3.9261,-4.3757 9.6299,-10.6617 12.6751,-13.9689 l 5.5368,-6.0131 -8.5368,-3.8708 c -4.6952,-2.1289 -8.5368,-4.2024 -8.5368,-4.6077 0,-0.4053 3.814,-2.4664 8.4756,-4.58 6.2705,-2.8432 9.7394,-5.4983 13.3333,-10.2051 2.6718,-3.499 4.8578,-7.1757 4.8578,-8.1702 0,-2.3044 -4.7885,-7.1416 -7.0696,-7.1416 -0.9548,0 -7.0224,-5.1687 -13.4834,-11.4859 l -11.7472,-11.4857 -12.5166,0.5474 c -7.1736,0.3138 -12.5166,0.021 -12.5166,-0.686 0,-0.6782 2.1,-3.5577 4.6667,-6.3988 2.5667,-2.8409 4.6667,-6.2514 4.6667,-7.5788 0,-3.1856 -5.9719,-8.5041 -12.9084,-11.4964 -7.667,-3.3073 -21.1236,-2.4908 -26.3204,1.5971 -2.0397,1.6043 -5.7924,3.308 -8.3394,3.7857 -9.008,1.6899 -9.0141,-4.9165 -0.01,-6.8896 2.3327,-0.5109 8.6923,-2.71 14.1325,-4.8868 7.4908,-2.9973 11.1137,-3.7624 14.928,-3.1525 2.7701,0.4429 6.4859,0.1451 8.2572,-0.662 3.3746,-1.5376 4.0332,-1.2935 15.7688,5.8451 2.6649,1.6209 7.1649,4.5096 10,6.419 2.8351,1.9096 6.5148,3.9032 8.1771,4.4303 3.9141,1.2412 8.2456,9.8187 9.2528,18.3228 0.7602,6.4187 1.0505,6.8191 6.7036,9.2421 3.2499,1.3932 8.8159,2.533 12.3687,2.533 h 6.4598 L 1127.0525,1863 c -0.7418,-7.5376 -3.1037,-14.05 -5.6708,-15.6367 -0.717,-0.443 -3.1513,0.1498 -5.4095,1.3176 -4.7377,2.4499 -8.8171,1.626 -9.9725,-2.0142 -0.4417,-1.3916 -1.9182,-2.8842 -3.2811,-3.3168 -1.363,-0.4326 -3.2307,-1.6934 -4.1506,-2.8018 -1.3596,-1.6381 -1.2699,-2.418 0.4793,-4.1672 1.8021,-1.802 2.4971,-1.8653 4.2753,-0.3896 2.931,2.4326 5.1206,4e-4 4.9638,-5.5134 -0.1013,-3.5634 1.162,-5.5471 7.2691,-11.4151 7.3908,-7.1015 7.3914,-7.1027 5.1164,-10.5748 -1.4766,-2.2536 -2.0038,-4.8299 -1.5019,-7.3393 0.6825,-3.4127 -0.3585,-5.0583 -8.8652,-14.0138 -13.8491,-14.5797 -27.6139,-25.1141 -50.704,-38.8045 -34.2764,-20.3228 -37.2306,-21.2351 -42.0911,-12.9971 -4.3887,7.4383 -5.1231,6.6894 -8.9448,-9.1225 -1.0798,-4.4677 -5.0782,-6.4209 -25.89854,-12.6508 -27.82797,-8.3267 -46.75534,-10.8805 -80.70164,-10.8888 -27.0053,0 -39.59661,1.8347 -48.39123,7.0761 -9.72756,5.7976 -12.69121,7.4688 -14.15098,7.9799 -0.72926,0.2552 -0.53527,2.9661 0.46888,6.5527 1.6659,5.95 0.98533,14.3868 -1.16056,14.3868 -0.58134,0 -1.4283,-2.3222 -1.88212,-5.1602 -0.45383,-2.8381 -1.76519,-5.9404 -2.91412,-6.8938 -1.14892,-0.9536 -2.91476,-3.7102 -3.92407,-6.1258 -2.76325,-6.6134 -6.49889,-6.84 -17.95761,-1.0893 -6.6563,3.3407 -12.73903,5.2731 -19.11988,6.0743 -5.1469,0.6462 -9.48614,1.3294 -9.64276,1.5182 -0.15663,0.1888 -1.27648,2.2932 -2.48858,4.6766 -1.21209,2.3833 -2.7059,4.3333 -3.31957,4.3333 -0.61365,0 -3.32936,1.7592 -6.03489,3.9092 -2.70554,2.1501 -6.6077,4.2801 -8.67148,4.7335 -2.06378,0.4532 -7.71667,4.0941 -12.56198,8.0906 -4.8453,3.9967 -9.99389,7.2667 -11.4413,7.2667 -1.44742,0 -5.45279,1.5 -8.9008,3.3333 -3.44803,1.8334 -8.0009,3.3334 -10.11747,3.3334 -4.07089,0 -8.92297,2.525 -14.42117,7.5046 -1.83334,1.6606 -6.14667,4.2631 -9.58518,5.7835 -3.479,1.5384 -6.6274,3.9479 -7.09858,5.4324 -0.4657,1.4672 -3.92306,4.2267 -7.683,6.132 -8.48565,4.3 -14.29991,8.5329 -14.29991,10.4108 0,0.7857 -1.2,2.178 -2.66667,3.0939 -1.46667,0.916 -2.66667,2.5552 -2.66667,3.6428 0,1.0876 -1.23408,2.7325 -2.7424,3.6553 -4.60004,2.8147 -8.14192,9.6799 -7.11168,13.7847 1.00656,4.0105 17.35543,20.8774 23.13106,23.8641 4.84409,2.5051 12.05636,10.8243 12.05636,13.9069 0,3.3774 -9.39753,15.8062 -12.66667,16.7524 -4.66247,1.3495 5.35174,4.8384 11.2024,3.9028 3.59323,-0.5745 5.40018,-0.2168 6.6775,1.3224 2.57282,3.1 0.74453,8.6039 -3.18575,9.5903 -5.89692,1.48 -5.60319,8.4632 0.35897,8.534 0.94588,0.013 4.07198,1.2204 6.94688,2.6871 2.87491,1.4666 6.24622,2.6666 7.49182,2.6666 1.24558,0 6.51949,2.0188 11.71978,4.4862 16.64723,7.8985 22.13919,10.1805 24.50135,10.1805 1.26955,0 5.12601,1.5 8.56992,3.3333 3.44391,1.8334 7.24841,3.3334 8.45444,3.3334 1.20604,0 3.81113,1.7324 5.78911,3.8498 1.97796,2.1175 4.76869,4.0692 6.20161,4.3372 1.43292,0.2682 3.64395,2.5858 4.91339,5.1502 1.26944,2.5645 3.58561,5.7125 5.14706,6.9956 2.16899,1.7822 3.09823,4.6142 3.93743,12 0.60415,5.3169 2.08199,12.0672 3.28411,15.0005 2.2461,5.4808 9.06082,12.6667 12.01245,12.6667 0.91361,0 3.38231,1.7318 5.48599,3.8485 9.25292,9.3101 30.86674,14.4461 34.94512,8.3037 1.02942,-1.5504 2.52421,-2.8189 3.32174,-2.8189 1.6287,0 12.89135,11.8505 12.89135,13.5643 0,1.5541 4.99599,1.3868 26.85759,-0.8995 z M 1008.0473,1752.412 c -0.026,-1.6067 0.5926,-3.3168 1.3748,-3.8001 2.2997,-1.4214 2.4893,-0.1754 0.5161,3.3901 -1.778,3.2127 -1.8454,3.2272 -1.8909,0.41 z"
       id="path30"
       inkscape:connector-curvature="0" />
    <path
       style="fill:#867d82;stroke-width:1.33333337"
       d="m 761.08339,2041.2645 c -31.23563,-2.7785 -64.06278,-9.7524 -80.06971,-17.0102 -4.63184,-2.1003 -14.10475,-7.1508 -21.05092,-11.2235 -6.94618,-4.0727 -20.01358,-11.0424 -29.03866,-15.4883 -19.39637,-9.5549 -29.51736,-16.5321 -44.51994,-30.6912 -6.08895,-5.7466 -16.30308,-14.1558 -22.69808,-18.6872 -13.0004,-9.2117 -16.73467,-13.4617 -21.70683,-24.7046 -4.81205,-10.8808 -5.23277,-16.3908 -2.75848,-36.1262 3.80291,-30.3325 5.43483,-35.8249 13.73819,-46.2376 2.15094,-2.6973 5.89544,-9.5973 8.32108,-15.3333 9.09028,-21.496 12.6611,-28.8427 16.95536,-34.8844 7.3726,-10.3728 45.50237,-47.8699 60.73341,-59.7256 7.87719,-6.1316 19.57719,-16.4 26,-22.8187 17.27042,-17.2592 30.05392,-22.7677 79.67787,-34.3338 25.84753,-6.0246 44.24929,-7.3938 99.46036,-7.4006 60.32831,-0.013 103.45674,5.6039 159.27426,20.7231 21.6137,5.8544 35.647,12.7101 61.9393,30.2592 24.9676,16.6649 38.5081,26.882 57.9415,43.7201 8.0949,7.0138 17.8934,15.3674 21.7745,18.5635 3.8812,3.1963 10.5304,10.6989 14.7759,16.6728 7.2918,10.26 7.7017,11.2521 7.4023,17.9157 -0.1743,3.8798 -0.9111,8.665 -1.6373,10.6336 -0.7262,1.9687 -2.6203,8.0794 -4.2091,13.5794 -1.5887,5.5 -4.0511,12.93 -5.4718,16.5112 -1.4208,3.581 -2.5832,7.2381 -2.5832,8.1266 0,1.8839 -5.0416,6.765 -5.9988,5.8079 -1.3459,-1.346 -3.0677,-14.1061 -3.0351,-22.4932 0.027,-6.9977 -0.8921,-10.9371 -4.6671,-20 -2.5855,-6.2072 -5.4734,-14.2607 -6.4176,-17.8964 -3.3219,-12.7925 -30.4803,-37.3261 -70.5481,-63.73 -37.4366,-24.67 -64.22468,-35.7944 -105.16386,-43.672 -32.44144,-6.2424 -100.94321,-8.6153 -106.46251,-3.688 -5.99609,5.3531 -18.98038,5.748 -25.7396,0.7829 -3.04542,-2.237 -4.36428,-2.3337 -13.85069,-1.0142 -5.76661,0.8021 -15.35195,2.8561 -21.30073,4.5646 -5.94878,1.7084 -19.126,5.28 -29.28272,7.9368 -10.15671,2.6567 -20.65671,5.9542 -23.33334,7.3276 -20.64682,10.5948 -21.52633,11.245 -21.55365,15.9327 -0.0379,6.4912 -1.73196,7.6344 -8.59353,5.7992 -9.80036,-2.6212 -15.30934,-1.9799 -23.55278,2.7417 -15.36485,8.8007 -20.61963,12.4258 -25.16661,17.362 -9.63854,10.4635 -21.13708,21.8228 -28.77334,28.425 -6.49312,5.6138 -9.24192,9.4402 -15.49565,21.5702 -6.71113,13.0171 -7.70487,15.9683 -8.47709,25.1755 -0.64794,7.7253 -1.71535,11.7393 -4.11636,15.4799 -4.572,7.1226 -5.93154,11.0533 -7.24614,20.95 -0.63317,4.7666 -1.5377,10.3166 -2.01009,12.3333 -0.78441,3.3488 -0.52663,3.6667 2.97384,3.6667 2.10799,0 6.71841,-1.5362 10.24537,-3.4138 5.92262,-3.1528 6.30252,-3.2078 4.97148,-0.7208 -1.99834,3.7339 -8.88653,8.7687 -16.40684,11.9923 -10.47113,4.4885 -6.63244,10.5665 5.64486,8.9379 4.81802,-0.6391 7.75328,-0.1754 12.67888,2.0036 7.91817,3.5025 17.3258,2.9821 22.71425,-1.2564 5.0808,-3.9966 5.95379,-3.6195 4.42655,1.9117 -2.33491,8.4564 -1.71667,8.7691 15.32529,7.7501 18.35923,-1.0976 23.10427,-0.323 29.58786,4.8294 3.81317,3.0304 6.36269,3.966 10.80713,3.966 4.80133,0 5.81667,0.4369 5.81667,2.5034 0,1.3768 -0.88119,3.2347 -1.9582,4.1286 -1.65298,1.3718 -0.98426,2.2805 4.29025,5.8298 5.3204,3.5803 6.71204,5.492 9.36977,12.8715 3.89678,10.8197 6.31415,18.8041 8.22647,27.1717 0.81767,3.5778 2.81831,8.2499 4.44585,10.3824 10.03971,13.1546 12.46346,15.2174 20.26115,17.244 2.21725,0.5763 7.63137,2.3367 12.03137,3.9119 20.17139,7.2217 35.46436,10.4841 53.54116,11.4217 17.83254,0.925 17.91619,0.9155 21.51383,-2.4061 1.98643,-1.8341 4.66168,-3.7039 5.94501,-4.1549 1.39168,-0.4894 2.33334,-2.1824 2.33334,-4.1955 0,-4.1821 2.06113,-4.37 4.116,-0.3752 3.45069,6.7084 8.19308,10.3333 13.5186,10.3333 6.03392,0 67.3912,-6.8085 96.86704,-10.7488 11.27589,-1.5073 21.32589,-2.4244 22.33333,-2.0377 3.44626,1.3224 1.8302,4.5816 -5.28645,10.6616 -12.39276,10.5875 -17.62313,11.9399 -74.88185,19.3621 -56.55801,7.3314 -103.79047,9.6406 -136.91663,6.694 z m 371.28941,-158.3662 c -7.6563,-3.1103 -9.0496,-4.6767 -6.2364,-7.0115 2.272,-1.8856 22.2456,-2.6159 23.9845,-0.8771 0.4483,0.4484 -0.8167,2.9546 -2.8111,5.5694 -4.0871,5.3585 -6.5243,5.7369 -14.937,2.3192 z M 1093,1859.8741 c -4.0942,-5.3513 -4.638,-7.8741 -1.6974,-7.8741 2.755,0 6.3233,5.8995 5.8003,9.5896 -0.4129,2.9128 -0.632,2.8212 -4.1029,-1.7155 z M 719.00001,1750.0115 c -4.16213,-4.4242 -5.6829,-8.6782 -3.1023,-8.6782 2.84764,0 9.43564,7.0648 9.43564,10.1186 0,4.299 -1.18786,4.0288 -6.33334,-1.4404 z"
       id="path28"
       inkscape:connector-curvature="0" />
    <path
       style="fill:#7b7b83;stroke-width:1.33333337"
       d="m 768.66668,2041.254 c -42.29327,-2.4329 -76.92,-10.9699 -100.29506,-24.7268 -6.83156,-4.0207 -21.2599,-11.7501 -32.06298,-17.1767 -23.2402,-11.6738 -31.79156,-17.4413 -52.29968,-35.2741 -8.43826,-7.3373 -19.19996,-16.2063 -23.9149,-19.7085 -9.85137,-7.3178 -15.66512,-15.1243 -19.36102,-25.9975 -2.52823,-7.4379 -2.53676,-8.2055 -0.34135,-30.7183 2.62757,-26.9442 4.7866,-35.3193 10.84408,-42.0649 5.02924,-5.6005 9.56989,-14.1417 15.50984,-29.1747 8.04455,-20.3593 12.34479,-26.3876 35.80225,-50.1892 13.84567,-14.0488 28.10334,-26.9716 38.11882,-34.5497 8.8,-6.6584 20.92998,-17.0859 26.95552,-23.1719 13.90996,-14.0497 26.83327,-20.6352 55.71115,-28.3888 31.4768,-8.4514 43.88901,-10.4056 74,-11.65 56.36996,-2.3296 96.17629,-0.9038 140.66667,5.0382 23.71437,3.1672 76.57258,16.6806 91.04938,23.2772 24.4974,11.1625 63.2482,38.3569 99.6726,69.9478 29.4467,25.5392 38.547,38.6714 35.8665,51.7572 -2.5211,12.3084 -6.2035,20.1834 -9.4379,20.1834 -1.0318,0 -3.5463,-2.55 -5.5877,-5.6667 -2.0415,-3.1167 -6.1067,-8.1848 -9.0338,-11.2625 -3.6514,-3.8392 -5.8798,-7.7723 -7.099,-12.5295 -1.465,-5.7159 -3.5616,-8.8027 -11.9369,-17.5737 -13.8151,-14.4679 -32.5777,-29.3442 -58.8265,-46.6415 -37.4366,-24.67 -64.22468,-35.7944 -105.16386,-43.672 -32.44144,-6.2424 -100.94321,-8.6153 -106.46251,-3.688 -6.0607,5.4108 -19.66613,5.7944 -25.27749,0.7128 -2.52588,-2.2875 -4.00099,-2.5053 -11.33333,-1.6733 -4.63622,0.526 -14.1295,2.44 -21.09616,4.2533 -6.96667,1.8132 -21.96667,5.6175 -33.33334,8.4539 -19.98878,4.9877 -42.08269,12.2497 -44.51977,14.6332 -0.65255,0.6381 -1.67837,4.2721 -2.27963,8.0756 -0.60125,3.8034 -1.37714,7.1993 -1.72421,7.5464 -0.34708,0.3472 -2.78176,-0.079 -5.41041,-0.9463 -8.10514,-2.6749 -15.58852,-1.9557 -22.89611,2.2005 -3.65324,2.0778 -9.8773,5.5778 -13.83124,7.7778 -3.95394,2.2 -11.51955,8.2821 -16.81246,13.5157 -5.29292,5.2336 -13.78085,12.8328 -18.86209,16.8871 -12.62531,10.0734 -19.10636,17.7814 -25.18003,29.947 -4.65277,9.3195 -5.15788,11.348 -5.22484,20.9835 -0.0777,11.1929 -0.94744,15.2489 -4.40258,20.5336 -1.1508,1.7601 -2.24476,3.8601 -2.43102,4.6667 -0.18625,0.8065 -1.51602,5.5013 -2.95506,10.4328 -1.43903,4.9316 -2.8086,11.5316 -3.04348,14.6666 -0.41818,5.5816 -0.33492,5.7091 3.99876,6.125 2.84932,0.2734 6.79418,-0.8136 11.07468,-3.0519 6.06925,-3.1735 6.52454,-3.2443 5.22293,-0.8123 -1.98684,3.7126 -8.89401,8.75 -16.42181,11.9768 -8.02586,3.4403 -10.33342,8.063 -5.11935,10.2552 1.91697,0.806 4.30865,2.4575 5.31483,3.6699 2.25165,2.7131 6.83622,2.9028 6.83622,0.2829 0,-3.5636 2.30654,-3.383 7.8219,0.6123 6.90685,5.0033 11.02353,4.9985 20.84477,-0.024 9.25233,-4.7319 9.14064,-4.7103 7.38024,-1.4209 -3.69111,6.8968 0.66156,11.1133 8.42527,8.1616 2.03578,-0.774 10.21888,-1.4074 18.18465,-1.4074 h 14.48323 l 3.35408,4.2858 c 3.05913,3.9088 4.00561,4.2857 10.76331,4.2857 4.96342,0 7.40922,0.5399 7.40922,1.6356 0,2.3727 -1.44825,2.9597 -9.69069,3.9285 -6.55293,0.7702 -8.31751,0.402 -15.66122,-3.2677 -9.766,-4.8801 -15.54254,-6.1637 -22.15509,-4.9232 -6.86048,1.2869 -4.16809,3.1799 7.65212,5.3796 5.42019,1.0088 15.24049,3.5516 21.82291,5.6508 13.19817,4.2089 11.99679,2.7509 15.12629,18.3583 0.73522,3.6666 2.04155,9.0666 2.90296,12 0.8614,2.9333 2.16768,9.8293 2.90283,15.3245 0.73515,5.4951 2.25197,12.3951 3.37073,15.3333 1.11876,2.9382 2.20171,7.2463 2.40655,9.5735 0.53423,6.0693 1.11384,6.6051 10.33709,9.5541 10.76743,3.4427 29.20056,5.1927 73.92735,7.0186 l 36.27517,1.4808 6.00542,-3.8091 c 3.30298,-2.0949 6.51192,-5.2573 7.13096,-7.0275 l 1.12554,-3.2184 2.69475,4.5518 c 5.3212,8.988 3.76292,8.9224 62.98654,2.6529 29.28541,-3.1003 54.9085,-5.4413 56.94018,-5.2023 4.99015,0.5868 5.33587,2.6486 1.25699,7.496 -7.33725,8.7199 -16.95675,11.3038 -65.35737,17.5559 -17.6,2.2735 -32.9,4.4039 -34.00001,4.7341 -3.25436,0.9775 -63.90913,4.6398 -73.33333,4.4279 -4.76667,-0.1067 -16.46667,-0.6437 -26,-1.1921 z m 365.25482,-161.8953 c -2.2402,-1.7092 -2.3193,-2.1546 -0.5881,-3.313 2.4852,-1.6629 5.4127,-1.7098 7.9142,-0.1266 1.5865,1.0038 1.6156,1.5712 0.1701,3.3129 -2.177,2.6231 -4.18,2.6571 -7.4962,0.1267 z M 719.00001,1750.0115 c -4.16213,-4.4242 -5.6829,-8.6782 -3.1023,-8.6782 2.84764,0 9.43564,7.0648 9.43564,10.1186 0,4.299 -1.18786,4.0288 -6.33334,-1.4404 z"
       id="path26"
       inkscape:connector-curvature="0" />
    <path
       style="fill:#857378;stroke-width:1.33333337"
       d="m 768.66668,2041.254 c -42.29327,-2.4329 -76.92,-10.9699 -100.29506,-24.7268 -6.83156,-4.0207 -21.2599,-11.7501 -32.06298,-17.1767 -23.2402,-11.6738 -31.79156,-17.4413 -52.29968,-35.2741 -8.43826,-7.3373 -19.19996,-16.2063 -23.9149,-19.7085 -9.85137,-7.3178 -15.66512,-15.1243 -19.36102,-25.9975 -2.52823,-7.4379 -2.53676,-8.2055 -0.34135,-30.7183 2.62757,-26.9442 4.7866,-35.3193 10.84408,-42.0649 5.02924,-5.6005 9.56989,-14.1417 15.50984,-29.1747 8.04455,-20.3593 12.34479,-26.3876 35.80225,-50.1892 13.84567,-14.0488 28.10334,-26.9716 38.11882,-34.5497 8.8,-6.6584 20.92998,-17.0859 26.95552,-23.1719 13.90996,-14.0497 26.83327,-20.6352 55.71115,-28.3888 31.4768,-8.4514 43.88901,-10.4056 74,-11.65 56.36996,-2.3296 96.17629,-0.9038 140.66667,5.0382 23.71437,3.1672 76.57258,16.6806 91.04938,23.2772 24.4974,11.1625 63.2482,38.3569 99.6726,69.9478 29.4467,25.5392 38.547,38.6714 35.8665,51.7572 -2.5068,12.2383 -6.2029,20.1834 -9.3896,20.1834 -2.5582,0 -8.166,-8.9551 -9.602,-15.3334 -2.2044,-9.7914 -9.5815,-25.4628 -13.9563,-29.6477 -18.4236,-17.6244 -76.4511,-58.8724 -102.3072,-72.7236 -16.2518,-8.7061 -48.9873,-18.7425 -76.66672,-23.5053 -30.52333,-5.2522 -91.09093,-7.2354 -106.66667,-3.4927 -6.42612,1.5441 -9.49285,1.6219 -15.58814,0.3953 -9.47216,-1.9062 -25.87498,0.06 -47.06026,5.6423 -8.07672,2.128 -21.88493,5.4616 -30.68493,7.4079 -24.42323,5.4017 -37.02061,9.392 -51.81683,16.4132 -7.43408,3.5277 -15.6165,7.2053 -18.18317,8.1724 -2.56667,0.9672 -6.46667,3.3592 -8.66667,5.3158 -2.2,1.9566 -6.7,5.5995 -10,8.0954 -3.3,2.4958 -12.00255,9.9872 -19.33899,16.6473 -7.33645,6.6601 -17.83645,15.4557 -23.33333,19.5459 -11.02015,8.1997 -15.51901,12.7172 -19.65217,19.7338 -3.68427,6.2546 -7.88167,21.3606 -8.88274,31.968 -0.44818,4.7492 -2.62444,14.0492 -4.83612,20.6667 -5.41524,16.2031 -6.39966,19.454 -7.08614,23.4009 -0.32228,1.853 -1.54998,5.6763 -2.72823,8.4963 -2.70644,6.4773 -2.71297,9.6829 -0.0228,11.1884 1.16571,0.6524 2.06571,1.5821 2,2.0663 -0.47928,3.5309 0.11973,9.8598 1.07607,11.3694 0.71014,1.121 4.16729,1.9668 8.97958,2.197 4.30368,0.2058 10.52488,1.128 13.82488,2.049 3.3,0.9211 10.13719,1.5694 15.19375,1.4404 6.51376,-0.1658 9.81743,0.3394 11.33333,1.7332 1.17678,1.082 3.48959,3.1952 5.13959,4.6959 1.65,1.5007 3.00067,3.7785 3.00148,5.0619 10e-4,2.0294 1.48757,2.3516 11.41081,2.4732 9.46863,0.116 12.07328,0.6308 15.3126,3.0257 3.9494,2.9199 9.25634,5.3305 13.71497,6.2301 6.13618,1.2379 7.32414,2.232 8.34496,6.9831 0.58549,2.7249 0.8936,6.9739 0.68468,9.4419 -0.25203,2.9773 0.10986,4.1846 1.07533,3.588 2.11269,-1.3058 1.78409,1.5484 -0.73521,6.3856 -4.25744,8.1746 -4.55882,8.9934 -3.7761,10.26 0.43479,0.7034 0.0779,1.279 -0.79326,1.279 -1.13322,0 -1.3278,1.9299 -0.68396,6.7834 0.71377,5.3806 0.54252,6.5601 -0.82823,5.7041 -4.53235,-2.8304 -4.86264,-1.1615 -0.55163,2.7873 2.65296,2.43 4.82356,5.0787 4.82356,5.8859 0,2.244 14.57123,9.1036 26.97123,12.6971 6.10249,1.7684 16.48044,3.6428 23.06211,4.1654 6.58166,0.5226 12.40194,1.2075 12.93396,1.522 0.53201,0.3144 18.7021,1.1794 40.378,1.922 l 39.41068,1.3503 5.91498,-3.7421 c 3.25323,-2.0582 6.28091,-4.8151 6.72816,-6.1267 0.6963,-2.042 1.56446,-1.6107 6.0389,3 3.41472,3.5185 6.40476,5.3847 8.62797,5.3847 1.87125,0 26.23456,-2.4334 54.14067,-5.4075 51.12507,-5.4487 58.51467,-5.8335 59.41249,-3.0937 0.80843,2.4669 -5.95469,9.4366 -11.9836,12.3498 -7.85456,3.7952 -19.37556,5.9988 -56.30221,10.7688 -17.6,2.2735 -32.9,4.4039 -34,4.7342 -3.25436,0.9774 -63.90914,4.6397 -73.33334,4.4278 -4.76666,-0.1066 -16.46666,-0.6437 -26,-1.1921 z m 365.34792,-161.7452 c -2.4085,-1.7611 -2.3925,-1.8795 0.4622,-3.4072 2.9003,-1.5521 8.1899,-0.8709 8.1899,1.0549 0,1.4878 -3.012,4.1768 -4.6785,4.1768 -0.8132,0 -2.6013,-0.821 -3.9736,-1.8245 z"
       id="path24"
       inkscape:connector-curvature="0" />
    <path
       style="fill:#67575b;stroke-width:1.33333337"
       d="m 755.33335,2039.1491 c -47.28052,-7.3736 -62.67856,-12.0247 -87.33334,-26.3799 -4.76667,-2.7755 -19.16667,-10.3268 -32,-16.7809 -25.87512,-13.0131 -38.23463,-21.1551 -52.45815,-34.5574 -5.24802,-4.9449 -13.24258,-11.4788 -17.7657,-14.5196 -9.2676,-6.2304 -15.85708,-13.7145 -20.86806,-23.7014 -4.21134,-8.3932 -4.48916,-11.372 -3.15936,-33.8766 1.55866,-26.3773 2.69002,-30.9037 9.69612,-38.7922 6.74455,-7.594 10.99618,-15.4643 16.67686,-30.8712 8.16628,-22.1482 12.17764,-28.0591 34.48414,-50.8144 20.60363,-21.0182 32.50211,-31.1844 52.5313,-44.8835 5.75876,-3.9388 15.26862,-11.8448 21.13304,-17.5691 12.01747,-11.7302 21.82549,-17.106 41.72981,-22.8722 25.88672,-7.4994 35.62726,-9.2968 52,-9.5958 8.8,-0.1608 22.6,-1.2501 30.66667,-2.4209 24.31281,-3.5287 82.21552,-2.9843 117.41074,1.1037 31.19918,3.6239 41.79873,5.6982 78.63725,15.3886 28.43363,7.4796 38.20113,11.7436 62.52413,27.2946 28.4822,18.2103 48.6524,33.8099 76.2939,59.0054 16.3628,14.9148 21.8007,22.5176 21.8007,30.48 0,7.6346 -1.0546,9.8804 -4.6396,9.8804 -2.8899,0 -6.8368,-3.8274 -17.2679,-16.7451 -9.8063,-12.144 -70.6924,-57.1013 -101.4259,-74.8912 -16.2482,-9.4052 -32.4077,-15.0724 -63.33332,-22.2112 -18.73772,-4.3253 -28.27609,-5.7215 -56.66666,-8.294 -25.62152,-2.3216 -62.83394,-1.9917 -71.15761,0.6308 -3.13778,0.9885 -6.44138,0.9967 -10.96424,0.027 -8.42313,-1.8064 -25.92708,0.2262 -47.21149,5.4828 -8.8,2.1733 -25.9,6.1081 -38,8.744 -23.396,5.0966 -39.36552,9.9665 -46.15737,14.0754 -2.28656,1.3832 -4.98656,2.5156 -6,2.5162 -3.5051,0 -17.85546,7.6624 -21.17597,11.304 -1.83333,2.0105 -7.69009,6.9477 -13.01501,10.9713 -5.32493,4.0236 -10.42493,8.3192 -11.33333,9.5457 -2.29643,3.1006 -24.36998,21.5552 -31.68218,26.4879 -8.01056,5.4037 -16.07517,14.3091 -19.6425,21.69 -2.7844,5.7611 -3.80738,9.5087 -9.46274,34.6667 -1.40121,6.2333 -5.06133,17.2056 -8.13361,24.3828 -4.08744,9.5486 -5.99583,16.2965 -7.11381,25.1537 -1.48774,11.7867 -1.45044,12.1671 1.42034,14.4917 2.64288,2.1402 2.86279,3.2044 2.12351,10.2776 l -0.82469,7.8902 6.74585,2.902 c 3.71023,1.5961 8.62407,2.902 10.91967,2.902 2.2956,0 5.32385,0.6154 6.72944,1.3677 1.98977,1.0649 3.66788,0.6519 7.57901,-1.8651 2.76287,-1.7781 7.32868,-4.0341 10.14627,-5.0133 4.57897,-1.5915 5.30237,-1.5351 6.81365,0.5317 0.92993,1.2718 3.27464,2.3123 5.21045,2.3123 4.08168,0 4.37459,1.4747 1.32,6.6456 -3.75093,6.3499 -0.66628,9.0931 9.26198,8.2371 5.2262,-0.4507 18.27104,8.9274 18.27104,13.1353 0,1.1167 -3.86598,2.6352 -14.86747,5.84 -4.14376,1.2071 -7.82943,2.9643 -8.19036,3.9048 -1.42003,3.7005 3.16225,10.0399 13.8634,19.1791 6.15693,5.2584 14.93647,13.1496 19.51007,17.5362 4.5736,4.3866 10.2736,9.0182 12.66667,10.2923 21.21774,11.2977 28.90165,13.2495 44.74094,11.3644 7.71712,-0.9185 18.31626,-0.9613 31.61008,-0.128 30.94564,1.9401 72.84978,1.6997 76.03666,-0.4361 1.4465,-0.9695 4.54329,-2.5271 6.88174,-3.4614 3.81079,-1.5224 4.56284,-1.4088 7.25142,1.096 3.67001,3.4192 9.07458,3.5303 39.16352,0.805 30.55304,-2.7672 45.81071,-2.6091 49.87728,0.5173 l 3.21061,2.4683 -3.36125,2.2024 c -4.66468,3.0564 -16.17817,5.2528 -57.05997,10.885 -33.57155,4.6252 -37.46078,4.8884 -78.00001,5.2787 -23.46666,0.226 -44.46666,0.1307 -46.66666,-0.2129 z"
       id="path22"
       inkscape:connector-curvature="0" />
  </g>
  <g
     id="g57"
     transform="translate(-531.45701,-1657.5332)">
    <path
       style="fill:#9c9fa3;stroke-width:1.33333337"
       d="m 822.86788,2022.6119 c -22.38213,-4.2684 -38.5544,-11.2701 -61.33333,-26.554 -23.40787,-15.7059 -39.3453,-29.2055 -49.46998,-41.9028 -4.98876,-6.2563 -11.57692,-13.4245 -14.64033,-15.9295 -12.15787,-9.9408 -17.47379,-29.6432 -17.4782,-64.779 -0.004,-28.1071 1.28295,-36.1672 9.78932,-61.3334 9.92249,-29.3557 15.00452,-38.2082 32.27351,-56.218 17.17366,-17.9104 22.54636,-22.0324 40.19234,-30.8364 49.10938,-24.5016 111.62359,-25.7661 159.71335,-3.2305 20.7797,9.7377 43.76971,28.006 58.89663,46.8005 12.5418,15.5827 33.03921,56.6058 35.26321,70.5752 2.7489,17.2658 -2.5504,42.8706 -13.6469,65.9395 -8.92648,18.5573 -19.69474,34.7037 -39.78204,59.6507 -26.60582,33.0424 -47.44999,48.1812 -76.44424,55.5204 -7.88524,1.9958 -55.79999,3.734 -63.33334,2.2973 z m 98.66667,-153.0867 c 0,-1.0566 -0.65228,-2.3244 -1.44951,-2.8172 -1.88269,-1.1634 -4.45253,1.4063 -3.28896,3.2891 1.30695,2.1147 4.73847,1.7729 4.73847,-0.4719 z m -9.33333,-14.7453 c 0,-1.1 -0.97347,-2 -2.16326,-2 -1.77173,0 -1.86284,0.362 -0.50341,2 0.91292,1.1 1.88639,2 2.16325,2 0.27688,0 0.50342,-0.9 0.50342,-2 z m 13.67188,-31.6667 c 1.00237,-2.6778 -0.87795,-13.6666 -2.33855,-13.6666 -1.45971,0 -2.59792,10.5186 -1.45929,13.4858 0.88266,2.3003 2.96737,2.3995 3.79784,0.1808 z m -41.67188,-60.3333 c -1.75651,-2.1164 -6.66667,-2.7712 -6.66667,-0.8889 0,1.9322 1.67305,2.8889 5.05215,2.8889 2.75937,0 3.0133,-0.3145 1.61452,-2 z"
       id="path71"
       inkscape:connector-curvature="0" />
    <path
       style="fill:#7091a6;stroke-width:1.33333337"
       d="m 824.86788,2018.5722 c -27.9858,-4.4132 -50.76591,-16.1112 -87.18743,-44.7726 -9.85548,-7.7556 -16.76442,-14.5297 -22.5345,-22.0948 -4.57675,-6.0004 -10.99846,-13.3776 -14.27047,-16.3936 -12.26015,-11.301 -16.98853,-28.5496 -16.95907,-61.8646 0.0107,-11.7334 0.70232,-25.5334 1.53766,-30.6667 2.05593,-12.6341 12.23581,-42.644 19.45536,-57.3536 13.00862,-26.5047 45.61718,-53.73 77.53736,-64.7369 21.57798,-7.4407 58.53821,-12.8918 75.72377,-11.1679 43.10962,4.324 75.15727,17.8368 102.31319,43.1399 15.03773,14.0116 24.19636,27.1756 38.14116,54.8216 15.04259,29.8222 16.17139,34.6928 12.89029,55.6168 -2.562,16.3384 -4.7241,22.9829 -13.60504,41.8105 -7.99273,16.9445 -13.26266,24.9229 -33.92513,51.3609 -22.37385,28.6276 -36.77467,41.5844 -58.25911,52.4171 -15.12524,7.6263 -25.93689,9.6983 -52.85804,10.1299 -13.2,0.2116 -25.8,0.1013 -28,-0.246 z m 99.64526,-153.1418 c 3.25033,-26.5182 4.60398,-54.0456 2.87876,-58.5414 -1.46031,-3.8055 -5.69506,-2.4119 -7.77142,2.5576 -1.47314,3.5257 -2.74534,4.6666 -5.20352,4.6666 -5.58217,0 -8.53148,3.8674 -9.29984,12.1947 -0.73642,7.9812 0.79054,11.8173 5.76318,14.4787 2.23477,1.196 2.71944,0.7029 4.00624,-4.076 1.6377,-6.0819 4.40362,-6.4684 5.08129,-0.7099 0.44729,3.8008 -2.84467,8.7792 -5.80532,8.7792 -2.84455,0 -14.00449,6.8515 -13.22207,8.1175 0.41332,0.6686 1.52308,1.2158 2.46615,1.2158 3.22243,0 6.20243,4.8024 5.82597,9.389 -0.32308,3.9361 0.24367,4.7942 4.96866,7.5233 7.77865,4.4929 9.16782,3.7391 10.31192,-5.5951 z m -150.23285,-71.4452 c 1.40903,-2.2798 -3.03668,-6.1144 -4.91326,-4.2378 -0.83595,0.836 -1.15907,2.4602 -0.71804,3.6096 0.92278,2.4046 4.3005,2.7816 5.6313,0.6282 z m 112.3205,-29.4698 c 0.58393,-3.032 -5.49281,-6.8696 -9.07679,-5.7322 -3.64421,1.1567 -2.9417,4.764 1.3557,6.9615 4.17646,2.1356 7.1647,1.6599 7.72109,-1.2293 z"
       id="path69"
       inkscape:connector-curvature="0" />
    <path
       style="fill:#657a86;stroke-width:1.33333337"
       d="m 817.27808,2016.894 c -6.37438,-1.3877 -13.87439,-3.2641 -16.66667,-4.1694 -23.30044,-7.5558 -70.27486,-41.1036 -85.49501,-61.0584 -4.56049,-5.9792 -10.96891,-13.339 -14.24092,-16.355 -12.23737,-11.28 -16.93857,-28.4484 -16.94032,-61.8646 -10e-4,-26.3471 1.39199,-35.1579 9.17221,-58 11.77402,-34.5678 18.60294,-45.4796 41.08871,-65.656 23.42267,-21.0171 50.79513,-32.8895 88.55006,-38.4075 17.28485,-2.5261 48.24838,-0.9871 64.42548,3.2025 37.78614,9.7858 66.62038,28.0323 89.26096,56.4851 7.79314,9.7937 29.17932,48.8993 33.17792,60.6672 4.3259,12.7312 2.8879,35.1363 -3.4435,53.654 -4.0565,11.864 -14.88168,33.3385 -22.29088,44.2197 -12.2677,18.0163 -37.91032,49.2818 -47.01657,57.3263 -16.92401,14.9508 -31.94061,23.4817 -50.65833,28.7788 -14.08527,3.9861 -52.97108,4.6504 -68.92314,1.1773 z m 106.95724,-144.1141 c 3.25218,-6.5927 6.41682,-20.2964 5.70298,-24.6952 -0.69062,-4.2559 -0.30188,-5.2859 2.98346,-7.9055 l 3.77756,-3.0121 -2.91572,-3.7068 c -2.45012,-3.1148 -2.91862,-5.4345 -2.93392,-14.5269 -0.0221,-13.1474 -0.61073,-15.4954 -4.62853,-18.4638 -3.10068,-2.2908 -3.1564,-2.26 -6.62965,3.6667 -2.93771,5.0128 -4.1601,5.9769 -7.57831,5.9769 -5.49743,0 -12.44479,3.463 -14.16472,7.0603 -2.73084,5.712 -2.85837,7.6176 -0.88423,13.2128 1.93154,5.4745 1.87356,5.8977 -1.83245,13.3748 -4.24307,8.5608 -3.91519,9.4672 3.93545,10.8803 6.09423,1.0968 7.95811,3.2945 7.53242,8.8813 -0.18396,2.4143 0.25112,4.5953 0.96686,4.8467 0.71575,0.2513 3.70136,1.8973 6.6347,3.6576 5.91449,3.5493 8.55685,3.7476 10.0341,0.7529 z M 774.20121,1792.095 c 0,-1.7314 -1.03878,-2.7959 -3,-3.0746 -2.20934,-0.3137 -3,0.2427 -3,2.1112 0,1.3955 0.42075,2.9579 0.93499,3.4722 1.76872,1.7686 5.06501,0.136 5.06501,-2.5088 z m 112.66667,-27.2843 c 0,-3.1212 -5.52412,-7.1131 -8.93444,-6.4563 -3.53118,0.68 -2.93108,5.4108 0.93444,7.3664 4.94338,2.501 8,2.1532 8,-0.9101 z"
       id="path67"
       inkscape:connector-curvature="0" />
    <path
       style="fill:#4e5456;stroke-width:1.33333337"
       d="m 827.53455,2016.2895 c -25.86726,-3.7325 -38.86515,-8.8557 -62.05322,-24.4587 -24.72812,-16.639 -40.2368,-29.8238 -49.32744,-41.9357 -4.58837,-6.1133 -11.03097,-13.7591 -14.31689,-16.9905 -11.20075,-11.0151 -16.298,-29.2067 -16.28644,-58.1247 0.009,-23.49 2.0582,-36.6812 8.80121,-56.6667 11.90004,-35.2702 19.0913,-47.1048 40.00023,-65.8276 27.69748,-24.8017 63.70895,-38.5532 105.84922,-40.4201 32.2914,-1.4307 73.89557,9.8087 97.82421,26.4272 18.20632,12.6443 37.28633,32.584 45.81707,47.8815 26.1495,46.8916 28.4138,53.218 25.9709,72.5597 -0.8476,6.7109 -2.8178,16.3665 -4.3782,21.4572 -3.4686,11.316 -15.34464,36.6588 -21.3004,45.4541 -10.39865,15.3566 -34.64662,45.8762 -43.29974,54.4991 -17.17711,17.1171 -37.61443,29.3168 -56.98006,34.0133 -14.21336,3.4471 -40.35028,4.4364 -56.32045,2.1319 z m 107.08063,-122.2677 c -0.65868,-1.976 -12.88162,-8.552 -13.93602,-7.4976 -1.31408,1.3141 2.20255,4.9058 6.76411,6.9085 5.08161,2.2312 7.79351,2.4539 7.17191,0.5891 z m 21.31937,-4.1752 c 0.88,-0.88 1.6,-3.5948 1.6,-6.0331 0,-3.5913 -0.68479,-4.6933 -3.60727,-5.8044 -3.06974,-1.1671 -3.93597,-0.9357 -5.81325,1.5531 -2.06483,2.7373 -2.04923,3.0813 0.24368,5.3742 1.34733,1.3474 2.09911,3.3632 1.67061,4.4799 -0.95561,2.4903 3.52014,2.8164 5.90623,0.4303 z m -30.36545,-15.7334 c 0.54288,-1.1 1.51812,-3.8 2.1672,-6 0.99473,-3.3714 1.94174,-4.0638 6.02741,-4.4061 4.73397,-0.3967 4.86057,-0.5525 5.41791,-6.6667 0.31385,-3.4433 0.0777,-7.2598 -0.52486,-8.4813 -0.7334,-1.4867 -0.004,-4.1309 2.20842,-8 1.81714,-3.1785 3.31114,-7.4212 3.31997,-9.428 0.0133,-2.8777 0.96773,-4.0464 4.51996,-5.5305 5.78381,-2.4167 6.94868,-4.409 4.29339,-7.3431 -1.17184,-1.2948 -2.1198,-2.9069 -2.10658,-3.5825 0.0296,-1.5152 9.10772,-9.0836 12.33954,-10.2875 3.19568,-1.1904 4.29706,-4.5384 2.289,-6.9579 -2.27138,-2.7369 -6.29042,-2.4844 -7.8851,0.4952 -0.72949,1.3631 -4.12374,3.2616 -7.5428,4.2188 -5.90596,1.6536 -6.32948,1.5907 -8.47892,-1.2589 -1.31537,-1.7437 -3.34037,-2.8121 -4.83744,-2.5521 -1.96584,0.3414 -2.67644,-0.4371 -3.00384,-3.2915 -0.27673,-2.4125 -1.57738,-4.262 -3.66666,-5.214 -1.7808,-0.8113 -3.23782,-1.9789 -3.23782,-2.5945 0,-1.5332 -8.9883,-1.423 -9.94305,0.1213 -0.42192,0.6827 -0.15732,1.6181 0.58797,2.0787 1.98743,1.2282 1.65247,11.7637 -0.46613,14.661 -1.62144,2.2175 -2.27972,2.3008 -6.0012,0.7594 -3.21064,-1.3299 -4.61701,-1.3688 -6.06448,-0.1675 -1.03647,0.8601 -3.56788,1.3832 -5.62537,1.1623 -3.71222,-0.3987 -3.75271,-0.3199 -5.28016,10.2649 -1.3341,9.2449 -1.25418,11.1596 0.59961,14.3653 1.72893,2.9898 1.82399,4.1396 0.49599,6 -0.90359,1.2658 -2.23534,3.6743 -2.95944,5.3524 -0.72412,1.6782 -2.86826,4.4892 -4.76474,6.2468 l -3.44817,3.1956 4.03504,2.0866 c 2.21927,1.1477 5.90428,2.0866 8.18891,2.0866 6.56041,0 9.31189,2.1326 9.31189,7.217 0,4.9189 0.95113,5.9929 9.49277,10.7194 6.44168,3.5644 9.05375,3.7455 10.54178,0.7303 z m -21.36788,-74.6666 c 0,-0.7334 -1.2,-1.3334 -2.66667,-1.3334 -1.46667,0 -2.66667,0.6 -2.66667,1.3334 0,0.7333 1.2,1.3333 2.66667,1.3333 1.46667,0 2.66667,-0.6 2.66667,-1.3333 z m -130.08681,-2.6336 c 1.88108,-0.7152 3.42014,-2.1223 3.42014,-3.1268 0,-2.7324 -4.7928,-6.5386 -7.56747,-6.0095 -2.90381,0.5536 -3.95473,5.7991 -1.70496,8.5099 1.89913,2.2884 1.57268,2.2534 5.85229,0.6264 z m 135.48635,-6.0674 c 2.29175,-1.185 3.93379,-3.1068 3.93379,-4.6038 0,-6.7752 -6.36835,-13.1494 -11.50779,-11.5182 -4.16417,1.3218 -5.08157,0.9298 -5.12104,-2.1878 -0.0407,-3.208 -0.11306,-3.2178 -11.57082,-1.5662 -4.68206,0.6748 -6.88868,1.8256 -9.01444,4.7008 l -2.81478,3.8072 5.29464,2.7012 c 2.91207,1.4856 6.06856,2.7012 7.01444,2.7014 0.94588,2e-4 5.01979,1.7764 9.05312,3.9472 8.54354,4.598 9.49272,4.7281 14.73288,2.0182 z m -40.4301,-13.3709 c 2.78009,-5.8299 1.24334,-9.0787 -4.5716,-9.6644 -3.05315,-0.3076 -4.51682,0.3859 -6.18383,2.9301 -2.64044,4.0298 -1.98056,6.1723 2.81747,9.1476 4.98726,3.0927 5.36745,2.9771 7.93796,-2.4133 z m -27.63611,0.1505 c 0,-2.5242 -1.90913,-3.6189 -4.54635,-2.607 -3.38106,1.2974 -2.51561,4.5284 1.21302,4.5284 2.0134,0 3.33333,-0.7608 3.33333,-1.9214 z m 46.42812,-11.8246 c 0.90527,-4.7007 -6.06095,-9.4644 -11.68832,-7.9928 -4.39855,1.1502 -2.97651,5.9506 2.59353,8.7549 5.50712,2.7727 8.46172,2.5251 9.09479,-0.7621 z"
       id="path65"
       inkscape:connector-curvature="0" />
    <path
       style="fill:#3c4346;stroke-width:1.33333337"
       d="m 822.20122,2012.8674 c -27.1201,-4.2662 -40.61289,-11.0403 -78.66667,-39.4952 -16.39183,-12.2571 -19.75222,-15.577 -30.29052,-29.9256 -4.03944,-5.5 -8.98598,-11.5 -10.99228,-13.3334 -11.54674,-10.5512 -17.0134,-38.3044 -14.19215,-72.0508 1.57023,-18.7821 5.12809,-32.6449 14.3594,-55.9492 6.56789,-16.5805 8.93733,-21.0396 16.71447,-31.4553 11.3674,-15.2239 41.63806,-37.3885 61.00656,-44.67 32.58516,-12.2501 74.52965,-15.1733 104.49135,-7.2823 19.45585,5.124 40.02504,13.6498 51.28593,21.2574 19.60864,13.247 38.07285,33.1909 47.66401,51.4836 2.11476,4.0333 4.84223,8.8333 6.06104,10.6666 1.21882,1.8334 5.63651,10.0446 9.81708,18.2471 6.62096,12.9908 7.69686,16.1811 8.34436,24.7424 1.2468,16.4849 -3.5899,34.4517 -16.78296,62.3439 -7.25686,15.3421 -40.41185,60.8072 -52.23622,71.6309 -16.30731,14.9275 -38.75344,28.5685 -53.64367,32.6007 -14.35236,3.8864 -42.42107,4.4168 -62.93973,1.1892 z m 58,-34.8328 c 0,-2.7818 -1.96154,-3.4743 -3.3728,-1.1908 -1.20946,1.9569 0.40184,5.6149 2.03005,4.6086 0.73851,-0.4565 1.34275,-1.9945 1.34275,-3.4178 z m -60.6499,-9.1783 c -1.11676,-5.0845 1.76451,-5.9743 8.9416,-2.7609 4.68608,2.098 5.86018,2.2237 6.703,0.7177 0.9515,-1.7003 9.15315,-7.3665 10.66267,-7.3665 0.37179,0 1.01371,1.65 1.42651,3.6666 1.24001,6.058 3.87702,8.645 7.8067,7.6587 2.82231,-0.7084 3.60644,-1.8823 4.2947,-6.4293 0.46309,-3.0595 1.20157,-7.8134 1.64105,-10.564 0.66627,-4.1703 0.27624,-5.452 -2.34696,-7.7127 -2.52329,-2.1745 -4.4112,-2.5812 -9.53745,-2.0545 -5.84764,0.6008 -6.82562,0.2644 -11.49494,-3.9542 -2.80693,-2.5358 -5.49565,-4.6106 -5.97492,-4.6106 -0.47926,0 -1.4417,1.5 -2.13873,3.3333 -0.69703,1.8333 -2.33219,3.3524 -3.63367,3.3757 -1.30148,0.023 -3.53101,0.9234 -4.9545,2 -1.4235,1.0767 -3.56891,1.9576 -4.76759,1.9576 -1.19867,0 -3.5354,1.4434 -5.19272,3.2076 -2.54673,2.7108 -2.77163,3.6591 -1.45239,6.1242 0.85852,1.6041 1.20452,4.3368 0.7689,6.0724 -0.58464,2.3294 -0.0737,3.5402 1.9507,4.6237 1.89518,1.0143 2.49034,2.2632 1.92595,4.0415 -1.21841,3.8388 0.34349,5.5425 3.52181,3.8416 2.0685,-1.1071 2.48604,-2.2734 1.85028,-5.1679 z m -3.3501,-5.222 c 0,-0.7167 -0.36419,-2.252 -0.80932,-3.412 -0.53108,-1.384 -0.0727,-2.1091 1.33333,-2.1091 2.35423,0 2.98239,4.657 0.80932,6 -0.73333,0.4532 -1.33333,0.2378 -1.33333,-0.4789 z m 70.42685,-2.5271 c 0.62959,-4.4337 -3.55727,-5.5356 -6.62739,-1.7441 -3.02442,3.7351 -2.0113,5.7004 2.65979,5.1599 2.50121,-0.2895 3.66607,-1.2923 3.9676,-3.4158 z m -115.41951,-3.0874 c 4.59941,-3.3319 5.56761,-4.7584 5.20316,-7.6667 -0.24627,-1.9653 -1.57321,-4.7893 -2.94876,-6.2757 -4.66187,-5.0375 0.40933,-12.4851 5.41608,-7.954 2.0786,1.881 2.68104,1.853 6.46541,-0.3012 2.29528,-1.3066 4.17703,-3.0122 4.18167,-3.7903 0.004,-0.778 -3.04536,-2.1972 -6.77776,-3.1537 -6.73449,-1.726 -6.77984,-1.7732 -5.95133,-6.1895 0.70858,-3.7772 0.32336,-4.7853 -2.54715,-6.6661 -1.86009,-1.2188 -3.382,-3.2828 -3.382,-4.5867 0,-2.8336 -3.35924,-4.3724 -7.01339,-3.2127 -1.45073,0.4606 -4.0732,0.069 -5.82768,-0.87 -2.77644,-1.4858 -3.44173,-1.3744 -5.13205,0.8598 -3.09849,4.0954 -2.43769,4.7174 4.66693,4.3933 9.12595,-0.4164 10.43246,1.1677 7.56386,9.1712 -2.60788,7.276 -2.79456,8.8249 -0.92434,7.6691 1.50428,-0.9298 1.73019,0.7477 0.52402,3.8909 -1.14524,2.9845 -4.18316,2.6168 -5.21398,-0.6309 -1.47898,-4.6599 -3.9558,-2.0411 -4.38836,4.64 -0.31717,4.8986 0.14194,6.7778 2,8.1866 2.11308,1.6022 2.14176,1.8338 0.23167,1.871 -1.19899,0.023 -3.13981,1.5073 -4.31293,3.2977 -2.02023,3.0832 -1.95162,3.4707 1.29852,7.3333 4.49946,5.3472 9.47161,5.3427 16.86841,-0.016 z m -8.34068,-3.9066 c 0,-0.7333 0.9,-1.3333 2,-1.3333 1.1,0 2,0.6 2,1.3333 0,0.7334 -0.9,1.3334 -2,1.3334 -1.1,0 -2,-0.6 -2,-1.3334 z m 123.01158,-8.5206 c -0.41358,-0.6691 -1.54115,-0.1374 -2.50572,1.1817 -0.96458,1.3192 -1.41539,2.946 -1.00182,3.6152 0.41359,0.6691 1.54116,0.1373 2.50574,-1.1817 0.96456,-1.3192 1.41537,-2.946 1.0018,-3.6152 z m 21.15913,1.8152 c 1.30193,-1.9255 3.91475,-2.9479 9.06333,-3.5467 8.1534,-0.9484 12.0993,-3.5717 12.0993,-8.0441 0,-3.7103 0.7998,-3.759 6.33333,-0.3851 4.37849,2.6697 4.82511,3.5877 4.38551,9.0147 -0.18236,2.2512 0.46832,3 2.60673,3 2.30125,0 7.1394,-1.7807 9.04507,-3.3291 0.20385,-0.1656 -0.23131,-1.8843 -0.967,-3.8193 -1.28378,-3.3766 -1.15422,-3.5183 3.21733,-3.5183 2.50524,0 4.86789,-0.5063 5.25035,-1.1251 1.313,-2.1245 -1.95463,-10.7217 -4.366,-11.487 -3.28047,-1.0411 -6.81038,-7.6099 -4.50532,-8.3839 0.91666,-0.3077 1.66666,-2.5679 1.66666,-5.0224 0,-3.6129 0.57128,-4.5439 3,-4.8888 1.88487,-0.2677 3.70896,-2.0369 4.9073,-4.7595 1.81381,-4.1209 5.69396,-5.8025 7.3196,-3.1722 1.54025,2.4922 9.14958,2.9114 11.65696,0.6424 3.59112,-3.25 3.07542,-4.0351 -3.20356,-4.8772 -3.5269,-0.4731 -6.53575,-1.8484 -8,-3.6567 -3.0464,-3.7621 -3.05312,-13.0427 -0.0136,-18.8283 1.28333,-2.4426 2.43869,-4.6466 2.56745,-4.8977 0.1288,-0.2509 2.52877,-1.2452 5.33333,-2.2093 5.82458,-2.0024 6.66447,-4.8446 1.77288,-5.9994 -5.3574,-1.2646 -5.0093,-5.026 0.56187,-6.0712 4.32696,-0.8117 4.70765,-1.2493 4.41645,-5.076 -0.30056,-3.95 -0.0564,-4.1877 4.29896,-4.1877 4.42838,0 4.6606,-0.2459 5.6669,-6 1.14249,-6.5329 -0.2385,-12.2659 -3.93998,-16.356 -1.25885,-1.3909 -6.80136,-9.9668 -12.31668,-19.0572 -7.62472,-12.5673 -11.94502,-18.1553 -18.02785,-23.3177 -6.92213,-5.8748 -8.58796,-6.6978 -12.36389,-6.1082 -2.72554,0.4255 -6.47966,-0.2658 -9.99943,-1.8417 -5.01004,-2.2431 -5.96337,-2.3084 -8.5892,-0.5879 -4.07741,2.6716 -6.69307,2.4223 -8.419,-0.8026 -1.93299,-3.6119 -9.12192,-7.9115 -11.62311,-6.9516 -1.5227,0.5842 -1.7674,0.091 -1.05988,-2.1387 1.25374,-3.9501 -0.33128,-10.4453 -2.77809,-11.3843 -1.10164,-0.4226 -3.81361,0.1678 -6.0266,1.3122 -2.95715,1.5292 -3.77281,2.6752 -3.0774,4.3238 1.98013,4.6944 2.19179,8.3292 0.59691,10.2508 -2.31419,2.7886 -3.01034,2.5319 -5.63255,-2.0757 -1.26807,-2.2281 -4.16352,-4.6989 -6.43435,-5.4905 -2.94637,-1.0271 -3.71801,-1.8502 -2.69442,-2.8736 4.32522,-4.3254 -3.1222,-6.8786 -9.65331,-3.3096 -2.94936,1.6117 -16.37765,3.9565 -21.94984,3.8329 -2.01932,-0.045 -3.44735,1.0105 -4.26016,3.1484 -0.90157,2.3713 -1.93691,3.0291 -3.94257,2.5045 -1.49596,-0.3912 -3.7789,-0.2364 -5.07319,0.3442 -2.17267,0.9744 -8.77661,1.6654 -18.16436,1.9009 -3.09039,0.077 -3.68367,0.5829 -3.13728,2.6723 0.40196,1.537 -0.56036,4.013 -2.38512,6.1366 -3.8464,4.4764 -9.02992,3.6119 -11.92627,-1.989 -1.90651,-3.6868 -5.7208,-6.2728 -7.14765,-4.846 -0.38083,0.3809 0.005,2.2232 0.8575,4.0941 2.36928,5.2 1.88698,7.2141 -2.08961,8.726 -4.55109,1.7304 -5.6476,3.4321 -5.67339,8.8049 -0.0276,5.7635 2.13567,6.6856 5.97238,2.5458 3.71076,-4.0039 6.96729,-3.4184 8.19506,1.4733 0.5474,2.1811 1.17227,2.7616 1.82884,1.6992 0.61094,-0.9884 4.72682,-1.6905 10.6233,-1.812 8.36036,-0.1723 9.95907,-0.6097 12.15964,-3.3273 1.39355,-1.721 2.53371,-3.9626 2.53371,-4.9814 0,-3.1188 2.38902,-2.067 4.87876,2.1478 1.29957,2.2 2.97718,4 3.72804,4 3.43112,0 12.64514,-4.8782 13.1965,-6.9866 0.67138,-2.5673 4.19592,-3.1721 5.56612,-0.955 0.47308,0.7654 0.15684,2.2392 -0.70276,3.2749 -1.94944,2.3489 -0.63961,4.6667 2.63731,4.6667 1.36396,0 4.2604,1.0218 6.43653,2.2708 3.75062,2.1525 4.24235,2.1418 9.44446,-0.2039 5.23185,-2.3592 5.60818,-2.3657 8.06814,-0.1396 1.98198,1.7937 3.8046,2.1284 7.8601,1.4432 3.36065,-0.5677 5.61358,-0.352 6.19808,0.5937 1.42734,2.3096 -1.92027,5.3691 -5.87454,5.3691 -7.59692,0 -8.83653,5.184 -2.1789,9.1121 3.39334,2.0022 4.98196,4.1602 6.08902,8.2715 1.79804,6.6773 1.14656,8.8116 -3.30945,10.842 -4.93368,2.2479 -4.28797,5.1077 1.15327,5.1077 4.98414,0 7.65818,3.5552 4.48641,5.9648 -0.99076,0.7527 -2.60571,3.3415 -3.58877,5.7528 -2.0141,4.9404 -4.93696,6.9491 -10.11178,6.9491 -5.6472,0 -3.18286,3.0065 4.11315,5.0183 3.61733,0.9973 9.87697,2.2262 13.91031,2.7308 7.83088,0.9798 7.32337,0.3424 7.86861,9.8833 0.0723,1.2645 2.08139,3.2847 4.46472,4.4893 2.38333,1.2047 5.68363,3.425 7.33399,4.9339 2.64825,2.4216 2.78944,3.0688 1.2022,5.5108 -0.98915,1.5217 -2.56034,5.9629 -3.49151,9.8692 -0.93119,3.9063 -2.49935,7.4117 -3.48479,7.7899 -0.98544,0.3781 -2.1955,1.9821 -2.68902,3.5644 -0.49352,1.5822 -2.60047,4.8296 -4.6821,7.2162 -3.19105,3.6588 -3.58094,4.8756 -2.48545,7.757 1.39008,3.6562 0.39425,13.5585 -1.62149,16.1238 -0.8351,1.063 -2.51483,1.1827 -5.31664,0.3791 -3.88144,-1.1132 -3.9825,-1.0495 -1.93052,1.218 1.19093,1.316 2.16533,3.0816 2.16533,3.9236 0,0.842 1.43733,2.4727 3.19407,3.6237 1.75673,1.1511 3.50056,3.265 3.87517,4.6975 0.87633,3.3511 2.793,3.3132 5.10147,-0.1013 z m 14.49596,-18.6279 c -2.56667,-1.4052 -5.6432,-2.58 -6.83675,-2.6108 -1.19353,-0.031 -2.91418,-0.9525 -3.82366,-2.0484 -1.34792,-1.6241 -1.16939,-2.4252 0.96584,-4.3333 1.44069,-1.2875 3.42842,-4.9546 4.41717,-8.1492 1.94756,-6.2923 3.61337,-7.565 8.34695,-6.377 3.12194,0.7836 7.59712,8.2238 7.59712,12.6306 0,3.2441 -2.60687,5.5548 -6.26667,5.5548 -3.9232,0 -3.95848,3.0526 -0.0667,5.7674 4.20323,2.932 1.28024,2.6392 -4.33333,-0.4341 z m 15.66667,-23.5857 c -2.93722,-0.7676 -2.8825,-1.649 0.3427,-5.5188 1.42303,-1.7075 3.64618,-2.9006 4.94034,-2.6514 2.90077,0.5587 3.82808,4.5455 1.6638,7.1532 -1.62555,1.9587 -2.72632,2.1199 -6.94684,1.017 z m 34.35428,-77.7138 c -1.05122,-1.7008 1.1321,-2.7146 3.1545,-1.4648 1.33948,0.8279 1.26194,1.2336 -0.35429,1.8539 -1.138,0.4367 -2.39809,0.2616 -2.80021,-0.3891 z m -58.02095,-27.204 c 0,-1.0101 -0.92543,-2.6046 -2.05651,-3.5434 -1.50356,-1.2479 -1.65868,-2.0984 -0.5769,-3.1632 1.07338,-1.0567 2.00404,-0.746 3.38984,1.1316 2.19736,2.9772 2.54253,7.4118 0.5769,7.4118 -0.73333,0 -1.33333,-0.8265 -1.33333,-1.8368 z m 34.66667,-12.2061 c 0,-2.4161 5.4655,-4.8476 7.21016,-3.2076 1.68034,1.5795 -1.6105,5.2505 -4.70675,5.2505 -1.37688,0 -2.50341,-0.9193 -2.50341,-2.0429 z m -73.99056,-20.6084 c -0.46712,-0.7559 0.0681,-0.9795 1.25464,-0.5241 2.30989,0.8864 2.73252,1.8421 0.81461,1.8421 -0.69005,0 -1.62123,-0.5931 -2.06925,-1.318 z m 57.32389,174.6513 c -0.45323,-0.7333 -1.38864,-1.3333 -2.07869,-1.3333 -0.69006,0 -1.25464,0.6 -1.25464,1.3333 0,0.7334 0.93541,1.3334 2.07869,1.3334 1.14328,0 1.70787,-0.6 1.25464,-1.3334 z m -192.4334,-11.5444 c 1.56568,-1.4169 4.62421,-2.1781 8.51537,-2.1193 5.80757,0.088 6.05425,-0.063 5.66175,-3.4556 -0.38382,-3.3176 -0.7882,-3.5187 -6.24434,-3.1053 l -5.83396,0.442 0.65092,-4.435 c 0.92754,-6.3197 -2.12501,-10.449 -7.72433,-10.449 -2.43905,0 -4.90507,0.75 -5.48004,1.6666 -1.45221,2.3152 -0.59391,6.5559 1.89017,9.3388 1.69488,1.8987 1.79699,2.9766 0.54274,5.7294 -2.72238,5.9749 -1.85283,7.6628 4.35013,8.4438 0.67559,0.085 2.3278,-0.8402 3.67159,-2.0564 z m 38.86508,-30.1222 c 5.48502,-2.5184 4.3667,-7 -1.74675,-7 -4.77183,0 -6.50225,2.4116 -4.83955,6.7445 0.90286,2.3528 1.93143,2.3927 6.5863,0.2555 z m -14.45496,-4.9624 c 1.05461,-1.7063 -3.13656,-8.0376 -5.32075,-8.0376 -2.69917,0 -3.30356,3.4338 -1.14645,6.5136 2.0854,2.9773 5.12616,3.6938 6.4672,1.524 z m -23.61562,-10.9543 c -0.82293,-2.4688 -3.2817,-2.7487 -4.15498,-0.4731 -0.55304,1.4412 0.0293,2.0564 1.94684,2.0564 1.51934,0 2.50124,-0.704 2.20814,-1.5833 z m -15.70558,-2.3816 c 2.19829,-1.3897 2.23973,-1.338 -6.35376,-7.9349 -4.65592,-3.5742 -6.05832,-4.0755 -7.66667,-2.7406 -6.57263,5.4548 6.5154,15.4204 14.02043,10.6755 z m 26.47885,-20.1655 c 2.53448,-0.8836 4.19896,-2.381 4.19896,-3.7778 0,-3.5167 -1.04416,-3.9162 -6.40788,-2.4511 -9.46415,2.5851 -9.18988,2.3417 -5.77775,5.1251 3.71506,3.0304 2.81644,2.9061 7.98667,1.1038 z m -27.66264,-6.9312 c -1.71132,-1.7113 -3.44673,-0.3886 -2.17979,1.6614 0.49078,0.794 1.50314,1.0662 2.2497,0.6048 0.91066,-0.5628 0.88766,-1.3086 -0.0699,-2.2662 z m 14.52827,-6.2717 c 0,-2.6667 -0.66667,-4 -2,-4 -2.01808,0 -2.85648,5.3657 -1.11111,7.1111 1.91143,1.9114 3.11111,0.7117 3.11111,-3.1111 z m 21.18121,-0.7913 c 0.283,-0.253 0.67535,-3.4447 0.87187,-7.0927 0.19652,-3.648 1.31497,-7.9999 2.48544,-9.6711 2.98789,-4.2657 2.66266,-7.2553 -1.36344,-12.5338 -3.91008,-5.1264 -6.59876,-5.8274 -7.80266,-2.0343 -0.444,1.3989 -1.68442,2.8801 -2.75652,3.2915 -1.07208,0.4114 -1.94924,1.6669 -1.94924,2.7898 0,1.3475 -1.26969,2.0419 -3.73333,2.0419 -7.48864,0 -7.72496,4.6021 -0.6,11.6845 1.65,1.6402 3,4.236 3,5.7684 0,5.2324 8.05585,9.146 11.84788,5.7558 z m -37.47789,-1.2843 c 3.6722,-2.5721 3.76652,-4.7813 0.29668,-6.9483 -1.46667,-0.916 -2.66667,-2.8602 -2.66667,-4.3208 0,-3.3964 -3.48267,-3.4466 -5.28643,-0.076 -2.63204,4.918 -0.70814,13.421 3.03667,13.421 0.91103,0 2.98992,-0.934 4.61975,-2.0756 z m -3.70332,-21.9244 c 0,-0.7333 -0.6,-1.3333 -1.33334,-1.3333 -0.73333,0 -1.33333,0.6 -1.33333,1.3333 0,0.7333 0.6,1.3333 1.33333,1.3333 0.73334,0 1.33334,-0.6 1.33334,-1.3333 z m 46.4,-18.9333 c 2.32536,-2.3254 1.96421,-3.7334 -0.95762,-3.7334 -3.974,0 -6.77572,1.4374 -6.77572,3.476 0,2.2843 5.52262,2.468 7.73334,0.2574 z m 14.6,-7.887 c 3.86205,-1.4337 3.77801,-2.7172 -0.51175,-7.8153 -2.7796,-3.3033 -4.37797,-4.0891 -7.66667,-3.7689 -4.01862,0.3912 -4.16822,0.6365 -4.56049,7.4785 l -0.40559,7.074 5.07226,-0.9273 c 2.78973,-0.51 6.42224,-1.4284 8.07224,-2.041 z"
       id="path63"
       inkscape:connector-curvature="0" />
    <path
       style="fill:#2f3133;stroke-width:1.33333337"
       d="m 841.53455,2012.6915 c -35.07352,-4.3355 -37.13878,-4.7879 -49.71728,-10.8893 -10.69368,-5.1871 -20.16171,-11.1706 -49.37031,-31.2004 -12.92435,-8.863 -17.18332,-13.0394 -26.14204,-25.6355 -5.0278,-7.0692 -10.76736,-14.3531 -12.75456,-16.1864 -9.37004,-8.6445 -14.43119,-27.6288 -14.39623,-54 0.012,-9.5333 0.75887,-22.1333 1.6583,-28 2.18517,-14.2532 10.65008,-39.2167 19.63364,-57.9007 6.61929,-13.7668 8.437,-16.3142 18.87328,-26.4508 21.48529,-20.868 43.10213,-33.2884 69.20056,-39.7606 43.86849,-10.8792 67.30712,-9.1894 111.55049,8.0422 17.99506,7.0086 31.15399,15.7855 47.47335,31.6643 10.88963,10.5956 21.35945,25.1767 21.26421,29.614 -0.0489,2.2827 -0.96048,1.6979 -5,-3.2084 -15.07108,-18.3047 -29.32365,-30.6667 -35.35662,-30.6667 -2.59204,0 -2.62352,1.2376 -0.18308,7.1972 0.91666,2.2384 0.58789,2.4298 -2.84874,1.6576 -2.13673,-0.48 -5.98497,-1.2624 -8.55164,-1.7385 -2.56666,-0.4763 -5.94504,-2.1221 -7.5075,-3.6577 -1.56246,-1.5355 -4.41246,-3.8699 -6.33334,-5.1875 -2.03254,-1.3941 -3.49249,-3.6564 -3.49249,-5.4119 0,-4.7692 -2.84341,-7.1417 -9.58095,-7.9942 -6.02438,-0.7622 -6.34984,-0.6251 -9.10874,3.8389 -3.50542,5.6719 -5.31031,5.9019 -5.31031,0.6764 0,-4.6467 -3.23367,-6.8716 -9.65813,-6.6453 -2.38803,0.084 -5.58379,-0.2386 -7.10168,-0.717 -1.72063,-0.5425 -3.381,-0.1213 -4.40954,1.1178 -1.39312,1.6786 -1.20217,1.8708 1.22763,1.2353 2.29285,-0.5996 2.77845,-0.2397 2.39047,1.7716 -0.41128,2.1321 -1.8297,2.5656 -9.13448,2.7917 -4.75619,0.1474 -9.8476,0.3887 -11.31427,0.5364 -1.46667,0.1478 -3.56667,0.027 -4.66667,-0.2677 -1.42397,-0.3819 -2.12033,0.7117 -2.41781,3.7969 -0.46519,4.8247 -1.8028,5.245 -7.40127,2.3251 -5.40056,-2.8165 -9.82684,-2.5412 -10.84758,0.6749 -1.07154,3.3762 -4.14964,3.3784 -9.67886,0.013 -4.3368,-2.6442 -4.35085,-2.6442 -7,0 -1.45996,1.46 -3.23948,2.6545 -3.95448,2.6545 -0.74393,0 -0.94477,1.7761 -0.46952,4.1524 0.77632,3.8816 0.6496,4.0556 -1.94303,2.6681 -1.52544,-0.8164 -3.14485,-2.6542 -3.59869,-4.0842 -0.8466,-2.6674 -5.55696,-4.9792 -7.06751,-3.4687 -0.46444,0.4645 -1.16922,3.6692 -1.56618,7.1217 -0.59187,5.1479 -1.20155,6.2774 -3.3884,6.2774 -3.65331,0 -4.62238,1.7217 -4.64626,8.2546 -0.0269,7.3851 -1.99842,8.2692 -7.19909,3.2286 -5.14723,-4.9888 -7.28361,-5.4048 -4.28943,-0.8351 2.04239,3.1171 2.01178,3.4748 -0.51332,6 -1.47688,1.4768 -2.68524,4.3903 -2.68524,6.4741 0,3.2252 -0.74622,4.0126 -5.01548,5.2916 -2.75852,0.8266 -6.35852,1.1515 -8,0.7223 -3.33532,-0.8723 -3.85264,0.8433 -1.42604,4.7289 1.1993,1.9204 1.16951,3.4347 -0.1292,6.57 -1.58453,3.8255 -2.10317,4.0651 -8.48238,3.9198 -7.259,-0.1654 -11.61354,-2.6592 -11.61354,-6.6511 0,-2.5599 4.57063,-3.3499 6,-1.0371 1.63094,2.639 3.36632,1.2624 2.54318,-2.0173 -0.48007,-1.9128 -0.14087,-4.1941 0.79044,-5.3164 2.05317,-2.4739 0.79625,-5.9996 -2.13887,-5.9996 -1.22227,0 -3.79109,1.5067 -5.70852,3.3483 -1.91743,1.8414 -4.75919,4.5522 -6.31501,6.0238 -1.65026,1.5608 -3.72564,2.3315 -4.98147,1.8495 -1.53467,-0.5888 -2.54869,0.2656 -3.53207,2.9761 -0.75865,2.0914 -1.94009,5.0023 -2.62542,6.469 -4.6924,10.0421 -5.36276,13.5442 -5.20032,27.1672 0.15153,12.7085 0.4604,14.4062 3.00182,16.4994 l 2.83291,2.3334 -2.89624,2.3333 c -1.59295,1.2833 -3.59021,4.9729 -4.43839,8.1992 -1.2959,4.9295 -1.17288,6.8453 0.77059,12 1.272,3.3737 3.42776,7.5759 4.7906,9.338 1.97833,2.5579 2.30513,4.506 1.62103,9.6631 -0.85222,6.4242 -0.83112,6.4701 3.88993,8.4426 6.13737,2.5644 6.40228,3.1031 6.39687,13.0088 -0.007,11.835 0.53648,13.015 5.98846,13.015 3.6903,0 4.86262,0.6649 5.87715,3.3333 0.88341,2.3236 2.27288,3.3333 4.58676,3.3333 3.90617,0 6.07991,3.3788 6.07991,9.4506 0,6.3985 8.61809,13.9717 16.97074,14.9132 6.91696,0.7796 11.94668,-0.6362 14.50483,-4.0828 1.58275,-2.1326 1.81897,-2.1107 3.63104,0.3354 1.68147,2.2698 2.23329,2.3714 4.16669,0.7668 1.94712,-1.616 1.9763,-1.9906 0.23099,-2.9674 -1.41231,-0.7904 -1.78521,-2.4264 -1.27281,-5.5839 0.39861,-2.4564 0.0169,-5.7887 -0.84814,-7.4051 -1.2674,-2.3681 -1.16008,-3.5689 0.55263,-6.1829 1.16903,-1.7841 3.00361,-3.2439 4.07687,-3.2439 1.07325,0 2.84161,-2.1306 3.92968,-4.7348 1.70764,-4.0869 2.33164,-4.5456 4.56074,-3.3526 4.12002,2.2049 7.9348,-1.9815 8.42511,-9.2459 0.37323,-5.5297 0.16985,-5.9751 -2.59504,-5.6824 -1.65,0.1747 -3,-0.2753 -3,-1 0,-0.7247 -0.6,-1.3176 -1.33333,-1.3176 -0.73334,0 -1.33334,0.9 -1.33334,2 0,1.1 0.6,2 1.33334,2 2.2688,0 1.46793,6.1316 -1.10499,8.46 -2.755,2.4932 -8.98636,2.8663 -14.27709,0.8548 -3.51695,-1.3372 -3.54408,-1.5153 -1.12167,-7.3676 0.31557,-0.7624 -1.54199,-2.1512 -4.12791,-3.0863 -2.58592,-0.9352 -4.70168,-2.5153 -4.70168,-3.5116 0,-3.59 6.66848,-9.8448 10.94794,-10.2686 5.78481,-0.573 6.03853,-2.9852 0.82312,-7.8256 -4.15824,-3.8592 -4.90278,-4.0683 -11.8221,-3.3192 -6.90056,0.7469 -7.62766,0.5454 -11.09762,-3.0764 -2.0423,-2.1318 -6.06932,-4.9383 -8.94896,-6.2368 -5.39534,-2.433 -5.72351,-2.9716 -5.25387,-8.6227 0.37312,-4.4896 2.17876,-6.4273 6.44907,-6.9208 2.95473,-0.3415 3.68385,-1.2159 4.23576,-5.0792 0.58785,-4.1151 1.17457,-4.7157 4.96329,-5.0817 4.26452,-0.412 4.29064,-0.4588 3.49559,-6.2592 -1.09779,-8.0092 -0.0157,-10.5627 3.64552,-8.6032 3.18697,1.7056 9.22893,0.6574 9.22893,-1.601 0,-2.0038 -4.12076,-5.0265 -6.9244,-5.0792 -3.00692,-0.056 -6.28025,-4.913 -5.45035,-8.0866 0.43322,-1.6567 -0.77593,-3.9783 -3.48072,-6.683 -5.69658,-5.6966 -5.36466,-8.495 1.32507,-11.1717 3.21904,-1.288 5.75953,-3.2973 6.17427,-4.8832 0.93377,-3.5708 7.90065,-3.1423 7.29768,0.4488 -0.21548,1.2833 0.26993,2.3333 1.07869,2.3333 0.80876,0 1.15356,-0.5128 0.76621,-1.1394 -0.9643,-1.5603 5.36859,-7.3342 6.96326,-6.3486 0.70425,0.4352 1.59249,-0.4018 1.97388,-1.8602 1.01882,-3.896 4.85512,-3.2258 11.42372,1.996 4.75354,3.7788 6.28721,4.3685 8.40864,3.233 3.79209,-2.0294 4.46949,-5.0714 1.61129,-7.2357 -1.4681,-1.1117 -1.8074,-1.9111 -0.82177,-1.936 0.92335,-0.023 3.58476,1.7791 5.91427,4.0052 2.3295,2.2263 5.07312,3.7263 6.09692,3.3333 1.0238,-0.3928 2.11237,-0.7142 2.41906,-0.7142 0.30668,0 0.55762,-0.9 0.55762,-2 0,-2.3582 4.13584,-2.6642 6.33153,-0.4684 1.87563,1.8756 8.33513,-1.8575 8.33513,-4.817 0,-3.0814 2.41635,-3.6685 6.3306,-1.5384 2.01818,1.0984 5.95287,2.3666 8.74378,2.8182 2.79089,0.4514 6.249,1.9956 7.68465,3.4313 1.43567,1.4356 5.1522,3.6101 8.25897,4.8321 13.22891,5.2035 18.85792,10.6356 18.0642,17.4323 -0.32053,2.7448 -1.43686,3.8496 -4.88284,4.8321 -2.66948,0.7611 -5.06482,2.5851 -5.95205,4.5324 -1.27493,2.7982 -1.04672,3.6134 1.61501,5.7687 1.70488,1.3805 3.86911,2.51 4.80942,2.51 2.46489,0 3.54709,3.7664 1.94324,6.7632 -0.90768,1.6961 -2.83324,2.5892 -5.66188,2.626 -5.13823,0.067 -14.65927,4.7375 -11.61976,5.7 3.63633,1.1516 24.5817,4.8913 29.33333,5.2375 4.28084,0.3118 4.70323,0.7253 5.10893,5.0013 0.54046,5.696 1.92116,7.4563 8.46854,10.7965 4.87572,2.4875 6.7959,6.6634 3.88984,8.4594 -0.65966,0.4077 -1.92178,3.7525 -2.80471,7.433 -0.88295,3.6806 -2.67157,7.4387 -3.97471,8.3515 -1.30314,0.9128 -2.59601,2.8533 -2.87305,4.3123 -0.38459,2.0254 -1.76211,2.7548 -5.82593,3.0844 -2.92723,0.2376 -6.37224,1.3805 -7.65558,2.54 -2.55512,2.3086 -3.09533,6.4 -1.01482,7.6857 0.80433,0.4972 0.44818,2.1432 -0.91327,4.2211 -2.08829,3.1872 -2.08735,3.4869 0.0148,4.6633 1.23563,0.6916 2.22664,2.2775 2.20224,3.5244 -0.0368,1.8845 -0.46668,1.7608 -2.54705,-0.7329 -5.27443,-6.3226 -6.60035,-2.1139 -3.36054,10.6666 1.15727,4.5652 -1.19036,4.8387 -8.6907,1.0123 -9.23694,-4.7124 -12.97942,0.8676 -5.35735,7.9877 2.45979,2.2978 4,5.0708 4,7.2016 0,3.1538 -0.47927,3.4651 -5.33333,3.4651 -4.48744,0 -5.33334,-0.4335 -5.33334,-2.7328 0,-1.5029 -2.1,-4.8951 -4.66666,-7.5379 -2.56667,-2.6428 -4.66667,-5.313 -4.66667,-5.9338 0,-1.5859 -3.71812,-1.4034 -8.79272,0.4316 -3.62991,1.3126 -4.88047,1.1902 -7.87271,-0.7703 -1.95652,-1.282 -4.37253,-4.282 -5.3689,-6.6667 -0.99639,-2.3846 -2.67951,-5.056 -3.7403,-5.9364 -1.60649,-1.3333 -2.32152,-0.5082 -4.2802,4.9387 -2.76056,7.6768 -8.23589,11.8829 -12.49889,9.6013 -3.5918,-1.9222 -4.11295,-1.775 -4.11295,1.1618 0,1.4054 -1.57104,3.6998 -3.49121,5.0986 -3.14823,2.2934 -3.31412,2.8267 -1.68868,5.4295 1.55855,2.4956 1.46125,3.52 -0.71875,7.568 -2.09509,3.8904 -3.26101,4.6817 -6.89751,4.6817 -4.0873,0 -4.40353,0.3274 -4.79002,4.9582 -0.32003,3.8342 -1.26195,5.4209 -4.15578,7 -3.426,1.8694 -3.8887,1.8448 -5.48032,-0.2915 -0.9561,-1.2833 -2.20609,-2.3333 -2.77773,-2.3333 -1.86413,0 -4.58087,4.593 -4.62427,7.818 -0.0381,2.8385 0.38776,3.0706 4.29094,2.3382 14.17133,-2.659 13.93262,-2.674 16.35269,1.0195 1.35179,2.0631 3.52121,3.4909 5.30407,3.4909 1.6592,0 3.78882,0.9304 4.73252,2.0675 2.21455,2.6683 10.51727,2.0485 12.37837,-0.924 0.99176,-1.584 0.7759,-3.4188 -0.78034,-6.632 -1.54331,-3.1867 -1.75231,-4.9231 -0.73943,-6.1435 2.41681,-2.9121 5.14616,-1.8817 7.04341,2.6591 1.00204,2.3983 3.08162,5.5004 4.62127,6.8937 2.75439,2.4928 2.84064,2.4892 5.3686,-0.2242 1.41307,-1.5168 3.14793,-2.969 3.85523,-3.2272 1.79964,-0.6568 2.14882,-3.811 0.91158,-8.2343 -1.2886,-4.6071 1.04667,-10.4988 3.75011,-9.4613 2.29427,0.8804 3.96853,9.9929 2.16703,11.7945 -2.4798,2.4797 -1.2716,4.5671 3.56808,6.1644 4.46052,1.472 5.05381,1.3577 7.11168,-1.3704 2.90866,-3.8561 6.55248,-3.0884 9.35513,1.9711 2.69351,4.8624 4.94209,5.423 11.22401,2.7982 3.58283,-1.4969 5.02159,-3.0262 5.60863,-5.9614 0.43428,-2.1715 2.46359,-5.5518 4.50957,-7.512 3.61307,-3.4615 3.81967,-3.4987 7.18888,-1.2911 3.41814,2.2397 3.46891,2.224 3.46891,-1.0681 0,-1.8376 -1.18683,-5.9566 -2.63739,-9.1534 -3.31785,-7.3118 -3.51914,-14.2468 -0.44773,-15.4253 1.46404,-0.5619 2.74297,0.035 3.66667,1.7085 0.78014,1.4142 3.63097,4.6944 6.33516,7.2895 3.98481,3.824 5.09082,6.0308 5.83536,11.6435 0.50525,3.8088 1.75433,7.6186 2.77573,8.4662 1.24753,1.0355 1.59049,2.9623 1.04491,5.8707 -0.47944,2.5556 -0.21687,4.6972 0.64088,5.2273 3.25532,2.0119 0.96774,5.1084 -8.1141,10.9835 -10.85481,7.0219 -23.71181,11.5325 -38.88876,13.6435 -11.44381,1.5917 -13.52229,1.5937 -26.21073,0.025 z m 1.89095,-19.3876 c 2.46194,-0.9447 2.78596,-3.9483 0.57345,-5.3157 -0.84459,-0.5219 -2.34459,0.1573 -3.33333,1.5096 -3.07271,4.2021 -2.0277,5.6433 2.75988,3.8061 z m -43.98619,-46.6192 c 2.23093,-2.2309 2.7729,-4.5715 1.05858,-4.5715 -1.72957,0 -6.96334,4.0655 -6.96334,5.409 0,1.9797 3.59788,1.4693 5.90476,-0.8375 z m 58.23364,-12.9664 c -1.71132,-1.7113 -3.44673,-0.3887 -2.17979,1.6613 0.49078,0.794 1.50314,1.0663 2.2497,0.6048 0.91066,-0.5628 0.88766,-1.3085 -0.0699,-2.2661 z M 780.20121,1821.271 c 0,-2.0887 -6.17965,-4.9495 -8.11189,-3.7552 -2.25513,1.3937 -1.24929,4.673 1.77856,5.7985 3.65811,1.3599 6.33333,0.4967 6.33333,-2.0433 z m -19.93888,-52.377 c -1.51332,-2.8276 -4.06112,-3.7954 -4.06112,-1.5426 0,1.6076 4.1301,5.7429 4.93343,4.9396 0.33877,-0.3388 -0.0537,-1.8674 -0.87231,-3.397 z m 166.60555,210.5526 c 0,-2.2564 -1.19298,-5.193 -2.73685,-6.7368 -2.12815,-2.1283 -2.64711,-4.1067 -2.33333,-8.8959 0.53613,-8.1829 3.16236,-8.8459 4.32516,-1.0917 1.0129,6.7545 3.34718,7.8376 6.66942,3.0944 2.57832,-3.6811 2.66147,-5.5468 0.2052,-4.6043 -2.7667,1.0617 -5.76414,-1.8704 -6.73946,-6.5925 -0.7083,-3.4292 -0.39511,-4.2814 1.78288,-4.851 3.2182,-0.8416 7.87656,3.7087 8.59126,8.392 0.39862,2.6119 1.49984,3.446 5.38315,4.0772 2.68512,0.4364 5.24085,1.1524 5.67941,1.591 2.00651,2.0065 -14.86796,19.6176 -18.79705,19.6176 -1.36643,0 -2.02979,-1.3072 -2.02979,-4 z m -14,-26.6667 c -0.45322,-0.7333 -0.22404,-1.3333 0.5093,-1.3333 0.73333,0 1.70414,0.6 2.15737,1.3333 0.45323,0.7333 0.22404,1.3333 -0.50929,1.3333 -0.73334,0 -1.70415,-0.6 -2.15738,-1.3333 z m 6,-36.6039 c 0,-3.3117 3.00786,-8.7294 4.84644,-8.7294 2.11958,0 6.2535,7.5536 5.12936,9.3725 -1.3239,2.1421 -9.9758,1.5844 -9.9758,-0.6431 z m -194.73229,-13.4752 c -0.94902,-1.1434 -1.8264,-4.9476 -1.94976,-8.4534 l -0.22428,-6.3744 5.88436,3.4534 c 3.2364,1.8995 7.19033,4.1836 8.7865,5.076 3.82987,2.1411 3.67203,4.5759 -0.4312,6.6518 -4.56261,2.3082 -9.98852,2.1494 -12.06562,-0.3534 z m 216.73229,-1.9209 c 0.45323,-0.7333 1.08864,-1.3333 1.41203,-1.3333 0.32339,0 0.58797,0.6 0.58797,1.3333 0,0.7333 -0.63541,1.3333 -1.41202,1.3333 -0.77662,0 -1.0412,-0.6 -0.58798,-1.3333 z m 27.94808,-12.084 c -0.48178,-0.7796 0.0828,-2.4768 1.25464,-3.7717 2.68352,-2.9652 2.67732,-4.1172 -0.0328,-6.099 -4.83698,-3.5368 2.32486,-12.712 9.9226,-12.712 4.50626,0 4.57586,-0.085 3.82762,-4.6962 -0.84252,-5.1919 2.2259,-12.1524 5.8775,-13.3328 2.14538,-0.6935 5.20235,-6.0234 5.20235,-9.0703 0,-0.9024 0.95405,-3.0028 2.12013,-4.6676 2.99442,-4.2751 5.3567,-1.8425 7.2997,7.5171 1.1347,5.4658 1.191,10.2202 0.2042,17.2526 -1.5772,11.24 -6.59044,22.6003 -9.62403,21.8087 -1.1,-0.2871 -3.2,-0.3856 -4.66667,-0.2189 -4.46432,0.5073 -6.53441,0.3748 -9.66666,-0.6187 -2.26638,-0.7188 -3,-0.4244 -3,1.204 0,1.2665 1.09968,2.1555 2.66666,2.1555 1.95556,0 2.66667,0.8889 2.66667,3.3333 0,3.1059 -0.44969,3.3333 -6.58797,3.3333 -3.62339,0 -6.98218,-0.6378 -7.46395,-1.4173 z m -243.94808,-14.2111 c -5.23717,-0.7954 -7.33333,-2.6536 -7.33333,-6.5006 0,-3.7266 5.77462,-7.2043 11.96237,-7.2043 5.14161,0 7.65807,4.4617 5.75444,10.2029 -1.31089,3.9535 -3.20523,4.5924 -10.38348,3.502 z m 164.1106,-112.1926 c -0.57436,-0.9294 -0.68421,-2.0498 -0.24412,-2.4899 1.1933,-1.1933 2.49436,0.5617 1.84986,2.4952 -0.45163,1.3549 -0.7657,1.3539 -1.60574,0 z"
       id="path61"
       inkscape:connector-curvature="0" />
    <path
       style="fill:#0b0c0f;stroke-width:1.33333337"
       d="m 824.20122,1994.1132 c 0,-0.7333 0.63541,-1.3333 1.41202,-1.3333 0.77662,0 1.0412,0.6 0.58798,1.3333 -0.45323,0.7334 -1.08864,1.3334 -1.41203,1.3334 -0.32339,0 -0.58797,-0.6 -0.58797,-1.3334 z m -94.05483,-40.0886 c -0.48338,-0.7822 -0.55871,-1.7423 -0.1674,-2.1336 0.95509,-0.9551 3.55556,0.7278 3.55556,2.3009 0,1.704 -2.30188,1.5903 -3.38816,-0.1673 z m 99.92607,-42.219 c -2.12919,-2.1148 -8.27251,-6.2106 -13.65183,-9.1021 -8.40411,-4.5171 -10.61615,-6.5127 -15.71775,-14.1797 -3.26545,-4.9076 -7.94599,-10.1644 -10.40119,-11.6818 -4.89828,-3.0273 -6.44044,-6.4528 -4.48122,-9.9537 0.69881,-1.2487 0.93234,-3.1517 0.51897,-4.2289 -0.41339,-1.0774 0.20107,-4.3396 1.36544,-7.2498 1.16437,-2.91 1.75864,-6.2249 1.3206,-7.3665 -0.43805,-1.1415 0.36621,-3.6927 1.78725,-5.6693 2.11803,-2.9462 2.38664,-4.6232 1.49039,-9.3047 -0.94241,-4.9225 -0.72577,-5.9683 1.56968,-7.576 2.01792,-1.4135 2.44765,-2.7233 1.77401,-5.4073 -0.83986,-3.3462 -0.67425,-3.4948 2.99699,-2.6884 2.72141,0.5977 4.10165,0.2914 4.60568,-1.022 0.39583,-1.0316 2.84125,-2.2199 5.43427,-2.6407 2.593,-0.4208 6.69521,-1.6431 9.11601,-2.7164 17.54732,-7.7793 33.63919,-9.2708 50.74375,-4.7032 11.69956,3.1243 16.99104,6.5717 16.99104,11.07 0,2.5215 -1.05267,3.3433 -5.82003,4.5437 -7.1713,1.8058 -12.2492,5.6768 -11.16224,8.5095 0.43767,1.1405 3.85314,3.7377 7.58994,5.7715 3.7368,2.0338 6.57993,4.3441 6.31806,5.134 -0.26186,0.7898 -2.82728,1.8538 -5.70093,2.3645 -20.10789,3.5732 -23.2248,4.5333 -23.2248,7.1539 0,1.9929 3.60177,2.7318 19.07804,3.9142 5.72625,0.4375 12.02625,1.4394 14,2.2263 1.97375,0.7868 6.58863,1.5087 10.25529,1.604 6.62847,0.1723 6.6643,0.1969 6.25242,4.3199 -0.41183,4.1225 2.4781,7.6325 9.85404,11.9682 2.31293,1.3595 2.20393,1.7762 -1.78142,6.808 -2.33481,2.948 -4.83922,6.9226 -5.56538,8.8326 -1.0155,2.6709 -2.97226,3.9528 -8.47634,5.5529 -4.99066,1.4508 -8.0624,3.3061 -10.15124,6.1315 -3.47638,4.702 -6.91692,4.6552 -8.34373,-0.1134 l -0.99523,-3.3262 0.26495,3.5657 c 0.15376,2.0696 -0.96244,4.9775 -2.66004,6.9299 -4.791,5.5101 -10.85661,6.3592 -33.73136,4.7221 -1.1,-0.079 -3.25795,0.2609 -4.79543,0.7549 -2.04792,0.6579 -3.8306,-0.1306 -6.66666,-2.9469 z m 50.08473,-20.7085 c 1.45939,-2.5883 1.62223,-4.4229 0.64137,-7.2264 -1.166,-3.3328 -2.04866,-3.8043 -7.80865,-4.1715 -9.4978,-0.6054 -10.13816,1.1251 -3.30556,8.9331 3.21761,3.6769 6.4502,6.5161 7.18353,6.3095 0.73334,-0.2066 2.21352,-1.9367 3.28931,-3.8447 z m -22.78012,-7.2847 c 4.40005,-2.7586 1.57036,-4.3193 -7.87917,-4.3454 -7.72091,-0.021 -13.29668,2.5333 -13.29668,6.0924 0,1.6174 1.57825,1.8109 9,1.1028 4.95,-0.4722 10.42913,-1.7546 12.17585,-2.8498 z m 39.90365,-17.3658 c -0.24714,-1.2834 -1.63292,-2.3334 -3.0795,-2.3334 -1.44659,0 -2.83236,1.05 -3.07951,2.3334 -0.33657,1.7476 0.43639,2.3333 3.07951,2.3333 2.64312,0 3.41608,-0.5857 3.0795,-2.3333 z m -57.0795,-24.412 c 0,-2.7327 -3.24331,-3.5578 -4.70276,-1.1963 -1.06398,1.7216 1.89668,5.5185 3.5205,4.5149 0.65024,-0.4018 1.18226,-1.8953 1.18226,-3.3186 z m 22.4,-1.5214 c 2.32377,-2.3237 2.00164,-3.4086 -1.74002,-5.8602 -2.72774,-1.7874 -3.71354,-1.8786 -5.37774,-0.4974 -1.80354,1.4968 -1.69944,2.0514 0.90576,4.8244 3.36752,3.5846 4.00364,3.7416 6.212,1.5332 z m -94.40001,36.2667 c 0,-0.7333 0.56459,-1.3333 1.25464,-1.3333 0.69006,0 1.62547,0.6 2.0787,1.3333 0.45322,0.7333 -0.11134,1.3333 -1.25464,1.3333 -1.14328,0 -2.0787,-0.6 -2.0787,-1.3333 z m -3.19068,-10.1091 c -1.26532,-3.2973 -0.9668,-4.5576 1.07958,-4.5576 2.13508,0 3.3565,2.5043 2.4387,5 -0.8461,2.3008 -2.54772,2.0868 -3.51828,-0.4424 z"
       id="path59"
       inkscape:connector-curvature="0" />
  </g>
</svg>
