<?xml version="1.0" encoding="UTF-8" standalone="no"?>
<!-- Created with Inkscape (http://www.inkscape.org/) -->

<svg
   xmlns:dc="http://purl.org/dc/elements/1.1/"
   xmlns:cc="http://creativecommons.org/ns#"
   xmlns:rdf="http://www.w3.org/1999/02/22-rdf-syntax-ns#"
   xmlns:svg="http://www.w3.org/2000/svg"
   xmlns="http://www.w3.org/2000/svg"
   xmlns:sodipodi="http://sodipodi.sourceforge.net/DTD/sodipodi-0.dtd"
   xmlns:inkscape="http://www.inkscape.org/namespaces/inkscape"
   version="1.1"
   id="svg10"
   width="645.50867"
   height="387.13312"
   viewBox="0 0 645.50865 387.13312"
   sodipodi:docname="LeftEyeball.svg"
   inkscape:version="0.92.4 (5da689c313, 2019-01-14)">
  <metadata
     id="metadata16">
    <rdf:RDF>
      <cc:Work
         rdf:about="">
        <dc:format>image/svg+xml</dc:format>
        <dc:type
           rdf:resource="http://purl.org/dc/dcmitype/StillImage" />
        <dc:title></dc:title>
      </cc:Work>
    </rdf:RDF>
  </metadata>
  <defs
     id="defs14" />
  <sodipodi:namedview
     pagecolor="#ffffff"
     bordercolor="#666666"
     borderopacity="1"
     objecttolerance="10"
     gridtolerance="10"
     guidetolerance="10"
     inkscape:pageopacity="0"
     inkscape:pageshadow="2"
     inkscape:window-width="1920"
     inkscape:window-height="1017"
     id="namedview12"
     showgrid="false"
     inkscape:zoom="0.39552239"
     inkscape:cx="59.09974"
     inkscape:cy="127.47385"
     inkscape:window-x="-8"
     inkscape:window-y="-8"
     inkscape:window-maximized="1"
     inkscape:current-layer="svg10" />
  <g
     id="leftEyeball"
     transform="translate(-531.45701,-1657.5332)">
    <path
       style="fill:#a3b6c4;stroke-width:1.33333337"
       d="m 750.66668,2043.9587 c -3.3,-0.6711 -14.74248,-2.4407 -25.42772,-3.9326 -25.675,-3.5849 -45.66903,-9.2737 -61.3088,-17.4442 -6.92826,-3.6194 -23.69682,-12.038 -37.26348,-18.708 l -24.66667,-12.1274 -15.75957,-15.8686 c -10.37102,-10.443 -18.86819,-17.6843 -24.85116,-21.1786 -16.52074,-9.6486 -24.0638,-21.0298 -28.67119,-43.2601 -2.00441,-9.6711 -2.07447,-8.8555 3.18731,-37.1059 0.78537,-4.2166 2.00222,-10.9386 2.70412,-14.9377 0.7043,-4.0129 5.11276,-15.2155 9.83794,-25 4.70899,-9.7509 10.70764,-22.3841 13.33034,-28.074 9.78193,-21.2212 25.58668,-40.2925 68.63562,-82.8215 22.16675,-21.8989 29.93519,-27.878 46.26059,-35.6044 18.35535,-8.6872 48.95882,-16.0517 105.326,-25.346 21.65138,-3.57 29.88734,-4.2728 56.66667,-4.8353 19.31541,-0.4057 34.14604,-0.1187 38.66667,0.7475 4.03333,0.773 13.03333,2.5993 20,4.0582 6.96667,1.459 21.36667,3.6272 32,4.8183 22.75219,2.5488 31.33631,4.1935 62.99156,12.0692 28.98189,7.2105 41.33729,11.8764 56.26199,21.2464 19.9304,12.5127 59.4945,41.4253 74.7465,54.6231 8.0666,6.9802 18.2666,14.6106 22.6666,16.9565 9.4119,5.0179 20.9776,15.5367 25.3783,23.0811 1.717,2.9436 3.8393,9.2733 4.7162,14.0661 1.5525,8.4847 1.4514,9.204 -3.8407,27.3333 -2.9893,10.2406 -7.5968,27.2479 -10.2389,37.794 -5.5362,22.0987 -11.0784,39.9042 -16.5528,53.1796 -2.1101,5.1172 -4.2572,11.7932 -4.7712,14.8355 -0.615,3.6405 -2.9393,7.9925 -6.7993,12.7311 -5.3733,6.5962 -7.0674,7.6702 -20.2116,12.813 -7.8906,3.0874 -23.6466,8.7764 -35.0133,12.6423 -32.2995,10.9852 -52.2709,19.4079 -76.7315,32.3603 -22.51096,11.9201 -29.85894,15.0398 -41.6448,17.681 -8.63293,1.9348 -80.08481,10.4442 -100.29039,11.9439 -24.15112,1.7927 -102.29022,2.6959 -109.33333,1.2639 z"
       id="path34"
       inkscape:connector-curvature="0" />
    <path
       style="fill:#a9aeb7;stroke-width:1.33333337"
       d="m 762.66668,2044.0367 c -6.96667,-0.5692 -21.36667,-2.341 -32,-3.9372 -32.89447,-4.938 -52.14161,-10.813 -71.93751,-21.958 -7.00104,-3.9416 -22.26383,-11.8002 -33.91731,-17.4634 l -21.18814,-10.2968 -16.81186,-16.306 c -9.24652,-8.9684 -21.01185,-19.0232 -26.14518,-22.3441 -5.13334,-3.3211 -10.94031,-7.7691 -12.90439,-9.8847 -7.46407,-8.0398 -14.42895,-27.1242 -14.42895,-39.5365 0,-17.5184 11.7612,-63.1701 18.13927,-70.4085 1.01703,-1.1543 4.17303,-7.81 7.01335,-14.7907 9.06732,-22.2847 18.07633,-34.5161 46.48385,-63.1108 38.11989,-38.3711 54.41768,-53.7519 62.11631,-58.6216 16.26311,-10.2869 36.32797,-16.6659 79.58056,-25.2997 57.57699,-11.4932 98.17628,-13.4976 141.33334,-6.9778 12.83333,1.939 31.62332,4.4324 41.75552,5.5412 33.90885,3.7108 83.99946,16.0022 103.42836,25.3795 19.5615,9.4412 64.2141,40.5803 88.8161,61.9369 7.3334,6.3659 17.9034,14.6439 23.489,18.3954 13.698,9.2001 25.8836,22.8054 28.5065,31.8277 2.7216,9.362 2.6586,9.99 -2.6684,26.5899 -2.5701,8.009 -6.5245,22.0618 -8.7875,31.2285 -5.5841,22.6189 -12.518,46.21 -17.8313,60.6667 -2.4257,6.6 -4.7201,14.5482 -5.0986,17.6628 -0.8955,7.3681 -9.8609,18.349 -17.7379,21.7254 -3.0895,1.3244 -18.1143,6.7282 -33.3886,12.0086 -42.7771,14.7881 -67.053,24.6509 -92.1736,37.4482 -12.66305,6.4511 -26.91208,12.9302 -31.66449,14.398 -4.75241,1.4679 -23.79173,4.5084 -42.30959,6.7567 -18.51786,2.2484 -37.86884,4.7357 -43.00217,5.5276 -18.9582,2.9244 -96.60476,5.4819 -116.66667,3.8427 z m 246.80872,-78.1735 c 1.3069,-1.1777 1.8961,-3.2167 1.5112,-5.23 -0.5379,-2.8141 -1.3689,-3.2999 -5.6454,-3.2999 -5.98113,0 -7.60153,1.6562 -8.77,8.9632 l -0.87909,5.4976 5.82059,-2.0002 c 3.2014,-1.1002 6.7846,-2.869 7.9627,-3.9307 z m -116.8073,-61.1787 c 9.5341,-0.3 20.6746,-1.4154 24.75664,-2.4786 4.23852,-1.104 10.1188,-1.6292 13.70961,-1.2244 5.55859,0.6265 7.05536,0.1854 12.90745,-3.8031 3.64086,-2.4815 6.69588,-4.9617 6.78898,-5.5117 0.0931,-0.55 0.24424,-1.723 0.3359,-2.6066 0.0917,-0.8836 1.66667,-1.9574 3.5,-2.3865 2.7798,-0.6504 3.39944,-1.6715 3.73139,-6.1489 0.35405,-4.7756 0.90901,-5.5539 5.02072,-7.0407 5.314,-1.9216 4.94644,-3.6069 -1.15108,-5.2781 l -4.26769,-1.1696 5.33333,-1.0527 c 2.93333,-0.5789 6.77767,-1.9929 8.54296,-3.1421 2.17743,-1.4176 6.46537,-2.1052 13.33333,-2.138 5.56804,-0.027 10.82247,-0.4996 11.6765,-1.051 0.85402,-0.5513 1.81085,-0.2488 2.12628,0.6726 0.37025,1.0813 2.16928,0.124 5.07658,-2.7003 l 4.503,-4.3753 2.1625,2.8669 c 1.8507,2.4536 2.5898,2.6383 5.1263,1.2808 1.63,-0.8724 4.8737,-1.4519 7.2081,-1.2877 4.173,0.2933 11.5778,-2.335 11.5778,-4.1095 0,-1.304 6.3329,-4 9.3961,-4 3.9459,0 3.461,-5.8481 -0.6398,-7.7165 -2.5734,-1.1726 -4.7709,-0.9412 -10.6334,1.1193 -9.4478,3.3205 -19.6176,3.44 -22.4766,0.2639 -3.4098,-3.788 0.052,-10.2798 6.5618,-12.3054 2.8189,-0.877 9.3252,-3.2704 14.4586,-5.3185 12.412,-4.9521 30.8788,-6.6091 36.0314,-3.2329 2.3146,1.5166 5.7693,2.1924 10.3744,2.0294 5.6312,-0.1993 7.4595,-0.8906 9.9159,-3.7492 1.6564,-1.9277 3.0116,-4.0244 3.0116,-4.6594 0,-0.635 1.4067,-1.7955 3.1261,-2.5788 2.8065,-1.2788 3.0618,-2.0939 2.497,-7.9715 -0.417,-4.3405 -0.1225,-6.5471 0.8739,-6.5471 3.7702,0 0.213,-11.1057 -6.1469,-19.191 -2.8529,-3.627 -16.6784,-15.4756 -18.0575,-15.4756 -0.4239,0 -4.2631,-2.2803 -8.5317,-5.0671 -9.9313,-6.4841 -35.2098,-18.9329 -38.4452,-18.9329 -3.4754,0 -8.649,5.2256 -8.649,8.7358 0,1.6158 -0.9943,3.7611 -2.2096,4.7676 -1.2152,1.0064 -4.2152,6.013 -6.6666,11.1256 l -4.4572,9.2958 0.016,-7.2958 c 0.01,-4.0126 0.8525,-10.4386 1.8752,-14.2801 1.816,-6.8215 1.506,-16.2148 -0.6759,-20.4771 -0.5991,-1.1705 -3.9677,-3.1672 -7.48558,-4.4369 -3.51794,-1.2697 -7.59623,-2.8251 -9.0629,-3.456 -5.50558,-2.3688 -17.90957,-5.3123 -22.38613,-5.3123 -2.55331,0 -6.36096,-0.8962 -8.46145,-1.9917 -2.41571,-1.2599 -7.58432,-1.9948 -14.06562,-2 -5.6356,0 -11.9356,-0.6711 -14,-1.4812 -7.77294,-3.0503 -36.13816,-0.5537 -56.1008,4.9376 -0.92436,0.2544 -2.05728,0.4276 -2.51758,0.3849 -0.46032,-0.043 -1.20402,0.4739 -1.65268,1.1475 -0.91909,1.38 -15.30223,8.3363 -17.23658,8.3363 -0.68895,0 -2.02224,0.9273 -2.96285,2.0606 -0.94062,1.1334 -2.4551,1.7748 -3.3655,1.4255 -1.04206,-0.3999 -1.98145,1.1035 -2.53574,4.0581 -1.33807,7.1326 -3.6137,11.2724 -5.95278,10.8296 -1.24141,-0.2349 -2.24465,-2.0225 -2.46124,-4.3853 -0.73662,-8.0363 -1.61664,-9.9885 -4.50241,-9.9885 -3.90075,0 -11.38691,4.7318 -18.20012,11.504 -3.15415,3.135 -8.85415,7.1818 -12.66667,8.9929 -7.28125,3.4588 -9.86438,7.0021 -12.75996,17.5031 -1.03852,3.7662 -2.84696,6.2184 -6.1546,8.3456 -2.57617,1.6566 -4.70292,3.7566 -4.72609,4.6666 -0.0601,2.3615 -5.37436,7.993 -9.62665,10.2012 -1.9912,1.0342 -3.97074,2.9842 -4.39898,4.3334 -0.42822,1.3493 -1.62422,2.4532 -2.65774,2.4532 -1.03354,0 -4.28671,3.15 -7.22927,7 -2.94256,3.85 -6.65241,8.6197 -8.24413,10.5994 -6.36208,7.9131 -6.55007,9.5464 -1.46776,12.7535 2.80657,1.7711 3.56753,3.1756 3.24404,5.988 -0.25407,2.2087 0.27774,3.862 1.33333,4.1451 2.67879,0.7181 10.41149,2.9521 17.08929,4.9368 7.8056,2.32 12.93627,7.4385 10.83266,10.8069 -1.67831,2.6873 -1.9861,11.636 -0.47891,13.9239 0.53877,0.8178 2.47959,1.9486 4.31292,2.513 1.83333,0.5644 3.76503,1.6952 4.29265,2.5131 0.69536,1.0779 1.70424,1.0252 3.66667,-0.1911 2.30013,-1.4256 2.70735,-1.3508 2.70735,0.4967 0,1.8284 0.33445,1.8969 2.10162,0.4303 1.74175,-1.4455 2.30752,-1.4164 3.30414,0.1701 1.8892,3.0075 0.53376,13.0345 -2.16512,16.0167 -2.41219,2.6654 -2.39719,2.6845 1.07414,1.3646 3.1799,-1.2089 3.56072,-1.0181 3.93619,1.972 0.22863,1.8208 0.71569,3.1503 1.08236,2.9543 0.36667,-0.1959 2.83749,0.9855 5.49071,2.6252 5.93781,3.6699 7.3376,3.7233 8.22896,0.3148 0.99553,-3.8069 5.19425,-3.3083 9.64841,1.1459 3.69571,3.6957 3.89183,3.7386 6.39976,1.4021 2.65112,-2.4699 6.38095,-2.4111 14.76445,0.2329 2.12611,0.6704 6.32611,1.2612 9.33334,1.3128 3.00724,0.052 6.6677,0.6348 8.13437,1.2962 1.46667,0.6613 5.36667,0.8958 8.66667,0.5213 3.3,-0.3745 13.80064,-0.9265 23.33475,-1.2267 z"
       id="path32"
       inkscape:connector-curvature="0" />
    <path
       style="fill:#8d8b93;stroke-width:1.33333337"
       d="m 765.33335,2042.6812 c -30.66167,-2.4143 -62.55182,-8.5112 -81.33334,-15.5499 -4.76666,-1.7864 -15.86667,-7.3232 -24.66667,-12.304 -8.8,-4.9809 -22.9,-12.3673 -31.33333,-16.4144 -17.71892,-8.5032 -26.14836,-14.5094 -44.74561,-31.883 -7.37676,-6.8915 -18.05667,-15.7062 -23.73314,-19.5884 -11.70857,-8.0075 -16.82117,-14.8762 -20.90241,-28.0819 -3.45077,-11.1657 -3.30508,-19.1087 0.79485,-43.3344 2.71395,-16.0363 4.3312,-21.9497 7.88962,-28.8481 2.46174,-4.7724 7.82784,-15.5771 11.92462,-24.0104 10.9082,-22.4548 13.9098,-27.9026 19.6089,-35.5892 7.61064,-10.2648 41.40493,-44.0022 55.16317,-55.0702 6.6,-5.3094 17.4,-15.1817 24,-21.9382 16.82633,-17.2258 30.09366,-23.6892 68.30926,-33.2784 40.14465,-10.0734 63.6413,-12.86 108.3115,-12.8451 31.68086,0.013 45.44633,0.8931 84.10941,5.3928 28.4612,3.3124 38.58049,5.1371 66.6853,12.0251 39.43282,9.6642 47.51312,13.219 80.95702,35.6156 24.7103,16.5478 37.7142,26.3357 56.2942,42.3716 7.7,6.6457 17.719,14.9217 22.2645,18.3912 8.6601,6.61 14.1578,12.7046 22.4836,24.9248 5.9415,8.7205 6.1758,12.43 1.5299,24.2245 -1.8289,4.6432 -5.5617,17.7421 -8.2951,29.1088 -2.7333,11.3667 -6.3977,23.4551 -8.143,26.8632 -1.7453,3.408 -3.1732,8.0835 -3.1732,10.3899 0,2.3064 -2.642,12.1178 -5.871,21.8034 -7.5413,22.6203 -9.5652,29.5067 -9.9752,33.9396 -0.085,0.9146 -2.2611,3.9954 -4.8367,6.8463 -3.9584,4.3815 -7.3104,6.1141 -21.6667,11.1995 -9.3411,3.3088 -19.3838,6.757 -22.3171,7.6628 -2.9333,0.9057 -19.4333,6.8872 -36.6667,13.2922 -17.2333,6.405 -35.5333,13.0086 -40.6666,14.6747 -11.3445,3.6819 -17.62528,6.7612 -27.65754,13.5595 -15.5473,10.5357 -19.52196,11.5412 -73.27055,18.5369 -55.29486,7.1969 -110.69919,10.3047 -141.07196,7.9132 z m 116.19092,-30.0164 c 37.95871,-3.9695 59.41801,-7.3641 75.78224,-11.9876 9.15191,-2.5859 22.00047,-5.6316 28.55235,-6.7684 12.8025,-2.2212 15.97784,-3.5257 27.41024,-11.2605 4.0687,-2.7528 16.6976,-9.0423 28.0643,-13.9766 32.6301,-14.165 40.0887,-18.4128 48.195,-27.4476 3.9261,-4.3757 9.6299,-10.6617 12.6751,-13.9689 l 5.5368,-6.0131 -8.5368,-3.8708 c -4.6952,-2.1289 -8.5368,-4.2024 -8.5368,-4.6077 0,-0.4053 3.814,-2.4664 8.4756,-4.58 6.2705,-2.8432 9.7394,-5.4983 13.3333,-10.2051 2.6718,-3.499 4.8578,-7.1757 4.8578,-8.1702 0,-2.3044 -4.7885,-7.1416 -7.0696,-7.1416 -0.9548,0 -7.0224,-5.1687 -13.4834,-11.4859 l -11.7472,-11.4857 -12.5166,0.5474 c -7.1736,0.3138 -12.5166,0.021 -12.5166,-0.686 0,-0.6782 2.1,-3.5577 4.6667,-6.3988 2.5667,-2.8409 4.6667,-6.2514 4.6667,-7.5788 0,-3.1856 -5.9719,-8.5041 -12.9084,-11.4964 -7.667,-3.3073 -21.1236,-2.4908 -26.3204,1.5971 -2.0397,1.6043 -5.7924,3.308 -8.3394,3.7857 -9.008,1.6899 -9.0141,-4.9165 -0.01,-6.8896 2.3327,-0.5109 8.6923,-2.71 14.1325,-4.8868 7.4908,-2.9973 11.1137,-3.7624 14.928,-3.1525 2.7701,0.4429 6.4859,0.1451 8.2572,-0.662 3.3746,-1.5376 4.0332,-1.2935 15.7688,5.8451 2.6649,1.6209 7.1649,4.5096 10,6.419 2.8351,1.9096 6.5148,3.9032 8.1771,4.4303 3.9141,1.2412 8.2456,9.8187 9.2528,18.3228 0.7602,6.4187 1.0505,6.8191 6.7036,9.2421 3.2499,1.3932 8.8159,2.533 12.3687,2.533 h 6.4598 L 1127.0525,1863 c -0.7418,-7.5376 -3.1037,-14.05 -5.6708,-15.6367 -0.717,-0.443 -3.1513,0.1498 -5.4095,1.3176 -4.7377,2.4499 -8.8171,1.626 -9.9725,-2.0142 -0.4417,-1.3916 -1.9182,-2.8842 -3.2811,-3.3168 -1.363,-0.4326 -3.2307,-1.6934 -4.1506,-2.8018 -1.3596,-1.6381 -1.2699,-2.418 0.4793,-4.1672 1.8021,-1.802 2.4971,-1.8653 4.2753,-0.3896 2.931,2.4326 5.1206,4e-4 4.9638,-5.5134 -0.1013,-3.5634 1.162,-5.5471 7.2691,-11.4151 7.3908,-7.1015 7.3914,-7.1027 5.1164,-10.5748 -1.4766,-2.2536 -2.0038,-4.8299 -1.5019,-7.3393 0.6825,-3.4127 -0.3585,-5.0583 -8.8652,-14.0138 -13.8491,-14.5797 -27.6139,-25.1141 -50.704,-38.8045 -34.2764,-20.3228 -37.2306,-21.2351 -42.0911,-12.9971 -4.3887,7.4383 -5.1231,6.6894 -8.9448,-9.1225 -1.0798,-4.4677 -5.0782,-6.4209 -25.89854,-12.6508 -27.82797,-8.3267 -46.75534,-10.8805 -80.70164,-10.8888 -27.0053,0 -39.59661,1.8347 -48.39123,7.0761 -9.72756,5.7976 -12.69121,7.4688 -14.15098,7.9799 -0.72926,0.2552 -0.53527,2.9661 0.46888,6.5527 1.6659,5.95 0.98533,14.3868 -1.16056,14.3868 -0.58134,0 -1.4283,-2.3222 -1.88212,-5.1602 -0.45383,-2.8381 -1.76519,-5.9404 -2.91412,-6.8938 -1.14892,-0.9536 -2.91476,-3.7102 -3.92407,-6.1258 -2.76325,-6.6134 -6.49889,-6.84 -17.95761,-1.0893 -6.6563,3.3407 -12.73903,5.2731 -19.11988,6.0743 -5.1469,0.6462 -9.48614,1.3294 -9.64276,1.5182 -0.15663,0.1888 -1.27648,2.2932 -2.48858,4.6766 -1.21209,2.3833 -2.7059,4.3333 -3.31957,4.3333 -0.61365,0 -3.32936,1.7592 -6.03489,3.9092 -2.70554,2.1501 -6.6077,4.2801 -8.67148,4.7335 -2.06378,0.4532 -7.71667,4.0941 -12.56198,8.0906 -4.8453,3.9967 -9.99389,7.2667 -11.4413,7.2667 -1.44742,0 -5.45279,1.5 -8.9008,3.3333 -3.44803,1.8334 -8.0009,3.3334 -10.11747,3.3334 -4.07089,0 -8.92297,2.525 -14.42117,7.5046 -1.83334,1.6606 -6.14667,4.2631 -9.58518,5.7835 -3.479,1.5384 -6.6274,3.9479 -7.09858,5.4324 -0.4657,1.4672 -3.92306,4.2267 -7.683,6.132 -8.48565,4.3 -14.29991,8.5329 -14.29991,10.4108 0,0.7857 -1.2,2.178 -2.66667,3.0939 -1.46667,0.916 -2.66667,2.5552 -2.66667,3.6428 0,1.0876 -1.23408,2.7325 -2.7424,3.6553 -4.60004,2.8147 -8.14192,9.6799 -7.11168,13.7847 1.00656,4.0105 17.35543,20.8774 23.13106,23.8641 4.84409,2.5051 12.05636,10.8243 12.05636,13.9069 0,3.3774 -9.39753,15.8062 -12.66667,16.7524 -4.66247,1.3495 5.35174,4.8384 11.2024,3.9028 3.59323,-0.5745 5.40018,-0.2168 6.6775,1.3224 2.57282,3.1 0.74453,8.6039 -3.18575,9.5903 -5.89692,1.48 -5.60319,8.4632 0.35897,8.534 0.94588,0.013 4.07198,1.2204 6.94688,2.6871 2.87491,1.4666 6.24622,2.6666 7.49182,2.6666 1.24558,0 6.51949,2.0188 11.71978,4.4862 16.64723,7.8985 22.13919,10.1805 24.50135,10.1805 1.26955,0 5.12601,1.5 8.56992,3.3333 3.44391,1.8334 7.24841,3.3334 8.45444,3.3334 1.20604,0 3.81113,1.7324 5.78911,3.8498 1.97796,2.1175 4.76869,4.0692 6.20161,4.3372 1.43292,0.2682 3.64395,2.5858 4.91339,5.1502 1.26944,2.5645 3.58561,5.7125 5.14706,6.9956 2.16899,1.7822 3.09823,4.6142 3.93743,12 0.60415,5.3169 2.08199,12.0672 3.28411,15.0005 2.2461,5.4808 9.06082,12.6667 12.01245,12.6667 0.91361,0 3.38231,1.7318 5.48599,3.8485 9.25292,9.3101 30.86674,14.4461 34.94512,8.3037 1.02942,-1.5504 2.52421,-2.8189 3.32174,-2.8189 1.6287,0 12.89135,11.8505 12.89135,13.5643 0,1.5541 4.99599,1.3868 26.85759,-0.8995 z M 1008.0473,1752.412 c -0.026,-1.6067 0.5926,-3.3168 1.3748,-3.8001 2.2997,-1.4214 2.4893,-0.1754 0.5161,3.3901 -1.778,3.2127 -1.8454,3.2272 -1.8909,0.41 z"
       id="path30"
       inkscape:connector-curvature="0" />
    <path
       style="fill:#867d82;stroke-width:1.33333337"
       d="m 761.08339,2041.2645 c -31.23563,-2.7785 -64.06278,-9.7524 -80.06971,-17.0102 -4.63184,-2.1003 -14.10475,-7.1508 -21.05092,-11.2235 -6.94618,-4.0727 -20.01358,-11.0424 -29.03866,-15.4883 -19.39637,-9.5549 -29.51736,-16.5321 -44.51994,-30.6912 -6.08895,-5.7466 -16.30308,-14.1558 -22.69808,-18.6872 -13.0004,-9.2117 -16.73467,-13.4617 -21.70683,-24.7046 -4.81205,-10.8808 -5.23277,-16.3908 -2.75848,-36.1262 3.80291,-30.3325 5.43483,-35.8249 13.73819,-46.2376 2.15094,-2.6973 5.89544,-9.5973 8.32108,-15.3333 9.09028,-21.496 12.6611,-28.8427 16.95536,-34.8844 7.3726,-10.3728 45.50237,-47.8699 60.73341,-59.7256 7.87719,-6.1316 19.57719,-16.4 26,-22.8187 17.27042,-17.2592 30.05392,-22.7677 79.67787,-34.3338 25.84753,-6.0246 44.24929,-7.3938 99.46036,-7.4006 60.32831,-0.013 103.45674,5.6039 159.27426,20.7231 21.6137,5.8544 35.647,12.7101 61.9393,30.2592 24.9676,16.6649 38.5081,26.882 57.9415,43.7201 8.0949,7.0138 17.8934,15.3674 21.7745,18.5635 3.8812,3.1963 10.5304,10.6989 14.7759,16.6728 7.2918,10.26 7.7017,11.2521 7.4023,17.9157 -0.1743,3.8798 -0.9111,8.665 -1.6373,10.6336 -0.7262,1.9687 -2.6203,8.0794 -4.2091,13.5794 -1.5887,5.5 -4.0511,12.93 -5.4718,16.5112 -1.4208,3.581 -2.5832,7.2381 -2.5832,8.1266 0,1.8839 -5.0416,6.765 -5.9988,5.8079 -1.3459,-1.346 -3.0677,-14.1061 -3.0351,-22.4932 0.027,-6.9977 -0.8921,-10.9371 -4.6671,-20 -2.5855,-6.2072 -5.4734,-14.2607 -6.4176,-17.8964 -3.3219,-12.7925 -30.4803,-37.3261 -70.5481,-63.73 -37.4366,-24.67 -64.22468,-35.7944 -105.16386,-43.672 -32.44144,-6.2424 -100.94321,-8.6153 -106.46251,-3.688 -5.99609,5.3531 -18.98038,5.748 -25.7396,0.7829 -3.04542,-2.237 -4.36428,-2.3337 -13.85069,-1.0142 -5.76661,0.8021 -15.35195,2.8561 -21.30073,4.5646 -5.94878,1.7084 -19.126,5.28 -29.28272,7.9368 -10.15671,2.6567 -20.65671,5.9542 -23.33334,7.3276 -20.64682,10.5948 -21.52633,11.245 -21.55365,15.9327 -0.0379,6.4912 -1.73196,7.6344 -8.59353,5.7992 -9.80036,-2.6212 -15.30934,-1.9799 -23.55278,2.7417 -15.36485,8.8007 -20.61963,12.4258 -25.16661,17.362 -9.63854,10.4635 -21.13708,21.8228 -28.77334,28.425 -6.49312,5.6138 -9.24192,9.4402 -15.49565,21.5702 -6.71113,13.0171 -7.70487,15.9683 -8.47709,25.1755 -0.64794,7.7253 -1.71535,11.7393 -4.11636,15.4799 -4.572,7.1226 -5.93154,11.0533 -7.24614,20.95 -0.63317,4.7666 -1.5377,10.3166 -2.01009,12.3333 -0.78441,3.3488 -0.52663,3.6667 2.97384,3.6667 2.10799,0 6.71841,-1.5362 10.24537,-3.4138 5.92262,-3.1528 6.30252,-3.2078 4.97148,-0.7208 -1.99834,3.7339 -8.88653,8.7687 -16.40684,11.9923 -10.47113,4.4885 -6.63244,10.5665 5.64486,8.9379 4.81802,-0.6391 7.75328,-0.1754 12.67888,2.0036 7.91817,3.5025 17.3258,2.9821 22.71425,-1.2564 5.0808,-3.9966 5.95379,-3.6195 4.42655,1.9117 -2.33491,8.4564 -1.71667,8.7691 15.32529,7.7501 18.35923,-1.0976 23.10427,-0.323 29.58786,4.8294 3.81317,3.0304 6.36269,3.966 10.80713,3.966 4.80133,0 5.81667,0.4369 5.81667,2.5034 0,1.3768 -0.88119,3.2347 -1.9582,4.1286 -1.65298,1.3718 -0.98426,2.2805 4.29025,5.8298 5.3204,3.5803 6.71204,5.492 9.36977,12.8715 3.89678,10.8197 6.31415,18.8041 8.22647,27.1717 0.81767,3.5778 2.81831,8.2499 4.44585,10.3824 10.03971,13.1546 12.46346,15.2174 20.26115,17.244 2.21725,0.5763 7.63137,2.3367 12.03137,3.9119 20.17139,7.2217 35.46436,10.4841 53.54116,11.4217 17.83254,0.925 17.91619,0.9155 21.51383,-2.4061 1.98643,-1.8341 4.66168,-3.7039 5.94501,-4.1549 1.39168,-0.4894 2.33334,-2.1824 2.33334,-4.1955 0,-4.1821 2.06113,-4.37 4.116,-0.3752 3.45069,6.7084 8.19308,10.3333 13.5186,10.3333 6.03392,0 67.3912,-6.8085 96.86704,-10.7488 11.27589,-1.5073 21.32589,-2.4244 22.33333,-2.0377 3.44626,1.3224 1.8302,4.5816 -5.28645,10.6616 -12.39276,10.5875 -17.62313,11.9399 -74.88185,19.3621 -56.55801,7.3314 -103.79047,9.6406 -136.91663,6.694 z m 371.28941,-158.3662 c -7.6563,-3.1103 -9.0496,-4.6767 -6.2364,-7.0115 2.272,-1.8856 22.2456,-2.6159 23.9845,-0.8771 0.4483,0.4484 -0.8167,2.9546 -2.8111,5.5694 -4.0871,5.3585 -6.5243,5.7369 -14.937,2.3192 z M 1093,1859.8741 c -4.0942,-5.3513 -4.638,-7.8741 -1.6974,-7.8741 2.755,0 6.3233,5.8995 5.8003,9.5896 -0.4129,2.9128 -0.632,2.8212 -4.1029,-1.7155 z M 719.00001,1750.0115 c -4.16213,-4.4242 -5.6829,-8.6782 -3.1023,-8.6782 2.84764,0 9.43564,7.0648 9.43564,10.1186 0,4.299 -1.18786,4.0288 -6.33334,-1.4404 z"
       id="path28"
       inkscape:connector-curvature="0" />
    <path
       style="fill:#7b7b83;stroke-width:1.33333337"
       d="m 768.66668,2041.254 c -42.29327,-2.4329 -76.92,-10.9699 -100.29506,-24.7268 -6.83156,-4.0207 -21.2599,-11.7501 -32.06298,-17.1767 -23.2402,-11.6738 -31.79156,-17.4413 -52.29968,-35.2741 -8.43826,-7.3373 -19.19996,-16.2063 -23.9149,-19.7085 -9.85137,-7.3178 -15.66512,-15.1243 -19.36102,-25.9975 -2.52823,-7.4379 -2.53676,-8.2055 -0.34135,-30.7183 2.62757,-26.9442 4.7866,-35.3193 10.84408,-42.0649 5.02924,-5.6005 9.56989,-14.1417 15.50984,-29.1747 8.04455,-20.3593 12.34479,-26.3876 35.80225,-50.1892 13.84567,-14.0488 28.10334,-26.9716 38.11882,-34.5497 8.8,-6.6584 20.92998,-17.0859 26.95552,-23.1719 13.90996,-14.0497 26.83327,-20.6352 55.71115,-28.3888 31.4768,-8.4514 43.88901,-10.4056 74,-11.65 56.36996,-2.3296 96.17629,-0.9038 140.66667,5.0382 23.71437,3.1672 76.57258,16.6806 91.04938,23.2772 24.4974,11.1625 63.2482,38.3569 99.6726,69.9478 29.4467,25.5392 38.547,38.6714 35.8665,51.7572 -2.5211,12.3084 -6.2035,20.1834 -9.4379,20.1834 -1.0318,0 -3.5463,-2.55 -5.5877,-5.6667 -2.0415,-3.1167 -6.1067,-8.1848 -9.0338,-11.2625 -3.6514,-3.8392 -5.8798,-7.7723 -7.099,-12.5295 -1.465,-5.7159 -3.5616,-8.8027 -11.9369,-17.5737 -13.8151,-14.4679 -32.5777,-29.3442 -58.8265,-46.6415 -37.4366,-24.67 -64.22468,-35.7944 -105.16386,-43.672 -32.44144,-6.2424 -100.94321,-8.6153 -106.46251,-3.688 -6.0607,5.4108 -19.66613,5.7944 -25.27749,0.7128 -2.52588,-2.2875 -4.00099,-2.5053 -11.33333,-1.6733 -4.63622,0.526 -14.1295,2.44 -21.09616,4.2533 -6.96667,1.8132 -21.96667,5.6175 -33.33334,8.4539 -19.98878,4.9877 -42.08269,12.2497 -44.51977,14.6332 -0.65255,0.6381 -1.67837,4.2721 -2.27963,8.0756 -0.60125,3.8034 -1.37714,7.1993 -1.72421,7.5464 -0.34708,0.3472 -2.78176,-0.079 -5.41041,-0.9463 -8.10514,-2.6749 -15.58852,-1.9557 -22.89611,2.2005 -3.65324,2.0778 -9.8773,5.5778 -13.83124,7.7778 -3.95394,2.2 -11.51955,8.2821 -16.81246,13.5157 -5.29292,5.2336 -13.78085,12.8328 -18.86209,16.8871 -12.62531,10.0734 -19.10636,17.7814 -25.18003,29.947 -4.65277,9.3195 -5.15788,11.348 -5.22484,20.9835 -0.0777,11.1929 -0.94744,15.2489 -4.40258,20.5336 -1.1508,1.7601 -2.24476,3.8601 -2.43102,4.6667 -0.18625,0.8065 -1.51602,5.5013 -2.95506,10.4328 -1.43903,4.9316 -2.8086,11.5316 -3.04348,14.6666 -0.41818,5.5816 -0.33492,5.7091 3.99876,6.125 2.84932,0.2734 6.79418,-0.8136 11.07468,-3.0519 6.06925,-3.1735 6.52454,-3.2443 5.22293,-0.8123 -1.98684,3.7126 -8.89401,8.75 -16.42181,11.9768 -8.02586,3.4403 -10.33342,8.063 -5.11935,10.2552 1.91697,0.806 4.30865,2.4575 5.31483,3.6699 2.25165,2.7131 6.83622,2.9028 6.83622,0.2829 0,-3.5636 2.30654,-3.383 7.8219,0.6123 6.90685,5.0033 11.02353,4.9985 20.84477,-0.024 9.25233,-4.7319 9.14064,-4.7103 7.38024,-1.4209 -3.69111,6.8968 0.66156,11.1133 8.42527,8.1616 2.03578,-0.774 10.21888,-1.4074 18.18465,-1.4074 h 14.48323 l 3.35408,4.2858 c 3.05913,3.9088 4.00561,4.2857 10.76331,4.2857 4.96342,0 7.40922,0.5399 7.40922,1.6356 0,2.3727 -1.44825,2.9597 -9.69069,3.9285 -6.55293,0.7702 -8.31751,0.402 -15.66122,-3.2677 -9.766,-4.8801 -15.54254,-6.1637 -22.15509,-4.9232 -6.86048,1.2869 -4.16809,3.1799 7.65212,5.3796 5.42019,1.0088 15.24049,3.5516 21.82291,5.6508 13.19817,4.2089 11.99679,2.7509 15.12629,18.3583 0.73522,3.6666 2.04155,9.0666 2.90296,12 0.8614,2.9333 2.16768,9.8293 2.90283,15.3245 0.73515,5.4951 2.25197,12.3951 3.37073,15.3333 1.11876,2.9382 2.20171,7.2463 2.40655,9.5735 0.53423,6.0693 1.11384,6.6051 10.33709,9.5541 10.76743,3.4427 29.20056,5.1927 73.92735,7.0186 l 36.27517,1.4808 6.00542,-3.8091 c 3.30298,-2.0949 6.51192,-5.2573 7.13096,-7.0275 l 1.12554,-3.2184 2.69475,4.5518 c 5.3212,8.988 3.76292,8.9224 62.98654,2.6529 29.28541,-3.1003 54.9085,-5.4413 56.94018,-5.2023 4.99015,0.5868 5.33587,2.6486 1.25699,7.496 -7.33725,8.7199 -16.95675,11.3038 -65.35737,17.5559 -17.6,2.2735 -32.9,4.4039 -34.00001,4.7341 -3.25436,0.9775 -63.90913,4.6398 -73.33333,4.4279 -4.76667,-0.1067 -16.46667,-0.6437 -26,-1.1921 z m 365.25482,-161.8953 c -2.2402,-1.7092 -2.3193,-2.1546 -0.5881,-3.313 2.4852,-1.6629 5.4127,-1.7098 7.9142,-0.1266 1.5865,1.0038 1.6156,1.5712 0.1701,3.3129 -2.177,2.6231 -4.18,2.6571 -7.4962,0.1267 z M 719.00001,1750.0115 c -4.16213,-4.4242 -5.6829,-8.6782 -3.1023,-8.6782 2.84764,0 9.43564,7.0648 9.43564,10.1186 0,4.299 -1.18786,4.0288 -6.33334,-1.4404 z"
       id="path26"
       inkscape:connector-curvature="0" />
    <path
       style="fill:#857378;stroke-width:1.33333337"
       d="m 768.66668,2041.254 c -42.29327,-2.4329 -76.92,-10.9699 -100.29506,-24.7268 -6.83156,-4.0207 -21.2599,-11.7501 -32.06298,-17.1767 -23.2402,-11.6738 -31.79156,-17.4413 -52.29968,-35.2741 -8.43826,-7.3373 -19.19996,-16.2063 -23.9149,-19.7085 -9.85137,-7.3178 -15.66512,-15.1243 -19.36102,-25.9975 -2.52823,-7.4379 -2.53676,-8.2055 -0.34135,-30.7183 2.62757,-26.9442 4.7866,-35.3193 10.84408,-42.0649 5.02924,-5.6005 9.56989,-14.1417 15.50984,-29.1747 8.04455,-20.3593 12.34479,-26.3876 35.80225,-50.1892 13.84567,-14.0488 28.10334,-26.9716 38.11882,-34.5497 8.8,-6.6584 20.92998,-17.0859 26.95552,-23.1719 13.90996,-14.0497 26.83327,-20.6352 55.71115,-28.3888 31.4768,-8.4514 43.88901,-10.4056 74,-11.65 56.36996,-2.3296 96.17629,-0.9038 140.66667,5.0382 23.71437,3.1672 76.57258,16.6806 91.04938,23.2772 24.4974,11.1625 63.2482,38.3569 99.6726,69.9478 29.4467,25.5392 38.547,38.6714 35.8665,51.7572 -2.5068,12.2383 -6.2029,20.1834 -9.3896,20.1834 -2.5582,0 -8.166,-8.9551 -9.602,-15.3334 -2.2044,-9.7914 -9.5815,-25.4628 -13.9563,-29.6477 -18.4236,-17.6244 -76.4511,-58.8724 -102.3072,-72.7236 -16.2518,-8.7061 -48.9873,-18.7425 -76.66672,-23.5053 -30.52333,-5.2522 -91.09093,-7.2354 -106.66667,-3.4927 -6.42612,1.5441 -9.49285,1.6219 -15.58814,0.3953 -9.47216,-1.9062 -25.87498,0.06 -47.06026,5.6423 -8.07672,2.128 -21.88493,5.4616 -30.68493,7.4079 -24.42323,5.4017 -37.02061,9.392 -51.81683,16.4132 -7.43408,3.5277 -15.6165,7.2053 -18.18317,8.1724 -2.56667,0.9672 -6.46667,3.3592 -8.66667,5.3158 -2.2,1.9566 -6.7,5.5995 -10,8.0954 -3.3,2.4958 -12.00255,9.9872 -19.33899,16.6473 -7.33645,6.6601 -17.83645,15.4557 -23.33333,19.5459 -11.02015,8.1997 -15.51901,12.7172 -19.65217,19.7338 -3.68427,6.2546 -7.88167,21.3606 -8.88274,31.968 -0.44818,4.7492 -2.62444,14.0492 -4.83612,20.6667 -5.41524,16.2031 -6.39966,19.454 -7.08614,23.4009 -0.32228,1.853 -1.54998,5.6763 -2.72823,8.4963 -2.70644,6.4773 -2.71297,9.6829 -0.0228,11.1884 1.16571,0.6524 2.06571,1.5821 2,2.0663 -0.47928,3.5309 0.11973,9.8598 1.07607,11.3694 0.71014,1.121 4.16729,1.9668 8.97958,2.197 4.30368,0.2058 10.52488,1.128 13.82488,2.049 3.3,0.9211 10.13719,1.5694 15.19375,1.4404 6.51376,-0.1658 9.81743,0.3394 11.33333,1.7332 1.17678,1.082 3.48959,3.1952 5.13959,4.6959 1.65,1.5007 3.00067,3.7785 3.00148,5.0619 10e-4,2.0294 1.48757,2.3516 11.41081,2.4732 9.46863,0.116 12.07328,0.6308 15.3126,3.0257 3.9494,2.9199 9.25634,5.3305 13.71497,6.2301 6.13618,1.2379 7.32414,2.232 8.34496,6.9831 0.58549,2.7249 0.8936,6.9739 0.68468,9.4419 -0.25203,2.9773 0.10986,4.1846 1.07533,3.588 2.11269,-1.3058 1.78409,1.5484 -0.73521,6.3856 -4.25744,8.1746 -4.55882,8.9934 -3.7761,10.26 0.43479,0.7034 0.0779,1.279 -0.79326,1.279 -1.13322,0 -1.3278,1.9299 -0.68396,6.7834 0.71377,5.3806 0.54252,6.5601 -0.82823,5.7041 -4.53235,-2.8304 -4.86264,-1.1615 -0.55163,2.7873 2.65296,2.43 4.82356,5.0787 4.82356,5.8859 0,2.244 14.57123,9.1036 26.97123,12.6971 6.10249,1.7684 16.48044,3.6428 23.06211,4.1654 6.58166,0.5226 12.40194,1.2075 12.93396,1.522 0.53201,0.3144 18.7021,1.1794 40.378,1.922 l 39.41068,1.3503 5.91498,-3.7421 c 3.25323,-2.0582 6.28091,-4.8151 6.72816,-6.1267 0.6963,-2.042 1.56446,-1.6107 6.0389,3 3.41472,3.5185 6.40476,5.3847 8.62797,5.3847 1.87125,0 26.23456,-2.4334 54.14067,-5.4075 51.12507,-5.4487 58.51467,-5.8335 59.41249,-3.0937 0.80843,2.4669 -5.95469,9.4366 -11.9836,12.3498 -7.85456,3.7952 -19.37556,5.9988 -56.30221,10.7688 -17.6,2.2735 -32.9,4.4039 -34,4.7342 -3.25436,0.9774 -63.90914,4.6397 -73.33334,4.4278 -4.76666,-0.1066 -16.46666,-0.6437 -26,-1.1921 z m 365.34792,-161.7452 c -2.4085,-1.7611 -2.3925,-1.8795 0.4622,-3.4072 2.9003,-1.5521 8.1899,-0.8709 8.1899,1.0549 0,1.4878 -3.012,4.1768 -4.6785,4.1768 -0.8132,0 -2.6013,-0.821 -3.9736,-1.8245 z"
       id="path24"
       inkscape:connector-curvature="0" />
    <path
       style="fill:#67575b;stroke-width:1.33333337"
       d="m 755.33335,2039.1491 c -47.28052,-7.3736 -62.67856,-12.0247 -87.33334,-26.3799 -4.76667,-2.7755 -19.16667,-10.3268 -32,-16.7809 -25.87512,-13.0131 -38.23463,-21.1551 -52.45815,-34.5574 -5.24802,-4.9449 -13.24258,-11.4788 -17.7657,-14.5196 -9.2676,-6.2304 -15.85708,-13.7145 -20.86806,-23.7014 -4.21134,-8.3932 -4.48916,-11.372 -3.15936,-33.8766 1.55866,-26.3773 2.69002,-30.9037 9.69612,-38.7922 6.74455,-7.594 10.99618,-15.4643 16.67686,-30.8712 8.16628,-22.1482 12.17764,-28.0591 34.48414,-50.8144 20.60363,-21.0182 32.50211,-31.1844 52.5313,-44.8835 5.75876,-3.9388 15.26862,-11.8448 21.13304,-17.5691 12.01747,-11.7302 21.82549,-17.106 41.72981,-22.8722 25.88672,-7.4994 35.62726,-9.2968 52,-9.5958 8.8,-0.1608 22.6,-1.2501 30.66667,-2.4209 24.31281,-3.5287 82.21552,-2.9843 117.41074,1.1037 31.19918,3.6239 41.79873,5.6982 78.63725,15.3886 28.43363,7.4796 38.20113,11.7436 62.52413,27.2946 28.4822,18.2103 48.6524,33.8099 76.2939,59.0054 16.3628,14.9148 21.8007,22.5176 21.8007,30.48 0,7.6346 -1.0546,9.8804 -4.6396,9.8804 -2.8899,0 -6.8368,-3.8274 -17.2679,-16.7451 -9.8063,-12.144 -70.6924,-57.1013 -101.4259,-74.8912 -16.2482,-9.4052 -32.4077,-15.0724 -63.33332,-22.2112 -18.73772,-4.3253 -28.27609,-5.7215 -56.66666,-8.294 -25.62152,-2.3216 -62.83394,-1.9917 -71.15761,0.6308 -3.13778,0.9885 -6.44138,0.9967 -10.96424,0.027 -8.42313,-1.8064 -25.92708,0.2262 -47.21149,5.4828 -8.8,2.1733 -25.9,6.1081 -38,8.744 -23.396,5.0966 -39.36552,9.9665 -46.15737,14.0754 -2.28656,1.3832 -4.98656,2.5156 -6,2.5162 -3.5051,0 -17.85546,7.6624 -21.17597,11.304 -1.83333,2.0105 -7.69009,6.9477 -13.01501,10.9713 -5.32493,4.0236 -10.42493,8.3192 -11.33333,9.5457 -2.29643,3.1006 -24.36998,21.5552 -31.68218,26.4879 -8.01056,5.4037 -16.07517,14.3091 -19.6425,21.69 -2.7844,5.7611 -3.80738,9.5087 -9.46274,34.6667 -1.40121,6.2333 -5.06133,17.2056 -8.13361,24.3828 -4.08744,9.5486 -5.99583,16.2965 -7.11381,25.1537 -1.48774,11.7867 -1.45044,12.1671 1.42034,14.4917 2.64288,2.1402 2.86279,3.2044 2.12351,10.2776 l -0.82469,7.8902 6.74585,2.902 c 3.71023,1.5961 8.62407,2.902 10.91967,2.902 2.2956,0 5.32385,0.6154 6.72944,1.3677 1.98977,1.0649 3.66788,0.6519 7.57901,-1.8651 2.76287,-1.7781 7.32868,-4.0341 10.14627,-5.0133 4.57897,-1.5915 5.30237,-1.5351 6.81365,0.5317 0.92993,1.2718 3.27464,2.3123 5.21045,2.3123 4.08168,0 4.37459,1.4747 1.32,6.6456 -3.75093,6.3499 -0.66628,9.0931 9.26198,8.2371 5.2262,-0.4507 18.27104,8.9274 18.27104,13.1353 0,1.1167 -3.86598,2.6352 -14.86747,5.84 -4.14376,1.2071 -7.82943,2.9643 -8.19036,3.9048 -1.42003,3.7005 3.16225,10.0399 13.8634,19.1791 6.15693,5.2584 14.93647,13.1496 19.51007,17.5362 4.5736,4.3866 10.2736,9.0182 12.66667,10.2923 21.21774,11.2977 28.90165,13.2495 44.74094,11.3644 7.71712,-0.9185 18.31626,-0.9613 31.61008,-0.128 30.94564,1.9401 72.84978,1.6997 76.03666,-0.4361 1.4465,-0.9695 4.54329,-2.5271 6.88174,-3.4614 3.81079,-1.5224 4.56284,-1.4088 7.25142,1.096 3.67001,3.4192 9.07458,3.5303 39.16352,0.805 30.55304,-2.7672 45.81071,-2.6091 49.87728,0.5173 l 3.21061,2.4683 -3.36125,2.2024 c -4.66468,3.0564 -16.17817,5.2528 -57.05997,10.885 -33.57155,4.6252 -37.46078,4.8884 -78.00001,5.2787 -23.46666,0.226 -44.46666,0.1307 -46.66666,-0.2129 z"
       id="path22"
       inkscape:connector-curvature="0" />
  </g>
</svg>
