<?xml version="1.0" encoding="UTF-8" standalone="no"?>
<!-- Created with Inkscape (http://www.inkscape.org/) -->

<svg
   xmlns:dc="http://purl.org/dc/elements/1.1/"
   xmlns:cc="http://creativecommons.org/ns#"
   xmlns:rdf="http://www.w3.org/1999/02/22-rdf-syntax-ns#"
   xmlns:svg="http://www.w3.org/2000/svg"
   xmlns="http://www.w3.org/2000/svg"
   xmlns:sodipodi="http://sodipodi.sourceforge.net/DTD/sodipodi-0.dtd"
   xmlns:inkscape="http://www.inkscape.org/namespaces/inkscape"
   version="1.1"
   id="svg73"
   width="501.32584"
   height="301.68451"
   viewBox="0 0 501.32583 301.6845"
   sodipodi:docname="RightEyeball.svg"
   inkscape:version="0.92.4 (5da689c313, 2019-01-14)">
  <metadata
     id="metadata79">
    <rdf:RDF>
      <cc:Work
         rdf:about="">
        <dc:format>image/svg+xml</dc:format>
        <dc:type
           rdf:resource="http://purl.org/dc/dcmitype/StillImage" />
        <dc:title></dc:title>
      </cc:Work>
    </rdf:RDF>
  </metadata>
  <defs
     id="defs77" />
  <sodipodi:namedview
     pagecolor="#ffffff"
     bordercolor="#666666"
     borderopacity="1"
     objecttolerance="10"
     gridtolerance="10"
     guidetolerance="10"
     inkscape:pageopacity="0"
     inkscape:pageshadow="2"
     inkscape:window-width="1920"
     inkscape:window-height="1017"
     id="namedview75"
     showgrid="false"
     inkscape:zoom="1.2453522"
     inkscape:cx="213.85592"
     inkscape:cy="197.24666"
     inkscape:window-x="-8"
     inkscape:window-y="-8"
     inkscape:window-maximized="1"
     inkscape:current-layer="svg73" />

  <g
     id="rightIris"
     transform="translate(-860.34413,-1896.2134)">
    <path
       style="fill:#9c9fa6;stroke-width:1.33333337"
       d="m 1092.6784,2173.2599 c -8.6363,-1.7657 -35.4801,-11.7155 -42.2558,-15.6623 -3.4407,-2.0042 -12.8293,-9.2394 -20.8636,-16.0782 -10.7618,-9.1606 -16.8802,-15.655 -23.2384,-24.6667 -10.13881,-14.37 -11.14185,-16.2429 -18.23884,-34.0567 -7.71921,-19.3756 -8.15789,-22.1777 -5.94401,-37.9673 2.76808,-19.7423 6.49704,-31.9269 14.14152,-46.2084 16.86603,-31.5093 32.39293,-49.1755 54.15283,-61.6144 18.3266,-10.4761 28.7647,-13.1327 55.1002,-14.0235 32.337,-1.0937 50.6175,2.5728 78.2349,15.6916 10.7865,5.1238 15.7906,8.4851 23.1843,15.5735 12.3589,11.8485 32.5162,35.3791 35.5675,41.5196 5.3771,10.8211 7.5014,23.8333 7.3226,44.8532 -0.162,19.0468 -0.4051,20.7625 -5.1009,36 -2.7119,8.8 -5.7835,17.8 -6.8258,20 -3.4634,7.3104 -29.2216,38.5216 -39.9744,48.4368 -8.3632,7.7119 -13.9663,11.4396 -26.5954,17.694 l -16,7.9239 -16.6667,1.232 c -28.8848,2.1352 -40.5026,2.4768 -46,1.3529 z"
       id="path178"
       inkscape:connector-curvature="0" />
    <path
       style="fill:#6589ac;stroke-width:1.33333337"
       d="m 1090.6784,2168.8107 c -8.9801,-2.6347 -32.93,-11.2167 -36.344,-13.0232 -3.5663,-1.8871 -11.1978,-7.9176 -25.656,-20.2733 -6.906,-5.9019 -13.8884,-13.6599 -19.8048,-22.0048 -9.66241,-13.6284 -13.17307,-20.5448 -19.7396,-38.8891 -3.79952,-10.6143 -4.00895,-12.1792 -3.30121,-24.6667 1.40257,-24.7476 8.90056,-44.8402 26.88691,-72.0496 9.6854,-14.6518 26.4561,-30.3712 40.6567,-38.1078 19.3841,-10.5607 30.9276,-13.1759 58.1582,-13.1759 42.1545,0 74.541,11.76 98.0431,35.6008 19.5344,19.8157 28.8473,31.9573 31.7785,41.4308 7.3372,23.7125 6.6654,50.3975 -1.9441,77.2287 -4.4653,13.9157 -5.6104,15.9933 -16.903,30.6666 -21.8768,28.4263 -35.9867,40.6608 -58.8473,51.0264 -9.702,4.3991 -20.1887,5.8963 -50.9834,7.279 -11.2425,0.5048 -17.784,0.195 -22,-1.0419 z"
       id="path176"
       inkscape:connector-curvature="0" />
    <path
       style="fill:#587190;stroke-width:1.33333337"
       d="m 1091.3451,2168.6634 c -9.1251,-2.5092 -31.3776,-10.642 -36.8496,-13.4678 -5.4703,-2.8248 -29.3514,-22.4036 -35.9263,-29.4541 -12.0108,-12.8793 -20.63057,-27.8347 -28.56997,-49.5685 -4.78584,-13.1012 -4.99615,-14.3504 -4.2649,-25.3334 1.98806,-29.8589 15.09777,-60.0662 36.99297,-85.239 10.6483,-12.2422 19.1963,-19.1086 33.2845,-26.7366 14.926,-8.0814 26.686,-10.938 48.7688,-11.8462 30.6381,-1.26 51.3065,2.8832 77.1112,15.4577 15.0745,7.3457 16.8982,8.6704 28.12,20.4253 14.431,15.1168 25.8075,28.891 29.0496,35.1722 3.3506,6.4913 7.5732,27.5766 7.586,37.8806 0.019,15.5683 -2.3889,29.7262 -7.7558,45.5955 -5.0623,14.9688 -5.838,16.3081 -19.3055,33.3333 -27.8539,35.2119 -50.3889,50.2788 -79.2533,52.9888 -26.1103,2.4515 -42.0178,2.7087 -48.9877,0.7922 z m 40.1489,-146.8024 c -0.7064,-1.841 -1.2518,-1.7578 -4.3251,0.6597 -1.9342,1.5215 -4.2293,2.7663 -5.1001,2.7663 -2.0686,0 -8.7237,10.1944 -8.7237,13.3632 0,3.1729 4.0009,4.4106 8.6024,2.6612 4.6173,-1.7555 6.0643,-0.8142 6.0643,3.9452 0,2.0968 0.45,4.9113 1,6.2546 1.2057,2.945 3.6744,-26.5434 2.4822,-29.6502 z"
       id="path174"
       inkscape:connector-curvature="0" />
    <path
       style="fill:#4b5257;stroke-width:1.33333337"
       d="m 1094.6784,2168.026 c -8.9904,-1.8436 -39.378,-13.6389 -44,-17.0792 -2.5666,-1.9104 -6.8374,-5.3153 -9.4905,-7.5666 -2.6531,-2.2512 -8.5586,-7.0932 -13.1235,-10.7599 -9.0111,-7.2381 -25.0283,-28.534 -30.08505,-40 -8.47259,-19.2112 -10.61466,-27.5487 -10.44812,-40.6667 0.17488,-13.7762 4.6911,-33.9061 9.94221,-44.3148 16.50426,-32.7146 34.63356,-53.6193 57.24946,-66.0137 15.9643,-8.7489 28.0792,-11.8963 50.1257,-13.0219 29.055,-1.4836 50.3105,2.7764 75.8298,15.1978 14.6027,7.1078 17.008,8.8226 27.5425,19.6369 28.1588,28.9065 31.0762,33.8729 35.8611,61.0453 2.4529,13.9299 -0.3056,37.3739 -6.5783,55.9074 -2.9356,8.6737 -5.8814,16.4737 -6.5462,17.3333 -28.6274,37.0181 -40.9207,49.4663 -57.2292,57.9499 -6.0225,3.1329 -13.3779,6.5528 -16.3452,7.5997 -9.2371,3.2591 -53.5935,6.6209 -62.7047,4.7525 z m 36.6477,-103.739 c 1.2984,-3.2475 3.1565,-34.7156 2.3628,-40.0163 -0.3582,-2.3924 -1.2188,-4.7004 -1.9124,-5.1292 -1.8912,-1.1688 -14.5788,4.6008 -18.7647,8.5332 -5.1196,4.8093 -5.2556,13.0741 -0.2466,14.9787 1.8811,0.715 5.4169,1.3002 7.8574,1.3002 5.2618,0 5.7545,0.9579 6.9151,13.4452 0.8544,9.1942 2.0194,11.3123 3.7884,6.8882 z"
       id="path172"
       inkscape:connector-curvature="0" />
    <path
       style="fill:#3b4348;stroke-width:1.33333337"
       d="m 1085.3451,2162.5878 c -6.2333,-2.267 -15.0241,-5.2976 -19.5351,-6.7348 -6.2068,-1.9775 -11.5056,-5.283 -21.7843,-13.5895 -7.4703,-6.0371 -15.4289,-12.3337 -17.6857,-13.9925 -4.4441,-3.2664 -20.4971,-24.8342 -24.8828,-33.431 -2.81387,-5.5156 -5.08895,-11.433 -9.50663,-24.7268 -5.12056,-15.4086 -1.9417,-43.7088 6.87046,-61.1652 12.71147,-25.1806 28.87857,-46.4069 43.68447,-57.3544 9.5865,-7.0882 29.4031,-16.3072 40.589,-18.8822 13.6053,-3.1323 43.6727,-2.8174 60.9078,0.6377 28.6028,5.734 52.7208,18.4353 65.5126,34.5012 2.9647,3.7235 5.9318,6.77 6.5936,6.77 0.6617,0 2.6519,2.2949 4.4225,5.0999 1.7707,2.8049 5.4283,7.4418 8.128,10.3044 5.0431,5.3473 11.9928,19.6714 10.9113,22.4896 -0.3337,0.8697 0.1833,6.9308 1.1489,13.469 0.9657,6.5382 1.4528,12.3779 1.0825,12.9771 -0.3704,0.5992 -0.9444,6.3179 -1.2757,12.708 -0.3352,6.4667 -1.6874,14.5749 -3.0492,18.2853 -1.3458,3.6667 -3.8155,10.8667 -5.4882,16 -5.4694,16.7852 -35.4688,53.2219 -53.1618,64.5694 -17.3054,11.0989 -29.1108,14.0762 -60.815,15.3376 l -21.3334,0.8488 z m 20.4868,-42.731 c 3.3546,-2.6386 4.7779,-6.5698 2.3788,-6.5698 -0.6239,0 -3.0239,0.6586 -5.3333,1.4637 -3.1382,1.094 -4.199,2.2729 -4.199,4.6667 0,3.9489 2.4969,4.1024 7.1535,0.4394 z m 16.8465,-1.1466 c 0,-1.6308 -4.9233,-3.1674 -6.6765,-2.0838 -0.7518,0.4647 -1.0218,1.4034 -0.5999,2.086 0.9999,1.6179 7.2764,1.6159 7.2764,0 z m 40.1233,-10.0899 c -0.01,-0.7333 -1.2414,-1.5251 -2.7371,-1.7595 -2.6816,-0.42 -3.6077,1.0935 -1.7845,2.9167 1.2965,1.2965 4.543,0.4656 4.5216,-1.1572 z m -99.2194,-7.0043 c 0.1304,-2.7476 0.4304,-6.1126 0.6666,-7.4778 0.2434,-1.4063 -0.7131,-3.1402 -2.2064,-4 -1.4498,-0.8348 -3.3507,-2.417 -4.2243,-3.5158 -2.6151,-3.2893 -3.6838,-0.3644 -1.2333,3.3756 1.5222,2.3231 1.9872,4.7378 1.4146,7.345 -1.1156,5.079 0.2892,9.2784 3.1021,9.273 1.6602,0 2.3052,-1.303 2.4807,-5 z m 113.3658,-9.181 c 1.9558,-2.0968 4.4268,-3.148 7.4,-3.148 5.2252,0 7.6637,-1.994 7.6637,-6.2667 0,-2.3401 0.751,-3.0667 3.17,-3.0667 1.7436,0 3.917,0.9 4.83,2 2.3649,2.8496 6.658,2.473 10.2474,-0.899 4.0503,-3.8051 3.9084,-5.3582 -0.391,-4.2791 -3.2194,0.808 -3.364,0.6617 -1.9531,-1.9747 1.7466,-3.2633 2.6847,-3.4333 7.3126,-1.3246 2.7012,1.2306 3.9907,1.097 6.7295,-0.6975 3.8111,-2.4972 4.3151,-5.0624 1.4602,-7.4317 -1.3809,-1.146 -1.5942,-2.4774 -0.7518,-4.6928 0.6467,-1.7012 0.8287,-3.4403 0.4044,-3.8646 -0.4244,-0.4244 0,-1.7038 0.9478,-2.8432 2.0853,-2.5128 -0.1635,-8.6594 -3.1681,-8.6594 -2.1517,0 -3.9122,3.5952 -2.7116,5.5377 1.4761,2.3884 -3.5867,6.4812 -6.9677,5.6327 -2.1677,-0.5442 -3.3871,-0.1267 -3.9555,1.3548 -1.007,2.6241 -4.5365,2.8492 -4.5365,0.2892 0,-1.0188 1.1313,-3.2494 2.5139,-4.9568 2.0247,-2.5004 2.8891,-2.793 4.4427,-1.5036 1.5158,1.258 2.4765,1.1864 4.4862,-0.3342 2.4051,-1.82 2.2994,-1.9376 -1.7761,-1.9774 -4.5803,-0.045 -9.6667,-3.9258 -9.6667,-7.3758 0,-2.438 -3.4599,-2.6493 -4.9337,-0.3013 -0.5865,0.9343 -2.6336,2.694 -4.5493,3.9104 -2.7234,1.7295 -3.6777,3.6797 -4.376,8.9433 -0.9722,7.3287 -5.7116,17.8148 -10.7676,23.8236 -1.7601,2.0918 -3.5899,5.356 -4.0663,7.2539 -0.4763,1.8977 -2.2968,4.7947 -4.0455,6.4375 -1.7486,1.6428 -2.8474,3.5241 -2.4416,4.1806 1.1083,1.7934 6.131,-0.2086 9.4497,-3.7666 z m -43.5096,-37.361 c 2.5447,-24.2684 1.034,-39.0984 -3.7786,-37.094 -1.2731,0.5302 -5.3148,2.0808 -8.9815,3.4458 -9.1618,3.4105 -14.1989,9.1082 -13.1263,14.8478 1.1258,6.0244 2.2117,6.8462 10.1038,7.6462 7.9998,0.8108 8.6684,1.9748 8.8896,15.4782 0.073,4.4612 0.5472,8.5255 1.0536,9.0318 2.247,2.247 4.8206,-3.6392 5.8394,-13.3558 z m -82.1545,-33.3121 c 3.4731,-4.5487 4.7278,-7.5184 4.7278,-11.1907 0,-3.2136 0.7143,-5.273 2,-5.7664 3.4176,-1.3114 2.2074,-3.1821 -2.648,-4.093 -6.3048,-1.1828 -10.0187,1.0004 -10.0187,5.8892 0,2.1481 -0.9378,4.4116 -2.0965,5.0601 -2.2355,1.2509 -4.0986,10.7904 -2.7791,14.2289 1.4991,3.9067 5.9878,2.1932 10.8145,-4.1281 z m 154.0142,0.946 c 2.0066,-3.7495 1.7138,-5.1353 -1.2864,-6.0876 -3.2459,-1.0303 -3.6096,-7.9747 -0.6243,-11.9215 3.1951,-4.2244 2.5169,-6.118 -1.7091,-4.7716 -2.0166,0.6426 -7.1072,1.5534 -11.3123,2.024 -4.2051,0.4707 -8.025,1.4695 -8.4886,2.2198 -0.4637,0.7501 0.7984,4.6081 2.8046,8.5733 2.9329,5.7968 4.2937,7.2093 6.945,7.2093 1.8136,0 4.8229,1.2 6.6875,2.6667 4.219,3.3187 5.2475,3.3316 6.9836,0.088 z m -130.2159,-26.0255 c 3.5222,-1.8674 7.8722,-3.3954 9.6667,-3.3954 2.3275,0 3.2628,-0.7331 3.2628,-2.5576 0,-5.8556 -0.9984,-6.4244 -9.0615,-5.1626 -12.8232,2.007 -17.1514,7.159 -13.4734,16.0384 1.6162,3.9018 1.8286,4.019 2.4844,1.3696 0.4256,-1.7194 3.32,-4.277 7.121,-6.2924 z m 108.6628,3.0046 c 2.5994,-2.5995 1.8349,-5.0667 -1.5701,-5.0667 -3.5515,0 -6.8494,3.1443 -5.5327,5.2749 1.1607,1.878 5.133,1.7615 7.1028,-0.2082 z m -30.333,-16.5762 c 1.3247,-3.4844 0.6211,-8.4905 -1.1935,-8.4905 -4.4069,0 -8.8488,8.2469 -5.9846,11.1111 2.0853,2.0853 5.9214,0.6848 7.1781,-2.6206 z m -38.067,-5.8238 c -0.4532,-0.7334 -1.424,-1.3334 -2.1574,-1.3334 -0.7333,0 -0.9625,0.6 -0.5093,1.3334 0.4533,0.7333 1.4241,1.3333 2.1574,1.3333 0.7333,0 0.9625,-0.6 0.5093,-1.3333 z m -14.6949,-1.5631 c 3.8562,-1.7571 3.7773,-4.6501 -0.1101,-4.0403 -4.5851,0.7194 -5.8617,1.4951 -5.8617,3.5615 0,2.4492 1.4007,2.5615 5.9718,0.4788 z"
       id="path170"
       inkscape:connector-curvature="0" />
    <path
       style="fill:#333a43;stroke-width:1.33333337"
       d="m 1102.0118,2165.6928 c -5.7836,-0.7133 -22.3215,-5.9736 -24.6667,-7.8458 -1.1,-0.8782 -4.1,-2.0318 -6.6667,-2.5635 -2.5666,-0.5319 -6.5653,-1.7467 -8.886,-2.6995 -4.7664,-1.957 -29.7806,-21.4654 -29.7806,-23.2257 0,-0.6291 -1.7193,-1.7432 -3.8206,-2.4756 -6.1451,-2.1423 -21.4391,-23.3848 -28.30813,-39.3185 -7.81076,-18.1183 -8.874,-22.4104 -9.09903,-36.7316 -0.20936,-13.324 0.14863,-15.3775 6.09479,-34.9604 1.83086,-6.0296 8.09027,-16.9886 13.98007,-24.4763 1.6834,-2.14 4.3445,-6.64 5.9137,-10 3.4266,-7.3371 18.4092,-23.7933 26.8478,-29.4885 10.1005,-6.8167 25.7902,-14.1295 36.7396,-17.1238 8.4453,-2.3096 14.0956,-2.83 30.727,-2.83 22.3133,0 38.6871,2.6204 55.3617,8.8598 15.727,5.8848 36.5278,18.6694 38.2548,23.5122 0.4652,1.3046 3.6499,5.2079 7.077,8.674 8.0163,8.1075 13.5646,15.5511 13.5646,18.1984 0,1.2174 1.141,2.089 2.7347,2.089 1.9203,0 3.3225,1.4889 4.7085,5 1.0856,2.75 2.8712,6.62 3.968,8.6 1.6542,2.9864 1.7272,4.6908 0.4281,10 -0.8613,3.52 -1.7625,6.6349 -2.0027,6.9222 -0.6143,0.7347 -5.7384,-5.5806 -5.7922,-7.1388 -0.024,-0.7058 -1.6254,-2.544 -3.5577,-4.0846 -3.0683,-2.4467 -3.3123,-3.1772 -1.9262,-5.7672 1.599,-2.9878 0.8594,-8.1983 -1.1637,-8.1983 -0.5995,0 -2.0917,1.5287 -3.3159,3.3969 -2.073,3.1639 -9.4824,8.5868 -11.7476,8.5982 -1.804,0.013 -1.05,-4.8524 1.8262,-11.7734 2.9624,-7.1284 2.5891,-11.747 -0.8374,-10.3601 -1.0938,0.4428 -2.9236,1.1827 -4.0663,1.6441 -1.5704,0.6343 -2.0079,0.064 -1.7926,-2.3333 0.5441,-6.0592 -0.114,-11.0564 -1.2869,-9.7724 -1.9293,2.1121 -2.7914,9.4515 -1.2869,10.956 1.9973,1.9973 0.4158,3.9307 -5.8162,7.1101 l -5.4126,2.7612 0.8969,-4.7813 c 0.7966,-4.2459 0.517,-4.9544 -2.4969,-6.3276 -3.7342,-1.7015 -3.938,-2.1935 -2.1076,-5.088 0.8454,-1.3369 0.5968,-2.6861 -0.7741,-4.2011 -1.6837,-1.8604 -1.7631,-3.1841 -0.4773,-7.9592 1.3617,-5.0566 1.261,-5.9332 -0.8591,-7.4834 -1.3207,-0.9658 -2.923,-1.582 -3.5606,-1.3695 -2.4663,0.822 -7.2623,12.6336 -8.8527,21.8023 -0.5234,3.0173 -2.2591,7.1482 -3.8571,9.1798 -3.5037,4.4543 -3.7555,7.6167 -0.5721,7.1859 3.8086,-0.5156 10.8605,4.4967 11.7018,8.3171 0.4241,1.9262 2.2398,5.4928 4.0347,7.9257 1.7949,2.4329 3.2635,5.2068 3.2635,6.1644 0,0.9575 1.2298,1.7409 2.7329,1.7409 4.3794,0 10.6004,3.8367 10.6004,6.5376 0,1.3582 -0.9,3.2162 -2,4.1291 -1.1,0.9129 -2,2.4152 -2,3.3384 0,0.9231 -2.1,3.2801 -4.6666,5.2379 -4.0806,3.1124 -4.6667,4.2925 -4.6667,9.3964 0,3.7622 -0.8223,6.6592 -2.3136,8.1505 -2.4365,2.4364 -5.6323,10.3647 -5.6663,14.0568 -0.029,3.1603 -5.8912,6.7489 -7.8404,4.7997 -1.1285,-1.1285 -1.9366,-1.0881 -3.1797,0.159 -1.3341,1.3384 -1.0239,2.1576 1.5546,4.106 l 3.2213,2.434 -3.5546,3.5545 c -2.4787,2.4787 -3.5546,4.9489 -3.5546,8.1608 0,4.4463 -0.1762,4.606 -5.0785,4.606 -2.7932,0 -6.2432,0.8925 -7.6667,1.9833 -2.5519,1.9556 -2.5489,2.0163 0.2185,4.3334 1.5437,1.2925 3.1988,3.4622 3.6779,4.8217 0.5688,1.6135 1.6288,2.1809 3.0533,1.6343 3.2613,-1.2515 20.3634,4.5516 21.9055,7.4329 0.7244,1.3536 2.1556,2.4611 3.1804,2.4611 2.4687,0 3.846,-4.6204 2.2703,-7.6163 -0.6895,-1.3111 -1.6791,-5.5337 -2.199,-9.3837 -0.9982,-7.3919 -0.3464,-8.1851 4.6564,-5.6667 1.4567,0.7333 3.8955,1.9677 5.4197,2.7432 2.0029,1.0191 3.2966,0.9739 4.6666,-0.1632 2.8805,-2.3907 2.2734,-5.1691 -1.4378,-6.58 -4.2323,-1.6091 -4.3098,-5.0375 -0.1376,-6.0845 2.2209,-0.5575 4.8819,0.3137 8.7239,2.8562 5.4847,3.6296 5.5429,3.6372 7.4178,0.9604 2.8283,-4.0378 9.4807,-6.4862 11.9825,-4.41 2.4069,1.9976 1.4935,3.768 -2.7828,5.3938 -2.1792,0.8285 -3.2038,2.2625 -3.2038,4.4837 0,8.1605 -19.8916,31.2888 -27.0254,31.4228 -1.8065,0.033 -2.1738,0.7808 -1.5691,3.1903 1.297,5.1676 -11.9048,15.1308 -29.8252,22.5088 -6.9242,2.8506 -28.1091,6.0621 -40.7162,6.1721 -5.0247,0.044 -10.1247,0.3031 -11.3333,0.576 -1.2086,0.2729 -3.9974,0.2743 -6.1974,0 z m -30.0433,-32.3249 c 0.9202,-1.7196 0.9359,-2.8625 0.047,-3.412 -2.573,-1.5903 -1.2793,-3.1728 5.9964,-7.3356 4.8995,-2.8032 7.3333,-5.0483 7.3333,-6.7645 0,-3.0952 -0.1112,-3.0851 5.1285,-0.4712 4.9429,2.4658 5.055,3.1102 1.5432,8.8701 -1.464,2.4011 -2.664,5.4367 -2.6667,6.7459 0,2.08 0.3734,2.1672 2.995,0.6916 1.65,-0.9288 6.2663,-1.6999 10.2584,-1.7136 6.6306,-0.023 7.3278,-0.3132 8.0597,-3.3583 0.7318,-3.0443 1.4897,-3.3605 8.7416,-3.6468 13.2341,-0.5227 17.208,-1.8852 17.6955,-6.0673 0.478,-4.1003 -2.2634,-4.9204 -5.5296,-1.6543 -1.731,1.7309 -2.2194,1.5764 -4.1031,-1.2984 -1.7559,-2.6799 -2.8663,-3.1177 -6.2101,-2.4491 -2.3583,0.4718 -5.4364,0.084 -7.3141,-0.9206 -2.5241,-1.351 -3.9969,-1.3914 -6.6496,-0.1827 -4.1717,1.9007 -10.8314,2.0269 -11.9443,0.2264 -0.4507,-0.7295 -1.9778,-1.946 -3.3934,-2.7036 -2.0424,-1.0931 -3.0594,-0.7977 -4.9257,1.4305 -1.2936,1.5444 -5.0519,4.3851 -8.3519,6.3128 -6.3587,3.7143 -21.3334,16.2283 -21.3334,17.8278 0,0.9194 4.2353,1.8494 10.2864,2.2589 1.7071,0.116 3.537,-0.8912 4.337,-2.386 z m -29.2901,-13.4143 c 0,-0.7333 -0.2646,-1.3333 -0.5879,-1.3333 -0.3234,0 -0.9588,0.6 -1.4121,1.3333 -0.4532,0.7334 -0.1886,1.3334 0.588,1.3334 0.7766,0 1.412,-0.6 1.412,-1.3334 z m 29.444,-7.6333 c 0.4797,-2.3649 1.899,-5.8669 3.154,-7.7823 2.8987,-4.424 1.9107,-5.3948 -3.2961,-3.238 -5.6096,2.3236 -7.9182,0.1436 -4.8334,-4.5644 3.1139,-4.7524 2.8434,-5.7838 -3.0678,-11.695 -4.3474,-4.3474 -6.0336,-5.1922 -9.6666,-4.8431 -3.4244,0.3289 -4.4974,1.1047 -4.8364,3.4961 -0.2396,1.6904 0.2092,3.8506 0.9974,4.8003 2.0584,2.4803 -1.9632,10.1264 -5.3261,10.1264 -3.7529,0 -3.139,2.2345 0.8919,3.2463 1.9615,0.4922 4.2652,0.2009 5.3176,-0.6724 2.0076,-1.6662 2.2584,-1.2863 3.8022,5.7594 0.5469,2.4956 1.647,3.6667 3.4447,3.6667 1.7141,0 2.6413,0.8971 2.6413,2.5556 0,2.9567 1.981,4.0644 6.6192,3.7015 2.5506,-0.1995 3.4811,-1.2194 4.1581,-4.5571 z m -24.7773,0.9667 c 0.4532,-0.7334 -0.1113,-1.3334 -1.2546,-1.3334 -1.1433,0 -2.0787,0.6 -2.0787,1.3334 0,0.7333 0.5645,1.3333 1.2546,1.3333 0.6901,0 1.6255,-0.6 2.0787,-1.3333 z m -12.4037,-14.7112 c -0.2221,-0.9411 0.092,-2.0662 0.6974,-2.5 0.6057,-0.4339 2.2117,-2.5312 3.569,-4.6608 l 2.4678,-3.8719 -6.7291,0.7969 c -7.606,0.9008 -12.2681,4.1295 -12.2681,8.4962 0,2.4366 0.8792,3.0464 5,3.4677 6.4722,0.6617 7.7548,0.3565 7.263,-1.7281 z m 97.2736,-32.9555 c 3.2152,-8.0165 3.6878,-44.8867 0.6148,-47.9597 -1.4939,-1.4939 -18.6671,5.2058 -22.6048,8.8186 -3.3251,3.0508 -3.7085,4.1854 -3.1452,9.306 0.7649,6.9526 2.2736,8.1211 10.5199,8.148 3.4401,0.013 6.6185,0.6091 7.0632,1.3286 0.4446,0.7194 1.1692,6.4194 1.61,12.6666 0.5904,8.3652 1.2852,11.3586 2.6366,11.3586 1.0092,0 2.4967,-1.65 3.3055,-3.6667 z m -67.1255,-5.7667 c -0.2627,-0.7882 -1.0477,-1.4333 -1.7444,-1.4333 -0.6967,0 -1.4817,0.6451 -1.7444,1.4333 -0.2628,0.7884 0.5222,1.4334 1.7444,1.4334 1.2222,0 2.0072,-0.645 1.7444,-1.4334 z m -11.7879,-37.3242 c 6.5097,-8.9392 9.4253,-11.0568 15.3768,-11.1678 3.7327,-0.069 3.9782,-0.3865 3.6731,-4.7413 -0.2866,-4.0923 0.2878,-5.0561 4.6667,-7.8303 4.2512,-2.6933 5.5677,-2.9473 8.8556,-1.7086 4.5399,1.7101 5.8564,1.1196 7.5738,-3.3974 1.2389,-3.2586 1.359,-3.2864 4.7121,-1.0894 3.2967,2.1601 3.5543,2.1325 6.1544,-0.6583 1.9781,-2.1232 3.6979,-2.716 6.3446,-2.1867 3.9533,0.7907 6.8625,-1.119 5.8246,-3.8236 -1.0666,-2.7796 2.4294,-3.946 4.2724,-1.4256 1.2935,1.7691 2.7588,2.0839 6.4644,1.3887 3.8894,-0.7296 4.7917,-0.4944 4.7917,1.2495 0,1.4028 1.1569,2.1484 3.3333,2.1484 3.3494,0 4.648,-3.0302 2,-4.6667 -0.7333,-0.4532 -1.3333,-2.2887 -1.3333,-4.0787 0,-2.2817 -0.7399,-3.2546 -2.475,-3.2546 -1.3612,0 -5.2208,-2.0967 -8.5768,-4.6592 -6.296,-4.8074 -11.7683,-5.7024 -14.5287,-2.3764 -2.2148,2.6686 -3.5394,2.0177 -3.9976,-1.9644 -0.651,-5.6575 -5.6215,-4.1695 -14.564,4.3602 -5.1225,4.8862 -8.7709,7.3064 -11.0136,7.3064 -1.8445,0 -3.7244,0.6 -4.1777,1.3334 -0.4532,0.7333 -2.0479,1.3333 -3.5438,1.3333 -1.4959,0 -4.6105,0.8357 -6.9213,1.8572 -2.3109,1.0216 -5.3042,2.2229 -6.6518,2.6697 -1.3477,0.447 -3.1159,2.5758 -3.9293,4.7308 -1.6566,4.3888 -6.7696,6.4416 -9.7934,3.932 -1.4963,-1.2418 -2.68,-1.1838 -5.3847,0.2636 -3.1773,1.7006 -3.6324,1.606 -5.4505,-1.1322 -2.3613,-3.5564 -5.6667,-3.94 -5.6384,-0.6544 0.034,3.9018 3.1381,11.5204 6.3627,15.6141 1.7526,2.2249 2.6967,4.7604 2.2199,5.962 -1.9105,4.8144 -2.1995,10.8331 -0.6121,12.7459 0.9181,1.1062 3.5603,2.0113 5.8716,2.0113 3.6052,0 5.0395,-1.1496 10.0943,-8.0909 z m -38.9768,5.2445 c 1.8351,-1.8351 -1.5637,-7.8203 -4.441,-7.8203 -2.0473,0 -3.9254,5.7563 -2.5855,7.9243 1.1484,1.8581 5.1232,1.7993 7.0265,-0.104 z m 139.3195,-35.4869 c 3.8605,-4.403 6.6089,-11.1022 5.2359,-12.7624 -0.7145,-0.864 -1.5022,-3.371 -1.7504,-5.571 -0.4028,-3.57 -0.8814,-3.9546 -4.4514,-3.5781 -5.0229,0.5296 -12.6666,7.6972 -12.6666,11.8776 0,3.128 7.4053,12.1048 10.1266,12.2756 0.8031,0.051 2.3807,-0.9584 3.5059,-2.2417 z m 53.6648,39.6084 c -1.418,-2.2944 4.2734,-7.571 6.1462,-5.6982 0.8103,0.8103 1.2608,2.587 1.0012,3.9482 -0.5373,2.8174 -5.7056,4.0829 -7.1474,1.75 z"
       id="path168"
       inkscape:connector-curvature="0" />
    <path
       style="fill:#262c32;stroke-width:1.33333337"
       d="m 1097.8926,2163.3304 c -8.9424,-2.1896 -17.8808,-6.1926 -17.8808,-8.0077 0,-0.7981 -1.9347,-2.1813 -4.2992,-3.0739 l -4.2992,-1.6228 2.8931,-2.893 c 2.1625,-2.1626 3.3334,-2.5279 4.6363,-1.4466 1.2732,1.0567 2.44,0.9372 4.3276,-0.443 1.4214,-1.0394 3.6697,-1.8898 4.9962,-1.8898 1.3265,0 2.4318,-0.45 2.4562,-1 0.024,-0.55 1.1914,-2.3757 2.5933,-4.057 2.1019,-2.521 2.9792,-2.7884 5.0022,-1.5251 3.3982,2.1221 14.7434,-3.1577 15.7959,-7.3512 0.6717,-2.6765 1.5028,-2.9396 8.6602,-2.74 8.4087,0.2345 13.5511,3.3041 15.9559,9.5244 0.9697,2.5083 1.8743,2.7716 7.5252,2.19 3.5326,-0.3636 8.0156,-0.7465 9.9623,-0.8511 1.9466,-0.104 3.2401,-0.6741 2.8745,-1.2657 -1.3335,-2.1576 0.9714,-7.3183 4.2188,-9.446 3.9533,-2.5903 13.816,-1.5979 15.0087,1.5103 0.4103,1.0693 2.1589,3.3572 3.8857,5.084 1.7268,1.7268 3.1396,4.2664 3.1396,5.6437 0,5.8925 -22.0742,18.6817 -35.214,20.402 -4.4656,0.5847 -11.5878,1.7084 -15.8271,2.4973 -5.2084,0.9692 -8.5203,0.9994 -10.2138,0.093 -1.8027,-0.9648 -3.5686,-0.7871 -6.2922,0.6334 -4.4512,2.3216 -10.5229,2.3322 -19.9054,0.035 z m 27.9762,-20.4788 c 1.1188,-1.8102 -0.7465,-7.046 -2.3231,-6.5204 -1.199,0.3996 -1.7039,3.8578 -1.0154,6.9558 0.2385,1.0733 2.5961,0.7658 3.3385,-0.4354 z m -69.0254,4.4099 c -2.8604,-2.8605 -2.7492,-3.6275 1.0426,-7.1897 2.6388,-2.4791 3.6972,-2.7512 5.9694,-1.5352 3.3756,1.8066 5.6246,5.7222 4.3967,7.6548 -1.7257,2.7157 -9.0738,3.4049 -11.4087,1.0701 z m 22.588,-20.5015 c -0.4057,-0.6565 0.2448,-1.5706 1.4455,-2.0314 2.5958,-0.996 3.7453,-0.1747 2.523,1.803 -1.0716,1.7338 -2.9705,1.8431 -3.9685,0.2284 z m -60.2309,-10.3269 c -2.8538,-4.1363 -6.1364,-9.3051 -7.2946,-11.4863 -1.1582,-2.1813 -3.1082,-4.5268 -4.3333,-5.2124 -1.434,-0.8025 -2.2275,-2.9465 -2.2275,-6.0186 0,-3.3355 -1.5351,-7.0283 -5.0994,-12.2671 -2.80474,-4.1223 -5.79139,-9.4963 -6.63705,-11.9423 -2.21018,-6.3926 0.59003,-12.4508 7.26075,-15.7082 4.7386,-2.314 5.1737,-2.995 5.5417,-8.6718 0.3534,-5.4528 0.05,-6.2518 -2.6368,-6.9545 -1.7579,-0.4597 -4.37169,0.081 -6.20851,1.2847 -5.14572,3.3716 -6.54435,0.5406 -3.87494,-7.8434 1.22459,-3.8461 2.61644,-8.4929 3.09302,-10.3262 2.47128,-9.5068 6.23483,-15.8578 10.22063,-17.2472 5.5937,-1.95 6.3406,-1.8111 6.3406,1.1793 0,1.4293 -2.0615,4.1712 -4.5812,6.0931 -2.8189,2.15 -4.9208,5.1253 -5.4642,7.7345 -0.4857,2.3321 -1.7275,5.5743 -2.7596,7.2047 -1.70065,2.6866 -1.59467,3.1432 1.1309,4.8718 1.6541,1.0491 5.4074,2.2915 8.3408,2.7607 4.4261,0.7081 6.1144,0.2764 9.9257,-2.5385 5.5099,-4.0695 12.0539,-4.431 15.2991,-0.845 1.2676,1.4007 3.7606,2.9122 5.54,3.3587 4.5805,1.1496 4.4669,6.0945 -0.14,6.0945 -3.9122,0 -4.2519,0.7451 -4.9624,10.883 -0.5198,7.4172 -0.4631,7.5592 3.2376,8.1024 4.1232,0.6052 4.605,-0.3459 2.1591,-4.2622 -1.3123,-2.1013 -1.1899,-3.0354 0.6667,-5.0869 1.2508,-1.3821 2.2742,-3.4803 2.2742,-4.6625 0,-3.183 1.7876,-3.7406 6.4044,-1.9979 3.5327,1.3335 4.5232,1.2013 6.8621,-0.9155 1.5034,-1.3605 2.7335,-3.1326 2.7335,-3.938 0,-0.8053 2.1023,-4.4212 4.6718,-8.0352 l 4.6718,-6.571 -2.6718,-2.844 c -3.8486,-4.0967 -3.3664,-4.716 2.9948,-3.847 5.3449,0.7303 5.9451,0.4639 10.5691,-4.6921 2.9948,-3.3392 6.0744,-5.4664 7.9141,-5.4664 1.6564,0 4.2503,-1.1143 5.7642,-2.4763 3.0213,-2.718 16.2209,-5.7618 20.3283,-4.6877 1.4241,0.3724 5.8521,-0.5631 9.8401,-2.0788 3.988,-1.5157 7.3447,-2.7561 7.4594,-2.7565 0.1147,-4e-4 -0.072,1.0708 -0.4142,2.3805 -0.9388,3.59 7.4857,7.2053 14.2643,6.1215 4.7174,-0.7544 5.2747,-0.5518 5.2747,1.9173 0,2.1627 3.6169,9.9901 6.2087,13.4367 0.2165,0.2878 1.1782,-0.128 2.1372,-0.9238 1.0426,-0.8653 2.4952,-0.9825 3.6131,-0.2916 1.5114,0.9342 1.549,1.5418 0.1961,3.1719 -1.7869,2.1529 -0.6143,5.7059 2.8252,8.5605 2.3166,1.9226 2.2325,28.9468 -0.097,31.2767 -0.8523,0.8523 -1.5496,2.4511 -1.5496,3.5528 0,1.1017 -1.7425,3.8317 -3.8721,6.0667 -4.1959,4.4032 -8.1279,14.4542 -8.1279,20.7766 0,2.6254 -0.6719,3.9535 -2,3.9535 -1.1,0 -2,0.5885 -2,1.3079 0,0.7885 2.4534,0.9714 6.1797,0.4608 4.9689,-0.6811 6.0552,-0.4802 5.5441,1.0254 -0.3777,1.1126 -2.4627,1.8726 -5.1369,1.8726 -3.6285,0 -5.0264,0.8372 -7.2107,4.3189 -1.7887,2.8511 -3.6158,4.2104 -5.3762,4 -2.4281,-0.2904 -2.646,-1.2252 -2.4351,-10.448 l 0.2316,-10.1289 -4.0123,4.0122 c -2.7973,2.7974 -3.8344,4.9427 -3.4249,7.0851 0.6461,3.3793 -3.2145,8.494 -6.4113,8.494 -1.0714,0 -1.948,-1.1359 -1.948,-2.524 0,-3.5468 -4.1817,-4.8548 -6.2924,-1.9683 -0.9328,1.2758 -2.8899,2.4075 -4.349,2.515 -1.4592,0.108 -3.8215,1.2529 -5.2496,2.5453 -1.8929,1.7131 -3.709,2.1056 -6.7017,1.4483 -4.658,-1.0231 -10.7406,-8.0882 -10.7406,-12.4755 0,-3.3393 -1.4137,-3.5731 -6.3996,-1.0579 -1.9802,0.9991 -6.1975,2.1483 -9.3716,2.5539 -5.691,0.7272 -5.7379,0.7007 -3.372,-1.9136 1.3196,-1.4581 2.5637,-5.1069 2.7647,-8.1083 0.201,-3.0014 1.3742,-6.5718 2.6071,-7.9342 1.6771,-1.8531 1.8591,-2.8596 0.7227,-3.996 -1.1363,-1.1363 -1.8589,-0.6247 -2.8688,2.0316 -1.6985,4.4673 -2.9932,4.4425 -10.6017,-0.2032 -3.3811,-2.0644 -7.1975,-4.1456 -8.4808,-4.6248 -5.2321,-1.9536 -0.8463,-8.4128 4.9588,-7.3032 4.3796,0.8373 7.9805,-3.0558 6.8804,-7.4387 -1.181,-4.7056 -5.7458,-5.4372 -8.4237,-1.3503 -1.1902,1.8164 -5.1896,4.8359 -8.8876,6.7098 -3.6981,1.874 -7.8307,4.8144 -9.1836,6.5344 -1.402,1.7822 -4.5854,3.5064 -7.4021,4.0089 -2.7182,0.4849 -6.7615,2.2381 -8.9851,3.8959 -2.2236,1.6578 -5.2236,3.2557 -6.6667,3.551 -2.2074,0.4518 -2.5624,1.4696 -2.2369,6.415 0.2128,3.233 1.0124,6.6317 1.7769,7.5529 0.7644,0.9211 0.9999,2.9035 0.5232,4.4053 -0.4767,1.5019 -0.3152,2.7307 0.3588,2.7307 0.6739,0 3.1089,1.8 5.411,4 2.3021,2.2 4.7445,4 5.4277,4 0.6831,0 1.9428,2.1232 2.7992,4.7183 1.8268,5.5352 0.1615,8.615 -4.6582,8.615 -2.1205,0 -4.4794,-2.1713 -8.17,-7.5205 z m 113.7997,-50.0077 c 3.6305,-7.5748 5.7845,-24.3216 4.3914,-34.1436 -1.9042,-13.4263 -3.4012,-16.796 -7.0708,-15.9164 -20.279,4.8612 -19.9685,4.7124 -24.3631,11.6738 -4.03,6.3839 -4.054,7.5964 -0.2451,12.3562 2.402,3.0014 4.5059,3.9577 10.2678,4.6666 8.2351,1.0132 8.9956,2.2035 9.2318,14.4492 0.073,3.79 0.5084,7.8695 0.9673,9.0655 1.1914,3.1047 4.8555,1.9489 6.8207,-2.1513 z m 64.3449,55.0248 c 0,-1.9123 0.8391,-2.8299 2.588,-2.8299 1.4234,0 2.9588,-0.6 3.412,-1.3333 1.4103,-2.282 3.3333,-1.4644 3.3333,1.4172 0,1.9358 -0.7291,2.6269 -2.4618,2.3333 -1.354,-0.2293 -3.454,0.4064 -4.6667,1.4128 -1.9331,1.6044 -2.2048,1.4811 -2.2048,-1.0001 z m -121.3333,-11.4058 c 0,-1.7145 6.567,-7.4241 8.5391,-7.4241 1.8876,0 0.5451,3.7692 -2.2917,6.4343 -3.5467,3.3318 -6.2474,3.7598 -6.2474,0.9898 z m 114.0134,-78.069 c -0.4606,-0.7454 -2.9021,-1.3551 -5.4255,-1.3551 -3.3529,0 -4.5879,-0.5853 -4.5879,-2.1744 0,-1.7708 0.9283,-2.0211 5,-1.348 2.75,0.4545 5.75,0.8329 6.6666,0.8411 1.9351,0.017 2.255,3.4937 0.4255,4.6244 -0.6827,0.4218 -1.6181,0.1573 -2.0787,-0.588 z m -138.0134,-2.6098 c 0,-3.2114 2.4174,-4.8612 4.3263,-2.9522 1.0142,1.0141 0.9333,2.0225 -0.2794,3.4837 -2.3303,2.8079 -4.0469,2.5824 -4.0469,-0.5315 z m 120,-4.0786 c 0,-1.4667 0.8265,-2.6667 1.8367,-2.6667 1.0102,0 2.5782,-0.8933 3.4844,-1.9853 1.861,-2.2423 4.0122,-1.4931 4.0122,1.3973 0,1.1605 -1.3199,1.9213 -3.3333,1.9213 -2.0741,0 -3.3334,0.7556 -3.3334,2 0,1.1 -0.6,2 -1.3333,2 -0.7333,0 -1.3333,-1.2 -1.3333,-2.6666 z m -2.6667,-10.5556 c 0,-1.6378 0.8609,-2.7778 2.0978,-2.7778 1.2416,0 1.9218,0.9072 1.6666,2.2228 -0.6487,3.3451 -3.7644,3.8044 -3.7644,0.555 z m -152.6667,-12.1111 c -0.4532,-0.7333 -0.4694,-1.9071 -0.036,-2.6084 1.0968,-1.7747 4.7027,-0.1764 4.7027,2.0844 0,2.1319 -3.4346,2.5175 -4.6667,0.524 z m 212.057,-2.5745 c -0.4219,-0.6827 -0.1573,-1.6182 0.588,-2.0787 0.7452,-0.4607 1.355,0.097 1.355,1.2412 0,2.342 -0.8,2.6868 -1.943,0.8375 z m -14.057,-14.0922 c 0,-2.5666 0.6,-4.6666 1.3334,-4.6666 0.7333,0 1.3333,2.1 1.3333,4.6666 0,2.5667 -0.6,4.6667 -1.3333,4.6667 -0.7334,0 -1.3334,-2.1 -1.3334,-4.6667 z m -164.6666,-2 c -0.4533,-0.7333 -0.1887,-1.3333 0.5879,-1.3333 0.7766,0 1.4121,0.6 1.4121,1.3333 0,0.7334 -0.2646,1.3334 -0.588,1.3334 -0.3234,0 -0.9588,-0.6 -1.412,-1.3334 z m -31.3334,-1.9657 c 0,-5.6687 27.3479,-32.0193 36,-34.6875 1.8334,-0.5653 6.6334,-2.6409 10.6667,-4.6124 4.0333,-1.9714 10.0333,-4.3632 13.3333,-5.3149 3.3,-0.9519 7.5,-2.1669 9.3334,-2.7001 4.756,-1.3835 33.4835,-0.4358 35.0764,1.157 0.8872,0.8874 2.1975,0.869 3.9235,-0.055 5.8354,-3.123 37.2611,4.459 51.9273,12.5284 2.9821,1.6408 6.9935,3.8236 8.9141,4.8505 1.9206,1.0271 5.4629,3.5771 7.8717,5.6667 2.4089,2.0897 4.9589,3.7994 5.6667,3.7994 2.2525,0 1.3843,4.8319 -1.3055,7.2662 -2.5102,2.2717 -2.6291,2.2044 -3.7503,-2.1226 -1.2215,-4.714 -3.7071,-6.4532 -13.1315,-9.1881 -4.1256,-1.1972 -6.1753,-1.2133 -8.3201,-0.065 -1.5652,0.8377 -2.7533,1.9552 -2.6403,2.4833 0.5403,2.5255 -2.069,8.2935 -3.7518,8.2935 -3.5819,0 -3.458,-3.8603 0.2257,-7.029 3.3453,-2.8774 3.4574,-3.2838 1.4574,-5.284 -2.3197,-2.3196 -7.0234,-1.6705 -12.4491,1.7178 -2.3442,1.464 -3.1133,1.3865 -5.004,-0.5042 -4.0215,-4.0214 -9.2873,-2.8413 -13.1121,2.9384 -1.8826,2.8448 -5.2097,5.7952 -7.3936,6.5566 -3.5981,1.2542 -4.0446,1.0897 -4.7584,-1.7543 -0.5096,-2.0301 -2.4341,-3.7337 -5.4503,-4.8244 -4.0449,-1.4627 -4.6625,-2.2687 -4.6625,-6.0848 0,-2.4193 -0.45,-4.4615 -1,-4.5379 -9.3955,-1.307 -11.7583,-0.8206 -15.1051,3.1096 -3.433,4.0315 -3.4458,4.0344 -8.0801,1.8352 -3.4272,-1.6262 -5.9906,-1.9224 -9.7969,-1.1314 -5.4713,1.1366 -8.1041,4.3257 -3.5714,4.3257 3.9389,0 6.8868,1.3963 6.8868,3.262 0,1.9244 -5.62,4.738 -9.4641,4.738 -1.8058,0 -3.3198,1.5507 -4.6707,4.7837 -1.4047,3.362 -2.6057,4.5508 -4.041,4 -1.1233,-0.431 -2.8472,-0.7837 -3.8309,-0.7837 -0.9838,0 -3.5713,-1.5 -5.7501,-3.3333 -2.1788,-1.8334 -4.6248,-3.3334 -5.4357,-3.3334 -0.8108,0 -1.4741,1.5 -1.4741,3.3334 0,2.0741 -0.7556,3.3333 -2,3.3333 -1.1,0 -2,-0.6735 -2,-1.4965 0,-1.0246 -0.5258,-1.0731 -1.6667,-0.154 -0.9167,0.7384 -3.7667,1.792 -6.3333,2.3413 -2.5667,0.5493 -7.7152,2.7185 -11.4412,4.8207 -7.6111,4.2938 -9.8922,4.7218 -9.8922,1.8561 z"
       id="path166"
       inkscape:connector-curvature="0" />
  </g>
</svg>
