<?xml version="1.0" encoding="UTF-8" standalone="no"?>
<!-- Created with Inkscape (http://www.inkscape.org/) -->

<svg
   xmlns:dc="http://purl.org/dc/elements/1.1/"
   xmlns:cc="http://creativecommons.org/ns#"
   xmlns:rdf="http://www.w3.org/1999/02/22-rdf-syntax-ns#"
   xmlns:svg="http://www.w3.org/2000/svg"
   xmlns="http://www.w3.org/2000/svg"
   xmlns:sodipodi="http://sodipodi.sourceforge.net/DTD/sodipodi-0.dtd"
   xmlns:inkscape="http://www.inkscape.org/namespaces/inkscape"
   version="1.1"
   id="svg73"
   width="501.32584"
   height="301.68451"
   viewBox="0 0 501.32583 301.6845"
   sodipodi:docname="RightEyeball.svg"
   inkscape:version="0.92.4 (5da689c313, 2019-01-14)">
  <metadata
     id="metadata79">
    <rdf:RDF>
      <cc:Work
         rdf:about="">
        <dc:format>image/svg+xml</dc:format>
        <dc:type
           rdf:resource="http://purl.org/dc/dcmitype/StillImage" />
        <dc:title></dc:title>
      </cc:Work>
    </rdf:RDF>
  </metadata>
  <defs
     id="defs77" />
  <sodipodi:namedview
     pagecolor="#ffffff"
     bordercolor="#666666"
     borderopacity="1"
     objecttolerance="10"
     gridtolerance="10"
     guidetolerance="10"
     inkscape:pageopacity="0"
     inkscape:pageshadow="2"
     inkscape:window-width="1920"
     inkscape:window-height="1017"
     id="namedview75"
     showgrid="false"
     inkscape:zoom="1.2453522"
     inkscape:cx="213.85592"
     inkscape:cy="197.24666"
     inkscape:window-x="-8"
     inkscape:window-y="-8"
     inkscape:window-maximized="1"
     inkscape:current-layer="svg73" />
  <g
     id="rightEyeball"
     transform="translate(-286.35165,-124.41023)">
    <path
       style="fill:#a5a5a8;stroke-width:1.33333337"
       d="m 496.26924,423.25087 c -9.31498,-1.56414 -22.50046,-4.39987 -29.30108,-6.30174 -18.15947,-5.07826 -22.5954,-5.87666 -41.6981,-7.50493 -9.53333,-0.81253 -23.33333,-2.9112 -30.66666,-4.66373 -7.33334,-1.7524 -18.45876,-3.44947 -24.72316,-3.7712 -8.44907,-0.43387 -13.61291,-1.52414 -20,-4.22294 -4.7356,-2.00093 -11.31018,-4.53173 -14.61018,-5.62426 -11.8474,-3.92187 -13.48644,-4.8292 -15.39621,-8.52227 -1.06541,-2.06027 -1.93712,-5.98973 -1.93712,-8.732 0,-3.4832 -1.65975,-7.73307 -5.50629,-14.09933 -3.05918,-5.06307 -6.92411,-14.1476 -8.69654,-20.44107 -2.15149,-7.63947 -4.76323,-13.38107 -8.02123,-17.6336 -11.1908,-14.60707 -11.99392,-24.81107 -4.29664,-54.59093 3.33342,-12.89667 8.32788,-20.48614 21.17229,-32.17294 5.9187,-5.3852 14.05985,-14.25173 18.09144,-19.7032 16.5575,-22.38906 45.71009,-45.71173 67.25697,-53.80693 2.56667,-0.96427 9.00885,-3.7372 14.31596,-6.162 7.56333,-3.45573 9.46693,-4.884 8.80572,-6.6072 -1.20001,-3.1272 1.81141,-4.55187 9.6716,-4.57547 5.68575,-0.0173 8.18561,-0.92213 15.33333,-5.5516 12.75632,-8.26186 16.05134,-9.33106 26.50942,-8.60186 5.02709,0.35053 10.32429,1.37693 11.77156,2.28066 2.1366,1.3344 4.00968,1.20987 9.96144,-0.66226 20.00003,-6.2908 52.94183,-8.6548 86.96431,-6.24107 29.28493,2.07773 37.84778,3.78387 71.60625,14.26747 30.73924,9.546 37.46684,12.12946 46.39375,17.81573 3.3,2.102 9.9,5.47613 14.66667,7.498 9.47752,4.02027 27.15086,16.1704 38.20438,26.26493 9.26879,8.46467 29.43155,33.45574 32.59736,40.4032 1.55702,3.41694 2.63464,9.2132 2.85078,15.33334 0.32942,9.32866 0.0183,10.5248 -5.99187,23.03093 -5.90001,12.27707 -7.40905,14.21627 -21.77467,27.982 -8.48942,8.13493 -18.20445,18.69893 -21.58893,23.47547 -3.38448,4.77653 -11.30077,14.08466 -17.59177,20.68466 -6.29102,6.6 -14.64855,16.0796 -18.57231,21.06587 -3.92377,4.98627 -13.58028,14.88627 -21.45891,22 -11.95904,10.79813 -15.95007,13.56093 -24.16608,16.72933 -19.08917,7.36134 -35.21261,13.1124 -38.50799,13.7352 -1.83333,0.34654 -7.79054,2.84387 -13.23826,5.54987 l -9.90492,4.91973 h -40.794 c -35.45875,0 -43.00902,-0.372 -57.73031,-2.84386 z"
       id="path205"
       inkscape:connector-curvature="0" />
    <path
       style="fill:#9799a4;stroke-width:1.33333337"
       d="m 539.27007,424.05167 c -36.2283,-0.87094 -48.82303,-2.36654 -65.96229,-7.83334 -22.78893,-7.26866 -33.65296,-9.55426 -51.18898,-10.76933 -16.44224,-1.1392 -29.62852,-3.73533 -40.90731,-8.05387 -2.16779,-0.83 -8.14143,-1.72186 -13.27476,-1.98186 -7.39476,-0.37467 -12.37215,-1.744 -23.96385,-6.59294 -8.04679,-3.366 -15.04115,-6.55626 -15.54302,-7.08946 -1.44868,-1.5392 -7.82646,-17.3612 -7.82646,-19.416 0,-1.02307 -2.40954,-5.3912 -5.35452,-9.7068 -2.94499,-4.31574 -6.53868,-11.79014 -7.986,-16.61 -1.44731,-4.81987 -4.95327,-12.01987 -7.79103,-16 -6.68607,-9.37774 -8.97862,-14.06867 -9.9497,-20.35894 -1.03276,-6.68973 3.73272,-33.20666 7.30142,-40.62773 1.52081,-3.16253 8.17759,-11.26253 14.79283,-18 6.61525,-6.73747 15.31578,-16.75 19.33453,-22.25 4.01875,-5.5 10.68457,-13.52307 14.81297,-17.82893 10.67554,-11.13467 36.78531,-30.38254 46.22808,-34.07894 13.87974,-5.4332 31.83364,-13.76826 35.12456,-16.3064 1.7489,-1.3488 4.80512,-2.4524 6.79163,-2.4524 2.01449,0 7.20421,-2.41226 11.73488,-5.45453 4.46769,-3 10.41145,-5.97293 13.20837,-6.60653 6.53024,-1.47934 20.45862,-0.124 23.2101,2.25746 1.83069,1.5848 3.88477,1.2024 14.8408,-2.7636 24.15092,-8.74226 47.5668,-11.2828 81.57557,-8.85066 27.11238,1.93906 41.10968,4.71946 70.79218,14.06253 23.10812,7.2736 33.30037,11.65413 60.66667,26.07347 16.59376,8.7432 40.42214,25.68826 46.77696,33.2644 27.4618,32.73933 27.47061,32.75266 28.57036,43.02186 0.83636,7.80987 0.51774,9.2744 -4.86084,22.34334 -5.65802,13.74786 -6.05187,14.2916 -23.17028,31.9856 -9.57795,9.9 -19.15591,20.4 -21.28438,23.33333 -2.12848,2.93333 -8.48374,10.13333 -14.12284,16 -5.63909,5.86667 -14.5283,16.06667 -19.75382,22.66667 -5.22551,6.6 -15.52418,17.47533 -22.88593,24.16746 -11.43965,10.39894 -15.0722,12.85627 -24.99378,16.90694 -17.85054,7.288 -31.01139,11.776 -37.60879,12.82506 -3.3,0.5248 -8.90904,2.82507 -12.46452,5.1116 -6.97271,4.4844 -16.71164,7.1468 -24.60111,6.72534 -2.7139,-0.14494 -20.83437,-0.64574 -40.2677,-1.1128 z m 100.8008,-41.97854 c 9.48513,-4.944 17.33633,-10.32546 26.08333,-17.87813 8.03772,-6.9404 11.64516,-15.39693 6.96863,-16.33587 -1.82155,-0.36573 -1.72043,-0.81626 0.66666,-2.97106 2.77824,-2.50774 2.81391,-2.5036 2.81391,0.33333 0,4.12333 1.49892,3.6448 10.83699,-3.46 10.25059,-7.79907 11.56617,-10.41427 4.57955,-9.1036 -4.53959,0.8516 -4.82025,0.7264 -3.57742,-1.59573 0.74175,-1.386 2.28139,-3.29414 3.42142,-4.24027 1.14284,-0.9484 2.0728,-3.7868 2.0728,-6.32627 0,-3.32866 1.09716,-5.70306 3.9566,-8.56253 3.83185,-3.83187 4.06309,-3.8868 7.33333,-1.74413 2.32185,1.52133 3.37673,3.41426 3.37673,6.0592 0,2.11573 0.39336,3.84666 0.87415,3.84666 2.89805,0 10.9396,-8.45066 17.24039,-18.11746 5.17225,-7.93534 8.74978,-11.94654 12.261,-13.7472 14.47289,-7.422 21.8024,-28.1444 14.86668,-42.03187 -3.8887,-7.7864 -6.86703,-10.45933 -11.53136,-10.3492 -7.23064,0.1708 -14.72518,-4.4692 -20.37752,-12.616 -12.93391,-18.64213 -26.36547,-32.3212 -36.22482,-36.89253 -2.69031,-1.24734 -8.69031,-4.41827 -13.33333,-7.04667 -5.49748,-3.112 -15.41751,-6.65013 -28.44186,-10.14413 -16.98002,-4.5552 -22.3153,-5.41774 -35.33333,-5.71227 -16.04811,-0.36307 -25.33333,1.17693 -25.33333,4.20173 0,0.98387 -0.94043,1.78894 -2.08986,1.78894 -1.48308,0 -1.8441,-0.77427 -1.24348,-2.66667 0.96335,-3.0352 -0.95049,-3.52307 -3.57142,-0.91027 -2.72971,2.7212 -10.3983,4.96867 -13.92967,4.0824 -5.222,-1.31066 -8.98848,2.46227 -17.99344,18.024 -6.88263,11.89427 -9.13575,14.7648 -11.83645,15.08054 -3.29015,0.38466 -3.93387,2.35253 -2.52644,7.72333 0.35632,1.35973 -0.43627,1.96613 -2.47591,1.89413 -2.05644,-0.072 -3,0.66134 -3,2.33334 0,1.5 -0.96695,2.4392 -2.51116,2.4392 -1.38113,0 -2.88152,1.05 -3.33419,2.33333 -0.45266,1.28333 -1.17265,3.08333 -1.59996,4 -0.4273,0.91667 -0.0731,1.66667 0.78714,1.66667 0.86024,0 2.63661,1.32453 3.9475,2.94346 1.97268,2.43614 2.91542,2.706 5.47027,1.566 6.02119,-2.68666 10.35579,5.75707 6.57852,12.81494 -1.61485,3.01733 -0.41895,6.6756 2.18231,6.6756 1.04598,0 3.88309,1.98133 6.30468,4.40293 5.25734,5.25733 16.75294,10.98707 24.24789,12.086 5.51153,0.80813 19.91037,7.87413 19.94741,9.78893 0.0107,0.58054 0.49032,1.7952 1.06464,2.69934 1.49439,2.35266 -40.54945,43.60946 -48.7074,47.7956 -3.75118,1.92493 -8.59357,3.23053 -12,3.23546 -3.14104,0 -7.42957,0.9044 -9.53006,2 -2.1005,1.09547 -4.91006,1.99174 -6.24348,1.99174 -1.33343,0 -2.78768,1.14453 -3.23168,2.54346 -0.444,1.39894 -1.68443,2.88014 -2.75652,3.29147 -3.80088,1.45853 -1.34619,19.4984 2.65316,19.4984 0.92118,0 3.2934,1.5 5.2716,3.33333 1.9782,1.83334 4.74452,3.33334 6.14738,3.33334 1.40287,0 5.42195,1.61146 8.93131,3.58106 7.59099,4.26027 15.92448,4.5896 47.71397,1.88574 23.69982,-2.01574 34.72918,-1.2848 38.29034,2.53773 1.36412,1.46413 3.05684,2.66213 3.76161,2.66213 0.70476,0 1.28139,0.7172 1.28139,1.59374 0,2.47733 6.89581,9.07293 9.4859,9.07293 1.27618,0 6.36788,-2.10973 11.3149,-4.68827 z"
       id="path203"
       inkscape:connector-curvature="0" />
    <path
       style="fill:#798599;stroke-width:1.33333337"
       d="m 498.39405,421.0902 c -13.33875,-2.15693 -18.78115,-3.56773 -45.12399,-11.69733 -5.97234,-1.84307 -15.60808,-3.29414 -26.75809,-4.02934 -19.52061,-1.28733 -25.18819,-2.34333 -42.92452,-7.99813 -6.79209,-2.1656 -14.81951,-3.93733 -17.83868,-3.93733 -10.21259,0 -33.46988,-10.2268 -37.60321,-16.53507 -1.12167,-1.71187 -3.07382,-6.34187 -4.33812,-10.28867 -1.26431,-3.94693 -4.63319,-10.54613 -7.4864,-14.66493 -2.85322,-4.1188 -6.32232,-11.23627 -7.70914,-15.81653 -1.38681,-4.5804 -5.36105,-12.56027 -8.83167,-17.73307 -6.97752,-10.39987 -9.69672,-16.83333 -9.78498,-23.15093 -0.0847,-6.064 5.11829,-31.06227 7.52057,-36.1332 1.12621,-2.3772 7.18158,-9.5772 13.45638,-16 6.27478,-6.42267 15.4418,-17.0776 20.37112,-23.6776 17.5889,-23.55027 43.33822,-44.786 65.26008,-53.82067 19.805,-8.16227 27.06661,-11.41053 30.66666,-13.718 1.83334,-1.17507 5.29456,-2.4968 7.69163,-2.9372 2.39705,-0.4404 7.87903,-3.28373 12.18215,-6.31827 7.44874,-5.25306 8.36732,-5.5412 19.15932,-6.01133 8.85348,-0.3856 11.69578,-0.06 12.9811,1.4892 2.4657,2.97107 7.90555,2.41467 18.3001,-1.87173 16.8228,-6.9372 26.63097,-8.5508 55.68571,-9.16107 40.14157,-0.8432 59.56125,2.2376 102,16.18173 22.79296,7.48907 27.75809,9.66494 46.14871,20.2244 8.2472,4.7352 15.4876,8.61454 16.08977,8.62067 0.60217,0 8.876,5.5772 18.38629,12.3804 11.03652,7.89493 19.37836,15.00507 23.06064,19.6556 3.17306,4.00747 8.89191,10.82093 12.70856,15.14107 11.02284,12.4768 12.92468,16.2564 12.93254,25.70146 0.005,6.3808 -1.09968,10.9928 -4.93254,20.58734 -4.72194,11.8204 -5.67724,13.13106 -21.70296,29.7772 -9.21997,9.57693 -19.20421,20.7136 -22.18718,24.74813 -2.98298,4.03453 -9.66822,11.64813 -14.8561,16.91893 -5.18788,5.27094 -14.04994,15.32427 -19.69349,22.3408 -5.64353,7.01667 -16.20076,18.10187 -23.46052,24.63387 -11.7808,10.59973 -14.52308,12.3768 -25.5133,16.53253 -6.77257,2.5608 -16.81376,6.36214 -22.31376,8.4472 -5.5,2.08507 -11.43084,3.60574 -13.17965,3.37907 -1.86139,-0.24107 -6.28372,1.48347 -10.66667,4.15973 -4.11785,2.5144 -9.63701,5.26334 -12.26477,6.10867 -7.75321,2.49427 -77.46067,1.3784 -95.43159,-1.5276 z m 98.20935,-17.50213 c 21.25313,-5.36747 28.25992,-8.15027 47.33333,-18.79934 12.64979,-7.06266 17.46322,-10.88613 35.33334,-28.06666 8.43333,-8.10787 20.95327,-19.61614 27.82208,-25.574 6.86881,-5.95774 14.36881,-13.45987 16.66667,-16.67134 7.47877,-10.452 16.04816,-19.75853 22.51364,-24.45013 6.71121,-4.87 17.15958,-18.0084 20.5823,-25.88147 1.12787,-2.5944 2.13271,-8.37346 2.23299,-12.84226 0.17619,-7.85174 -0.028,-8.37174 -6.06593,-15.4464 -4.56848,-5.35294 -8.51144,-8.33667 -14.66667,-11.09827 -18.04295,-8.0952 -38.41841,-23.5376 -38.41841,-29.11693 0,-6.76067 -18.75363,-17.096 -43.92489,-24.20774 -6.27465,-1.7728 -16.73916,-5.0776 -23.25446,-7.344 -21.68602,-7.54373 -32.02595,-9.50306 -54.15399,-10.2616 -21.17677,-0.72586 -30.9248,0.0907 -58.66667,4.91734 -8.43333,1.46706 -18.33333,2.6768 -22,2.68813 -4.26945,0.0133 -9.23134,1.21467 -13.79907,3.34107 -3.92281,1.82613 -8.52306,3.32026 -10.22278,3.32026 -7.66198,0 -17.69891,6.59507 -25.36463,16.66667 -3.65991,4.80853 -13.94685,24.49813 -13.94685,26.69467 0,0.85733 -1.18468,2.6308 -2.63263,3.9412 -1.44795,1.3104 -3.03449,3.64866 -3.52565,5.19613 -0.49116,1.54747 -3.35583,4.9992 -6.36595,7.67053 l -5.47292,4.8568 3.04883,5.42454 c 2.60236,4.63026 2.79874,5.8252 1.34104,8.15933 -1.55623,2.49187 -11.37275,8.0568 -14.21228,8.0568 -2.3883,0 -15.97018,6.57867 -17.05786,8.26227 -3.94589,6.108 -4.35689,21.07106 -0.57877,21.07106 0.70207,0 1.61345,1.06174 2.02531,2.35934 0.41185,1.2976 2.8567,3.49453 5.43301,4.88186 l 4.68419,2.52267 4.99017,-3.9988 c 8.71369,-6.98267 10.61643,-7.59587 12.78828,-4.12093 1.03903,1.6624 2.22499,6.558 2.63545,10.87906 0.41047,4.3212 1.38084,8.4912 2.15638,9.26667 0.77553,0.7756 1.41006,2.3724 1.41006,3.54853 0,2.65147 -7.63697,10.0576 -11.60046,11.25 -3.9878,1.19974 -8.90035,9.37454 -7.89111,13.13147 0.43541,1.62067 0.13227,7.7468 -0.67352,13.61347 -2.54347,18.5168 0.93243,24.65386 16.53189,29.1888 4.19826,1.2204 7.6332,2.66066 7.6332,3.20053 0,3.44627 49.94896,18.77 64.66667,19.83893 31.26103,2.27067 40.80384,3.31267 46,5.02267 7.8194,2.57307 34.64083,1.94613 46.66667,-1.09093 z"
       id="path201"
       inkscape:connector-curvature="0" />
    <path
       style="fill:#877a86;stroke-width:1.33333337"
       d="m 498.39405,421.0902 c -13.33875,-2.15693 -18.78115,-3.56773 -45.12399,-11.69733 -5.97234,-1.84307 -15.60808,-3.29414 -26.75809,-4.02934 -19.52061,-1.28733 -25.18819,-2.34333 -42.92452,-7.99813 -6.79209,-2.1656 -14.81951,-3.93733 -17.83868,-3.93733 -10.21259,0 -33.46988,-10.2268 -37.60321,-16.53507 -1.12167,-1.71187 -3.07382,-6.34187 -4.33812,-10.28867 -1.26431,-3.94693 -4.63319,-10.54613 -7.4864,-14.66493 -2.85322,-4.1188 -6.32232,-11.23627 -7.70914,-15.81653 -1.38681,-4.5804 -5.36105,-12.56027 -8.83167,-17.73307 -6.97752,-10.39987 -9.69672,-16.83333 -9.78498,-23.15093 -0.0847,-6.064 5.11829,-31.06227 7.52057,-36.1332 1.12621,-2.3772 7.18158,-9.5772 13.45638,-16 6.27478,-6.42267 15.4418,-17.0776 20.37112,-23.6776 17.5889,-23.55027 43.33822,-44.786 65.26008,-53.82067 19.805,-8.16227 27.06661,-11.41053 30.66666,-13.718 1.83334,-1.17507 5.29456,-2.4968 7.69163,-2.9372 2.39705,-0.4404 7.87903,-3.28373 12.18215,-6.31827 7.44874,-5.25306 8.36732,-5.5412 19.15932,-6.01133 8.85348,-0.3856 11.69578,-0.06 12.9811,1.4892 2.4657,2.97107 7.90555,2.41467 18.3001,-1.87173 16.8228,-6.9372 26.63097,-8.5508 55.68571,-9.16107 40.14157,-0.8432 59.56125,2.2376 102,16.18173 22.79296,7.48907 27.75809,9.66494 46.14871,20.2244 8.2472,4.7352 15.4876,8.61454 16.08977,8.62067 0.60217,0 8.876,5.5772 18.38629,12.3804 11.03652,7.89493 19.37836,15.00507 23.06064,19.6556 3.17306,4.00747 8.89191,10.82093 12.70856,15.14107 11.02284,12.4768 12.92468,16.2564 12.93254,25.70146 0.005,6.3808 -1.09968,10.9928 -4.93254,20.58734 -4.72194,11.8204 -5.67724,13.13106 -21.70296,29.7772 -9.21997,9.57693 -19.20421,20.7136 -22.18718,24.74813 -2.98298,4.03453 -9.66822,11.64813 -14.8561,16.91893 -5.18788,5.27094 -14.04994,15.32427 -19.69349,22.3408 -5.64353,7.01667 -16.20076,18.10187 -23.46052,24.63387 -11.7808,10.59973 -14.52308,12.3768 -25.5133,16.53253 -6.77257,2.5608 -16.81376,6.36214 -22.31376,8.4472 -5.5,2.08507 -11.43084,3.60574 -13.17965,3.37907 -1.86139,-0.24107 -6.28372,1.48347 -10.66667,4.15973 -4.11785,2.5144 -9.63701,5.26334 -12.26477,6.10867 -7.75321,2.49427 -77.46067,1.3784 -95.43159,-1.5276 z m 90.47662,-13.56013 c 4.7514,-1.7884 12.31204,-4.20347 16.80142,-5.3668 12.2331,-3.16987 41.32226,-17.81174 52.93131,-26.64254 2.93333,-2.23133 12.23333,-10.6908 20.66667,-18.79866 8.43333,-8.10787 20.95327,-19.61614 27.82208,-25.574 6.86881,-5.95774 14.36881,-13.45987 16.66667,-16.67134 7.47877,-10.452 16.04816,-19.75853 22.51364,-24.45013 6.71121,-4.87 17.15958,-18.0084 20.5823,-25.88147 1.12787,-2.5944 2.13271,-8.3512 2.23299,-12.79293 0.17384,-7.7004 -0.0899,-8.40147 -5.67156,-15.07533 -3.77307,-4.51147 -8.65828,-8.41507 -13.74341,-10.982 -20.51787,-10.35747 -37.5691,-23.7028 -39.08122,-30.58734 -1.60385,-7.30226 -11.4948,-13.10786 -33.98816,-19.94946 -7.7,-2.34214 -21.2,-6.642 -30,-9.55534 -33.80669,-11.1924 -53.98515,-13.85253 -95.33333,-12.56826 -14.3,0.44413 -30.8,0.7652 -36.66667,0.71346 -5.86667,-0.052 -13.06667,0.4872 -16,1.19787 -21.48722,5.206 -48.91732,12.39693 -53.49966,14.0252 -9.41545,3.34573 -20.66324,9.06347 -21.34998,10.85307 -0.36112,0.94106 -5.92991,3.9224 -12.37507,6.62506 -13.37337,5.60814 -25.44196,15.0652 -25.44196,19.93667 0,1.96067 -3.35791,6.3956 -9.58657,12.66147 -10.77684,10.84106 -10.69728,11.48626 1.57509,12.77253 14.52337,1.52227 18.04177,2.10493 19.97287,3.308 1.07876,0.67213 1.66238,1.52093 1.29694,1.8864 -0.36544,0.36547 -10.07934,0.848 -21.58644,1.07253 l -20.92201,0.408 -3.98741,4.66667 c -2.19308,2.56667 -4.01182,5.45667 -4.04162,6.42227 -0.0299,0.9656 -1.48565,3.6656 -3.23522,6 -8.15263,10.87786 -12.43192,26.6304 -9.04759,33.30506 0.81968,1.61667 1.65644,5.33934 1.85948,8.27267 l 0.36915,5.33333 6.66666,-0.3592 c 3.66667,-0.19746 15.1907,-0.3892 25.60895,-0.426 16.50485,-0.0587 20.01699,0.32507 27.29436,2.97854 l 8.35208,3.04533 -5.96103,1.76147 c -5.22486,1.544 -7.77228,1.42706 -20.62769,-0.9468 -14.56492,-2.68947 -19.49545,-2.5492 -23.33333,0.66373 -1.1,0.9208 -3.2,1.89133 -4.66667,2.15667 -3.69703,0.6688 -4.19493,6.8288 -0.92649,11.4624 1.42148,2.01506 4.11464,6.7016 5.98481,10.41426 4.05439,8.04894 5.58228,9.4536 11.24232,10.33614 4.59588,0.71653 16.24955,9.75466 16.32231,12.6588 0.024,0.96 0.64372,1.37453 1.37705,0.92133 0.73333,-0.4532 1.33333,-0.27 1.33333,0.40733 0,0.6772 1.80714,3.26267 4.01584,5.74534 2.74556,3.08613 3.80031,5.42946 3.33446,7.40826 -0.74512,3.16507 -1.09519,3.03187 15.31637,5.82827 9.7734,1.66533 31.9424,8.36947 38,11.49173 6.90791,3.5604 36.31857,12.23054 46.37219,13.67027 5.29529,0.7584 17.77019,2.32853 27.72197,3.48947 9.95179,1.1608 24.05179,3.2524 31.33334,4.648 15.55754,2.98173 23.64578,2.5444 35.50644,-1.92 z"
       id="path199"
       inkscape:connector-curvature="0" />
    <path
       style="fill:#73778a;stroke-width:1.33333337"
       d="m 497.27007,420.04447 c -7.33334,-1.2696 -17.23334,-3.53307 -22.00001,-5.03 -4.76666,-1.49694 -13.76666,-4.31227 -20,-6.2564 -8.36878,-2.61 -16.04172,-3.83067 -29.33333,-4.66614 -20.03232,-1.2592 -26.53129,-2.4636 -39.36812,-7.29533 -4.82776,-1.8172 -13.83747,-4.18707 -20.02157,-5.26653 -12.49146,-2.18027 -20.19771,-5.18867 -29.25544,-11.42054 -4.71547,-3.24426 -6.96055,-6.14426 -10.07596,-13.0152 -2.20472,-4.8624 -6.35499,-11.94853 -9.2228,-15.74693 -2.88366,-3.81933 -6.22204,-10.41027 -7.46906,-14.74613 -1.24014,-4.31187 -5.74969,-13.43574 -10.02121,-20.2752 -4.79984,-7.68547 -8.0879,-14.57934 -8.6081,-18.04827 -0.82906,-5.52867 2.95574,-29.55773 5.82878,-37.00573 0.74029,-1.9192 6.57873,-9.0944 12.97429,-15.9448 6.39558,-6.85054 15.67428,-17.88027 20.61936,-24.51067 4.94508,-6.6304 13.40752,-16.3596 18.80544,-21.62067 12.471,-12.15453 33.36418,-27.6652 41.14772,-30.54706 9.95494,-3.68587 31.00976,-12.5792 36.26416,-15.3176 2.71195,-1.41347 6.11599,-2.56987 7.56454,-2.56987 1.44854,0 5.52968,-2.22027 9.06917,-4.93387 3.53951,-2.7136 9.34207,-5.6944 12.89457,-6.624 7.55071,-1.9756 18.19182,-0.92626 20.35742,2.00747 1.3202,1.7884 2.34581,1.78107 9.33333,-0.0667 4.31759,-1.14186 11.45015,-3.59853 15.85015,-5.45946 18.29604,-7.73774 44.06405,-10.2804 77.9034,-7.68734 27.03743,2.072 36.31575,3.94854 66.79677,13.50987 31.95838,10.0248 57.99277,23.0888 83.54125,41.9208 5.96925,4.4 13.54028,9.58547 16.8245,11.5232 3.37691,1.9924 8.44063,6.91653 11.65472,11.33333 3.12588,4.2956 9.09675,11.71014 13.26859,16.4768 4.17185,4.76667 8.28093,9.9772 9.13131,11.57907 2.44956,4.614 1.89242,18.24387 -1.01038,24.71853 -1.40608,3.1364 -3.55973,8.56294 -4.78589,12.0592 -1.71783,4.89814 -6.10843,10.4052 -19.13428,24 -9.29769,9.70374 -19.4348,20.98667 -22.52688,25.07307 -3.09209,4.0864 -8.95005,10.6864 -13.01768,14.66667 -4.06763,3.98026 -13.0056,14.1368 -19.86219,22.57013 -16.59184,20.40733 -34.56116,36.38133 -46.5412,41.37333 -5.00021,2.08347 -11.00021,4.2044 -13.33333,4.71294 -2.33312,0.50866 -7.52794,2.3744 -11.54404,4.14613 -4.0161,1.77173 -9.81556,3.40947 -12.88772,3.63947 -3.07215,0.23 -7.58626,1.70093 -10.03134,3.2688 -12.95046,8.30426 -11.77661,8.13733 -55.89184,7.9532 -31.83009,-0.13334 -43.42196,-0.66574 -53.8871,-2.47747 z m 92,-11.29574 c 5.13333,-1.7364 13.83333,-4.35133 19.33333,-5.81093 10.03592,-2.6632 20.38528,-7.09893 35.39951,-15.1724 12.9634,-6.97067 20.36762,-12.89707 44.60049,-35.69853 9.16667,-8.6252 19.72014,-17.99747 23.45216,-20.8272 7.3563,-5.57774 20.62454,-20.4236 26.32132,-29.45094 2.06906,-3.27866 5.7915,-6.77826 8.89263,-8.3604 2.93364,-1.49666 5.33923,-3.15893 5.34575,-3.694 0.007,-0.53506 3.04224,-4.51333 6.74604,-8.84053 9.0639,-10.58947 12.95209,-18.69333 14.03354,-29.2488 0.81324,-7.93773 0.60276,-9.1124 -2.2811,-12.7308 -1.74735,-2.1924 -4.26,-5.5304 -5.58367,-7.4176 -1.32367,-1.8872 -5.52367,-5.00653 -9.33333,-6.93173 -3.80967,-1.92534 -10.52667,-6.04707 -14.92667,-9.15934 -4.4,-3.1124 -11.09733,-7.214 -14.88297,-9.11466 -6.7582,-3.3932 -11.25203,-8.12547 -12.96556,-13.6536 -0.8812,-2.84294 -8.77267,-9.11267 -16.34951,-12.98974 -5.85043,-2.99346 -57.52679,-20.1708 -70.4768,-23.42653 -27.79186,-6.98693 -56.15311,-8.50867 -84.6585,-4.5424 -8.43333,1.17347 -20.73333,2.02867 -27.33333,1.90027 -7.54859,-0.14667 -14.9676,0.56413 -20,1.91626 -4.4,1.18227 -16.1,4.1648 -26,6.62787 -24.85298,6.18333 -43.31648,13.30573 -44.84964,17.30107 -0.36112,0.94106 -5.92991,3.9224 -12.37507,6.62506 -13.37337,5.60814 -25.44196,15.0652 -25.44196,19.93667 0,1.96067 -3.35791,6.3956 -9.58657,12.66147 -10.77684,10.84106 -10.69728,11.48626 1.57509,12.77253 14.52337,1.52227 18.04177,2.10493 19.97287,3.308 1.07876,0.67213 1.66238,1.52093 1.29694,1.8864 -0.36544,0.36547 -10.07934,0.848 -21.58644,1.07253 l -20.92201,0.408 -3.98741,4.66667 c -2.19308,2.56667 -4.01182,5.45667 -4.04162,6.42227 -0.0299,0.9656 -1.48565,3.6656 -3.23522,6 -8.15263,10.87786 -12.43192,26.6304 -9.04759,33.30506 0.81968,1.61667 1.65644,5.33934 1.85948,8.27267 l 0.36915,5.33333 6.66666,-0.35626 c 17.85155,-0.95387 43.74548,-0.4316 45.08655,0.90946 0.79573,0.79574 2.97679,1.47387 4.84679,1.50694 1.87,0.0333 5.19486,0.82533 7.38857,1.76066 l 3.98859,1.70054 -6.38694,1.60826 c -5.45066,1.3724 -8.44237,1.2116 -20.40854,-1.09773 -13.95106,-2.69227 -19.36711,-2.53427 -23.18168,0.67627 -1.1,0.92573 -3.2,1.90026 -4.66667,2.1656 -5.88672,1.06493 -3.79341,7.82946 8.49737,27.4596 2.71478,4.33586 2.17987,5.80386 -0.97165,2.66666 -1.34276,-1.33666 -1.59177,-0.2132 -1.2576,5.6736 0.38599,6.7996 0.86903,7.75734 6.55672,13 3.37703,3.11294 6.78645,5.65974 7.57651,5.65974 0.79005,0 4.12056,2.32306 7.40112,5.1624 4.47546,3.87346 8.24072,5.70226 15.08109,7.32506 5.01404,1.1896 15.41644,3.97467 23.11644,6.18934 7.7,2.21453 19.22964,5.21906 25.62143,6.67653 6.39177,1.45747 14.79177,3.9096 18.66666,5.44907 8.82047,3.50453 32.45922,7.81946 43.04525,7.85746 10.60386,0.0387 29.76376,2.17934 41.33333,4.6196 23.65209,4.98854 28.02907,4.9928 42.66667,0.0413 z"
       id="path197"
       inkscape:connector-curvature="0" />
    <path
       style="fill:#847079;stroke-width:1.33333337"
       d="m 497.27007,420.04447 c -7.33334,-1.2696 -17.23334,-3.53307 -22.00001,-5.03 -4.76666,-1.49694 -13.76666,-4.31227 -20,-6.2564 -8.36878,-2.61 -16.04172,-3.83067 -29.33333,-4.66614 -20.03232,-1.2592 -26.53129,-2.4636 -39.36812,-7.29533 -4.82776,-1.8172 -13.83747,-4.18707 -20.02157,-5.26653 -12.49146,-2.18027 -20.19771,-5.18867 -29.25544,-11.42054 -4.71547,-3.24426 -6.96055,-6.14426 -10.07596,-13.0152 -2.20472,-4.8624 -6.35499,-11.94853 -9.2228,-15.74693 -2.88366,-3.81933 -6.22204,-10.41027 -7.46906,-14.74613 -1.24014,-4.31187 -5.74969,-13.43574 -10.02121,-20.2752 -4.79984,-7.68547 -8.0879,-14.57934 -8.6081,-18.04827 -0.82906,-5.52867 2.95574,-29.55773 5.82878,-37.00573 0.74029,-1.9192 6.57873,-9.0944 12.97429,-15.9448 6.39558,-6.85054 15.67428,-17.88027 20.61936,-24.51067 4.94508,-6.6304 13.40752,-16.3596 18.80544,-21.62067 12.471,-12.15453 33.36418,-27.6652 41.14772,-30.54706 9.95494,-3.68587 31.00976,-12.5792 36.26416,-15.3176 2.71195,-1.41347 6.11599,-2.56987 7.56454,-2.56987 1.44854,0 5.52968,-2.22027 9.06917,-4.93387 3.53951,-2.7136 9.34207,-5.6944 12.89457,-6.624 7.55071,-1.9756 18.19182,-0.92626 20.35742,2.00747 1.3202,1.7884 2.34581,1.78107 9.33333,-0.0667 4.31759,-1.14186 11.45015,-3.59853 15.85015,-5.45946 18.29604,-7.73774 44.06405,-10.2804 77.9034,-7.68734 27.03743,2.072 36.31575,3.94854 66.79677,13.50987 31.95838,10.0248 57.99277,23.0888 83.54125,41.9208 5.96925,4.4 13.54028,9.58547 16.8245,11.5232 3.37691,1.9924 8.44063,6.91653 11.65472,11.33333 3.12588,4.2956 9.09675,11.71014 13.26859,16.4768 4.17185,4.76667 8.28093,9.9772 9.13131,11.57907 2.44956,4.614 1.89242,18.24387 -1.01038,24.71853 -1.40608,3.1364 -3.55973,8.56294 -4.78589,12.0592 -1.71783,4.89814 -6.10843,10.4052 -19.13428,24 -9.29769,9.70374 -19.4348,20.98667 -22.52688,25.07307 -3.09209,4.0864 -8.95005,10.6864 -13.01768,14.66667 -4.06763,3.98026 -13.0056,14.1368 -19.86219,22.57013 -16.59184,20.40733 -34.56116,36.38133 -46.5412,41.37333 -5.00021,2.08347 -11.00021,4.2044 -13.33333,4.71294 -2.33312,0.50866 -7.52794,2.3744 -11.54404,4.14613 -4.0161,1.77173 -9.81556,3.40947 -12.88772,3.63947 -3.07215,0.23 -7.58626,1.70093 -10.03134,3.2688 -12.95046,8.30426 -11.77661,8.13733 -55.89184,7.9532 -31.83009,-0.13334 -43.42196,-0.66574 -53.8871,-2.47747 z m 90,-10.20694 c 4.76666,-1.7728 13.76666,-4.64293 20,-6.37813 11.31152,-3.14867 21.48757,-7.4964 36.73284,-15.694 12.9634,-6.97067 20.36762,-12.89707 44.60049,-35.69853 9.16667,-8.6252 19.72014,-17.99747 23.45216,-20.8272 7.3563,-5.57774 20.62454,-20.4236 26.32132,-29.45094 2.06906,-3.27866 5.7915,-6.77826 8.89263,-8.3604 2.93364,-1.49666 5.33923,-3.15893 5.34575,-3.694 0.007,-0.53506 3.04224,-4.51333 6.74604,-8.84053 9.0639,-10.58947 12.95209,-18.69333 14.03354,-29.2488 0.81324,-7.93773 0.60276,-9.1124 -2.2811,-12.7308 -1.74735,-2.1924 -4.26,-5.5304 -5.58367,-7.4176 -1.32367,-1.8872 -5.52367,-5.00653 -9.33333,-6.93173 -3.80967,-1.92534 -10.52667,-6.04707 -14.92667,-9.15934 -4.4,-3.1124 -11.09733,-7.214 -14.88297,-9.11466 -6.8334,-3.43094 -12.45036,-9.426 -12.45036,-13.2884 0,-2.08454 -9.51334,-9.62427 -16.86471,-13.36614 -5.88944,-2.99773 -57.59879,-20.17773 -70.4768,-23.41533 -22.33218,-5.6144 -35.40724,-6.8804 -73.73622,-7.13947 -38.62437,-0.26093 -56.12116,1.0984 -72.25561,5.61387 -4.76667,1.33413 -13.16667,3.46827 -18.66667,4.7428 -27.09523,6.27867 -56.7742,19.04573 -78.1508,33.61827 -8.87197,6.048 -19.51532,17.73093 -34.2612,37.60746 -5.20813,7.02027 -11.70652,15.35374 -14.44087,18.5188 -5.40669,6.25827 -12.32706,21.58654 -13.78344,30.52947 -0.59144,3.63187 -0.19852,8.10933 1.11154,12.66667 1.11449,3.87706 2.44778,10.8592 2.96288,15.516 0.66016,5.96813 1.80573,9.40466 3.88201,11.64493 1.62001,1.748 3.28444,2.8392 3.69873,2.42493 0.4143,-0.41426 1.71278,1.2688 2.88551,3.74014 3.45352,7.27773 9.70517,13.9784 13.80711,14.7988 3.05285,0.61053 4.18314,1.8984 5.69981,6.49386 1.89929,5.75494 13.47773,18.35054 16.91821,18.40454 0.91455,0.0147 4.10736,2.23453 7.09514,4.93373 3.9267,3.5476 7.90033,5.5388 14.33717,7.1844 4.89768,1.25213 15.80487,4.22333 24.2382,6.6028 8.43333,2.37933 20.73333,5.70147 27.33333,7.38253 6.6,1.68107 17.1,4.8704 23.33334,7.08747 7.10566,2.52733 15.3123,4.33453 22,4.8444 17.44437,1.33 53.83783,6.01053 66,8.48813 13.23057,2.6952 18.83049,2.314 30.66667,-2.088 z"
       id="path195"
       inkscape:connector-curvature="0" />
    <path
       style="fill:#695560;stroke-width:1.33333337"
       d="m 497.44704,418.5966 c -6.84663,-1.20813 -13.69775,-2.8652 -15.22472,-3.6824 -1.52698,-0.8172 -6.92338,-2.35813 -11.992,-3.4244 -5.06864,-1.06613 -12.45823,-3.21973 -16.42131,-4.78573 -5.41217,-2.1384 -12.01759,-3.1372 -26.53895,-4.01294 -19.48868,-1.1752 -25.49361,-2.38933 -41.33333,-8.35693 -4.76667,-1.79587 -12.17556,-3.9892 -16.4642,-4.874 -5.38539,-1.1112 -9.30377,-2.9388 -12.66667,-5.90827 -2.67802,-2.36466 -7.69808,-5.35146 -11.15568,-6.63733 -6.47044,-2.4064 -11.70234,-7.7276 -21.12612,-21.48653 -2.51137,-3.66667 -5.8763,-8.30974 -7.47761,-10.31787 -1.60132,-2.00813 -3.87017,-6.94893 -5.04191,-10.97947 -1.17172,-4.03066 -3.92986,-9.99466 -6.12922,-13.25346 -5.48354,-8.12507 -10.74747,-19.95094 -11.55265,-25.954 -0.67046,-4.99867 1.26,-20.61374 3.66286,-29.62814 0.70365,-2.63973 2.93052,-6.6116 4.94861,-8.82653 15.24166,-16.72787 23.6778,-26.9688 31.06203,-37.7072 6.89472,-10.02653 23.38241,-25.90507 38.59315,-37.16693 12.65886,-9.37267 18.33056,-12.00694 59.34741,-27.56467 5.13333,-1.94707 10.83333,-4.94707 12.66667,-6.6668 7.2616,-6.8116 22.91262,-9.7916 26.80342,-5.10347 2.69571,3.24814 15.77256,1.6016 26.69807,-3.36146 20.49355,-9.3096 45.55399,-12.8048 77.35858,-10.78907 28.64189,1.81533 45.53517,5.48147 83.64333,18.15227 20.82255,6.92333 47.86651,21.45733 64.61244,34.72413 13.73792,10.88373 22.19406,17.21507 26.43244,19.79067 2.42682,1.4748 7.17983,6.39053 10.56224,10.92413 3.38242,4.53347 9.2731,11.66013 13.09039,15.8368 5.01515,5.48733 6.82845,8.47907 6.53649,10.784 -0.59449,4.69333 -2.76402,4.38813 -5.32902,-0.74987 -3.55744,-7.12586 -7.22362,-10.6088 -14.75114,-14.01386 -3.84481,-1.7392 -10.59057,-6.28427 -14.99057,-10.10014 -4.4,-3.81586 -11.05896,-8.68933 -14.79768,-10.83 -3.73872,-2.14053 -8.67356,-5.95333 -10.96629,-8.47293 -4.94915,-5.4388 -17.60815,-14.2444 -24.97738,-17.3744 -11.4792,-4.87573 -47.09633,-16.8464 -61.1008,-20.5356 -29.81425,-7.85413 -36.47204,-8.6924 -69.49119,-8.75053 -38.9194,-0.068 -64.95534,2.1952 -83.33333,7.2456 -4.76667,1.31 -13.16667,3.4244 -18.66667,4.69893 -27.09523,6.27867 -56.7742,19.04573 -78.1508,33.61827 -8.87197,6.048 -19.51532,17.73093 -34.2612,37.60746 -5.20813,7.02027 -11.70652,15.35374 -14.44087,18.5188 -8.18864,9.47854 -13.1779,23.41747 -14.42785,40.3084 -1.24929,16.88214 -0.44379,22.5084 4.60353,32.15467 2.04774,3.9136 5.43016,12.57347 7.51651,19.24427 4.9176,15.72306 13.95379,26.99613 25.5098,31.82453 9.47877,3.96053 47.34981,14.2552 66.19748,17.9948 10.69937,2.1228 22.7534,5.37587 26.78673,7.22893 9.18975,4.222 25.78232,7.14774 50.48785,8.9024 22.77166,1.6172 34.65244,3.09374 48.17882,5.98747 18.4807,3.95347 24.90914,3.94653 36.02434,-0.04 5.48661,-1.96747 15.97566,-5.2452 23.309,-7.28387 15.69122,-4.362 19.75262,-5.91106 24.66021,-9.4056 2.00489,-1.4276 7.77652,-4.70106 12.82585,-7.27426 12.94799,-6.5988 26.64884,-17.3304 45.18577,-35.3932 8.80284,-8.57774 17.8565,-16.5532 20.11924,-17.72334 5.37218,-2.778 24.60192,-24.17293 27.58186,-30.68746 1.57028,-3.4328 3.8023,-5.69267 6.90136,-6.98747 2.55259,-1.06653 6.32716,-4.42813 8.5258,-7.59307 2.16992,-3.12346 6.14163,-7.77906 8.826,-10.34573 l 4.88067,-4.66667 -1.50391,4 c -0.82714,2.2 -8.21617,10.9388 -16.42005,19.41947 -8.20387,8.48067 -16.96131,18.26347 -19.46097,21.73933 -2.49967,3.476 -9.72499,11.8372 -16.05628,18.58054 -6.3313,6.74333 -15.25798,16.89026 -19.8371,22.54866 -12.9486,16.00054 -30.84269,31.82827 -39.91971,35.30987 -4.20314,1.61213 -8.90909,2.96213 -10.45765,3 -1.54857,0.0373 -6.7854,1.8688 -11.6374,4.0688 -4.85199,2.2 -10.55955,4 -12.68345,4 -5.6362,0 -14.9885,3.62307 -18.84468,7.30027 -1.84372,1.75826 -5.0007,3.81946 -7.01547,4.58066 -6.18428,2.33614 -82.55979,1.25587 -97.49312,-1.37906 z m 279.1972,-161.8352 c 0,-1.46667 0.58162,-3.56667 1.2925,-4.66667 1.07028,-1.65613 1.29249,-1.54146 1.29249,0.66667 0,1.46667 -0.58161,3.56667 -1.29249,4.66667 -1.07028,1.65613 -1.2925,1.54146 -1.2925,-0.66667 z"
       id="path193"
       inkscape:connector-curvature="0" />
  </g>
</svg>
